<?xml version="1.0" standalone="no"?>
<!DOCTYPE svg PUBLIC "-//W3C//DTD SVG 1.1//EN" "http://www.w3.org/Graphics/SVG/1.1/DTD/svg11.dtd" >
<svg xmlns="http://www.w3.org/2000/svg" xmlns:xlink="http://www.w3.org/1999/xlink" version="1.1">
<metadata>
Created by FontForge 20170731 at Mon May 23 15:10:59 2016
 By Aleksey,,,
(URW)++,Copyright 2015 by (URW)++ Design &#38; Development
</metadata>
<defs>
<font id="HusqvarnaGothic-Bold" horiz-adv-x="1114" >
  <font-face 
    font-family="Husqvarna Gothic Bold"
    font-weight="600"
    font-stretch="normal"
    units-per-em="2048"
    panose-1="0 0 8 0 0 0 0 0 0 0"
    ascent="1638"
    descent="-410"
    x-height="1024"
    cap-height="1434"
    bbox="-99 -431 8830 1901"
    underline-thickness="102"
    underline-position="-307"
    unicode-range="U+0020-FB02"
  />
<missing-glyph horiz-adv-x="410" 
d="M41 0v1434h328v-1434h-328zM328 41v1352h-246v-1352h246z" />
    <glyph glyph-name="onehalf" unicode="&#x31;&#x2f;&#x32;" horiz-adv-x="1565" 
d="M280 614v609l-2 2l-107 -51l-65 143l227 117h121v-820h-174zM1191 1434l-778 -1454h-184l778 1454h184zM1174 840q133 0 212 -74q71 -66 71 -168q0 -83 -30.5 -145t-106.5 -133l-174 -162l2 -2h299v-156h-543v135l266 267q105 102 105 196q0 38 -28 62t-72 24
q-98 0 -119 -131l-172 43q51 244 290 244z" />
    <glyph glyph-name="fi" unicode="fi" horiz-adv-x="1053" 
d="M25 819v205h102v61q0 198 65 271q69 78 242 78h123v-205h-41q-71 0 -97 -30.5t-26 -113.5v-61h144v-205h-144v-819h-266v819h-102zM946 1024v-1024h-266v1024h266zM946 1413v-246h-266v246h266z" />
    <glyph glyph-name="fl" unicode="fl" horiz-adv-x="1053" 
d="M25 819v205h102v61q0 198 65 271q69 78 242 78h123v-205h-41q-71 0 -97 -30.5t-26 -113.5v-61h144v-205h-144v-819h-266v819h-102zM946 1434v-1434h-266v1434h266z" />
    <glyph glyph-name=".notdef" horiz-adv-x="410" 
d="M41 0v1434h328v-1434h-328zM328 41v1352h-246v-1352h246z" />
    <glyph glyph-name="glyph1" horiz-adv-x="0" 
 />
    <glyph glyph-name="glyph2" horiz-adv-x="410" 
 />
    <glyph glyph-name="space" unicode=" " horiz-adv-x="410" 
 />
    <glyph glyph-name="exclam" unicode="!" horiz-adv-x="541" 
d="M393 246v-246h-246v246h246zM393 1434v-1024h-246v1024h246z" />
    <glyph glyph-name="quotedbl" unicode="&#x22;" horiz-adv-x="725" 
d="M106 1434h184v-471h-184v471zM434 1434h184v-471h-184v471z" />
    <glyph glyph-name="numbersign" unicode="#" horiz-adv-x="1339" 
d="M332 1434h184v-390h308v390h184v-390h266v-176h-266v-303h266v-176h-266v-389h-184v389h-308v-389h-184v389h-266v176h266v303h-266v176h266v390zM516 868v-303h308v303h-308z" />
    <glyph glyph-name="dollar" unicode="$" horiz-adv-x="1135" 
d="M639 1577v-127q298 -30 389 -358l-246 -62q-40 147 -143 172v-329q205 -99 289 -185q121 -123 121 -299q0 -190 -133 -301q-108 -89 -277 -104v-127h-123v125q-182 13 -294 119q-104 98 -136 264l266 65q11 -77 54.5 -130t109.5 -68v374q-198 101 -276 180
q-113 117 -113 279q0 185 117 287q100 87 272 100v125h123zM762 389q0 78 -123 152v-309q123 30 123 157zM414 1065q0 -67 102 -129v266q-102 -21 -102 -137z" />
    <glyph glyph-name="percent" unicode="%" horiz-adv-x="1462" 
d="M1212 1434l-778 -1454h-184l778 1454h184zM400 772q-151 0 -215 89q-58 81 -58 253q0 340 273 340q272 0 272 -340q0 -196 -76 -275q-65 -67 -196 -67zM400 1292q-97 0 -97 -178q0 -180 97 -180q96 0 96 180q0 178 -96 178zM1063 -20q-150 0 -214 89q-58 81 -58 253
q0 340 272 340t272 -340q0 -195 -76 -275q-64 -67 -196 -67zM1063 500q-96 0 -96 -178q0 -180 96 -180t96 180q0 178 -96 178z" />
    <glyph glyph-name="ampersand" unicode="&#x26;" horiz-adv-x="1380" 
d="M1083 -20l-150 182q-200 -182 -391 -182q-201 0 -327 136q-109 118 -109 290q0 120 61.5 207t233.5 209q-121 154 -121 300q0 161 108 253q92 79 232 79q158 0 256 -102q88 -91 88 -230q0 -99 -47 -174t-168 -169l209 -261l149 148l166 -183l-159 -157l159 -193zM776 350
l-232 289q-176 -126 -176 -233q0 -82 54 -137q49 -51 120 -51q55 0 108 30t126 102zM509 1122q0 -66 93 -169q133 107 133 169q0 123 -115 123q-51 0 -81 -33t-30 -90z" />
    <glyph glyph-name="quotesingle" unicode="'" horiz-adv-x="397" 
d="M106 1434h184v-471h-184v471z" />
    <glyph glyph-name="parenleft" unicode="(" horiz-adv-x="684" 
d="M106 614q0 600 328 1010l143 -88q-225 -399 -225 -922q0 -267 54.5 -488t170.5 -427l-143 -88q-328 410 -328 1003z" />
    <glyph glyph-name="parenright" unicode=")" horiz-adv-x="684" 
d="M577 614q0 -593 -328 -1003l-143 88q116 206 170.5 427t54.5 488q0 523 -225 922l143 88q328 -410 328 -1010z" />
    <glyph glyph-name="asterisk" unicode="*" horiz-adv-x="831" 
d="M356 1219l-21 215h158l-22 -217l202 90l51 -156l-215 -45l150 -170l-131 -94l-115 193l-112 -193l-129 92l147 172l-213 45l51 156z" />
    <glyph glyph-name="plus" unicode="+" horiz-adv-x="1073" 
d="M86 569v205h348v369h205v-369h348v-205h-348v-368h-205v368h-348z" />
    <glyph glyph-name="comma" unicode="," horiz-adv-x="418" 
d="M332 246v-246l-82 -225h-123l62 225h-103v246h246z" />
    <glyph glyph-name="hyphen" unicode="-" horiz-adv-x="786" 
d="M86 487v246h614v-246h-614z" />
    <glyph glyph-name="period" unicode="." horiz-adv-x="418" 
d="M332 246v-246h-246v246h246z" />
    <glyph glyph-name="slash" unicode="/" horiz-adv-x="889" 
d="M865 1454l-615 -1474h-225l614 1474h226z" />
    <glyph glyph-name="zero" unicode="0" 
d="M558 -20q-197 0 -305 84q-101 77 -144 240.5t-43 463.5q0 354 114 516q118 170 378 170q292 0 407 -218q84 -161 84 -468q0 -286 -39 -445q-43 -178 -148 -259q-108 -84 -304 -84zM558 226q77 0 115 34q47 42 67 155q22 119 22 353q0 279 -57 370q-43 70 -147 70
q-119 0 -161 -95q-44 -98 -44 -345q0 -322 41.5 -432t163.5 -110z" />
    <glyph glyph-name="one" unicode="1" horiz-adv-x="725" 
d="M312 0v1114h-4l-181 -90l-102 207l369 203h184v-1434h-266z" />
    <glyph glyph-name="two" unicode="2" horiz-adv-x="1073" 
d="M539 1454q219 0 351 -124q118 -111 118 -285q0 -142 -53.5 -254.5t-179.5 -235.5l-320 -309h533v-246h-902v217l457 461q95 96 136.5 181.5t41.5 184.5q0 75 -53 121q-49 43 -129 43q-170 0 -207 -225l-266 70q86 401 473 401z" />
    <glyph glyph-name="three" unicode="3" 
d="M1049 420q0 -237 -164 -352q-127 -88 -328 -88q-212 0 -345 104q-128 101 -146 276l266 70q15 -97 84 -154q60 -50 141 -50q94 0 149 64q46 53 46 130q0 215 -195 215h-90v246h70q95 0 139.5 39.5t44.5 123.5q0 79 -42.5 121.5t-121.5 42.5q-179 0 -207 -184l-264 70
q70 360 471 360q209 0 331 -109q120 -108 120 -300q0 -88 -45 -166t-119 -119v-4q205 -110 205 -336z" />
    <glyph glyph-name="four" unicode="4" 
d="M66 582l553 852h307v-893h164v-246h-164v-295h-266v295h-594v287zM314 541h346v531h-4l-342 -527v-4z" />
    <glyph glyph-name="five" unicode="5" horiz-adv-x="1094" 
d="M66 319l266 70q18 -96 66.5 -140t134.5 -44q132 0 186 87q44 71 44 216q0 139 -64 210q-54 60 -145 60q-127 0 -201 -123h-246l82 779h754v-246h-535l-31 -279h4q88 95 213 95q222 0 338 -159q97 -133 97 -343q0 -522 -496 -522q-228 0 -352 115q-91 85 -115 224z" />
    <glyph glyph-name="six" unicode="6" horiz-adv-x="1094" 
d="M353 805h4q97 100 240 100q205 0 329 -142q103 -118 103 -284q0 -232 -117 -363q-122 -136 -358 -136q-291 0 -401 210q-87 167 -87 527q0 417 119 581q114 156 373 156q216 0 326 -92q87 -74 130 -227l-264 -70q-18 80 -60.5 111.5t-131.5 31.5q-113 0 -158 -90
q-47 -93 -47 -313zM347 453q0 -119 64 -178q53 -49 145 -49q106 0 160 65q49 58 49 162q0 119 -64 179q-53 50 -145 50q-105 0 -160 -66q-49 -59 -49 -163z" />
    <glyph glyph-name="seven" unicode="7" horiz-adv-x="930" 
d="M25 1188v246h881v-205l-410 -1229h-287l410 1188h-594z" />
    <glyph glyph-name="eight" unicode="8" 
d="M1049 410q0 -224 -149 -336q-126 -94 -342 -94q-236 0 -369 123q-123 114 -123 307q0 239 205 346v4q-144 78 -144 305q0 209 129 307q108 82 302 82q430 0 430 -389q0 -225 -144 -305v-4q205 -107 205 -346zM393 1055q0 -174 165 -174q79 0 121.5 45t42.5 129
q0 174 -164 174q-165 0 -165 -174zM363 420q0 -113 59 -168q50 -47 136 -47q98 0 149 61q45 55 45 154q0 113 -59 168q-50 47 -135 47q-99 0 -150 -61q-45 -55 -45 -154z" />
    <glyph glyph-name="nine" unicode="9" horiz-adv-x="1094" 
d="M742 629h-4q-97 -100 -240 -100q-205 0 -329 142q-103 118 -103 284q0 232 117 363q122 136 358 136q291 0 401 -210q87 -167 87 -527q0 -417 -119 -581q-114 -156 -373 -156q-216 0 -326 92q-87 74 -131 227l265 70q18 -80 60.5 -111.5t131.5 -31.5q112 0 158 90
q47 93 47 313zM748 981q0 119 -64 178q-53 49 -145 49q-106 0 -160 -65q-49 -58 -49 -162q0 -119 64 -179q53 -50 145 -50q105 0 160 66q49 59 49 163z" />
    <glyph glyph-name="colon" unicode=":" horiz-adv-x="418" 
d="M332 246v-246h-246v246h246zM332 942v-246h-246v246h246z" />
    <glyph glyph-name="semicolon" unicode=";" horiz-adv-x="438" 
d="M332 246v-246l-82 -225h-123l62 225h-103v246h246zM332 942v-246h-246v246h246z" />
    <glyph glyph-name="less" unicode="&#x3c;" horiz-adv-x="1073" 
d="M86 569v205l901 365v-226l-594 -241l594 -242v-225z" />
    <glyph glyph-name="equal" unicode="=" horiz-adv-x="1073" 
d="M86 344v205h901v-205h-901zM86 794v205h901v-205h-901z" />
    <glyph glyph-name="greater" unicode="&#x3e;" horiz-adv-x="1073" 
d="M987 774v-205l-901 -364v225l594 242l-594 241v226z" />
    <glyph glyph-name="question" unicode="?" horiz-adv-x="930" 
d="M578 246v-246h-246v246h246zM332 410v102q0 87 32 151t122 156q78 79 105 129.5t27 116.5q0 143 -155 143q-84 0 -123.5 -36.5t-68.5 -140.5l-246 61q55 200 167 285q101 77 271 77q222 0 339 -114q103 -102 103 -275q0 -98 -38.5 -171.5t-145.5 -178.5
q-85 -83 -114 -132.5t-29 -111.5v-61h-246z" />
    <glyph glyph-name="at" unicode="@" horiz-adv-x="1565" 
d="M1115 174q-100 0 -147 94h-4q-75 -94 -211 -94q-156 0 -260 114q-90 98 -90 232q0 155 112 261q96 90 220 90q58 0 119.5 -27t88.5 -64h5l16 68h143v-426q0 -92 51 -92q57 0 96 72.5t39 177.5q0 235 -162 375q-135 116 -327 116q-240 0 -398 -181q-136 -157 -136 -370
q0 -243 176 -402q151 -138 358 -138q104 0 196.5 25t147.5 69l100 -123q-93 -72 -197 -103.5t-247 -31.5q-194 0 -354 88q-159 89 -249 245q-95 164 -95 371q0 200 95 367q91 161 249 253q162 95 354 95q173 0 327 -89q147 -86 235 -228q91 -145 91 -304q0 -206 -97 -327
q-91 -113 -245 -113zM579 520q0 -79 57 -132q49 -46 117 -46q77 0 127 59q43 50 43 119q0 79 -55 132q-49 47 -115 47q-78 0 -130 -60q-44 -51 -44 -119z" />
    <glyph glyph-name="A" unicode="A" horiz-adv-x="1176" 
d="M387 307l-75 -307h-287l387 1434h352l387 -1434h-286l-76 307h-402zM449 553h278l-137 559h-4z" />
    <glyph glyph-name="B" unicode="B" horiz-adv-x="1073" 
d="M792 760v-5q117 -46 168 -142q47 -86 47 -222q0 -194 -152 -301q-129 -90 -329 -90h-420v1434h379q230 0 355 -94q126 -95 126 -275q0 -122 -39.5 -191t-134.5 -114zM393 614v-368h113q214 0 214 186q0 105 -71 148q-56 34 -164 34h-92zM393 1188v-328h92q100 0 151 51
q43 43 43 113q0 164 -194 164h-92z" />
    <glyph glyph-name="C" unicode="C" 
d="M558 -20q-198 0 -305 82q-101 76 -144 239t-43 467q0 354 114 516q118 170 378 170q409 0 481 -419l-268 -41q-20 117 -68 165.5t-145 48.5q-119 0 -161 -95q-44 -98 -44 -345q0 -322 41.5 -432t163.5 -110q106 0 155.5 61.5t67.5 214.5l268 -41q-39 -266 -147 -371
q-113 -110 -344 -110z" />
    <glyph glyph-name="D" unicode="D" horiz-adv-x="1094" 
d="M106 1434h328q355 0 485 -193q109 -161 109 -524q0 -278 -53 -430q-55 -156 -181 -223q-120 -64 -340 -64h-348v1434zM393 1188v-942h41q117 0 171 25q70 33 102 130q34 105 34 316q0 322 -87 412q-40 40 -110 52q-40 7 -110 7h-41z" />
    <glyph glyph-name="E" unicode="E" horiz-adv-x="950" 
d="M106 1434h758v-246h-471v-328h348v-246h-348v-368h491v-246h-778v1434z" />
    <glyph glyph-name="F" unicode="F" horiz-adv-x="868" 
d="M106 1434h737v-246h-450v-369h348v-246h-348v-573h-287v1434z" />
    <glyph glyph-name="G" unicode="G" 
d="M558 -20q-198 0 -305 82q-101 76 -144 239t-43 467q0 354 114 516q118 170 378 170q409 0 481 -420l-269 -41q-19 118 -67 166.5t-145 48.5q-119 0 -161 -95q-44 -98 -44 -345q0 -326 45 -434t180 -108q89 0 138 50q46 47 46 133v82h-198v246h485v-737h-139l-39 123h-5
q-38 -65 -122.5 -104t-185.5 -39z" />
    <glyph glyph-name="H" unicode="H" horiz-adv-x="1196" 
d="M393 614v-614h-287v1434h287v-574h409v574h287v-1434h-287v614h-409z" />
    <glyph glyph-name="I" unicode="I" horiz-adv-x="500" 
d="M393 1434v-1434h-287v1434h287z" />
    <glyph glyph-name="J" unicode="J" horiz-adv-x="705" 
d="M25 0v246h76q112 0 156 44q54 54 54 194v950h287v-950q0 -265 -135 -381q-120 -103 -362 -103h-76z" />
    <glyph glyph-name="K" unicode="K" 
d="M393 1434v-594h4l365 594h307l-369 -594l389 -840h-307l-258 582h-4l-127 -199v-383h-287v1434h287z" />
    <glyph glyph-name="L" unicode="L" horiz-adv-x="868" 
d="M393 1434v-1188h450v-246h-737v1434h287z" />
    <glyph glyph-name="M" unicode="M" horiz-adv-x="1483" 
d="M1376 1434v-1434h-248v1024h-4l-291 -1024h-174l-301 1024h-4v-1024h-248v1434h375l262 -899h4l258 899h371z" />
    <glyph glyph-name="N" unicode="N" horiz-adv-x="1196" 
d="M1089 1434v-1434h-258l-463 930h-4v-930h-258v1434h279l442 -889h4v889h258z" />
    <glyph glyph-name="O" unicode="O" 
d="M558 -20q-197 0 -305 84q-101 77 -144 240.5t-43 463.5q0 354 114 516q118 170 378 170q292 0 407 -218q84 -161 84 -468q0 -286 -39 -445q-43 -178 -148 -259q-108 -84 -304 -84zM558 226q77 0 115 34q47 42 67 155q22 119 22 353q0 279 -57 370q-43 70 -147 70
q-119 0 -161 -95q-44 -98 -44 -345q0 -322 41.5 -432t163.5 -110z" />
    <glyph glyph-name="P" unicode="P" horiz-adv-x="1094" 
d="M106 1434h441q236 0 362 -123q119 -116 119 -328q0 -232 -136 -349q-119 -102 -329 -102h-170v-532h-287v1434zM393 778h137q131 0 175 56q36 44 36 149q0 111 -50 158t-165 47h-133v-410z" />
    <glyph glyph-name="Q" unicode="Q" 
d="M558 -21q-197 0 -305 84q-101 78 -144 241t-43 464q0 354 114 516q118 170 378 170q292 0 407 -218q84 -161 84 -468q0 -274 -35 -430q-35 -153 -110 -236l166 -266h-267l-94 158q-63 -15 -151 -15zM558 225q77 0 115 34q47 42 67 155q22 119 22 354q0 279 -57 370
q-43 70 -147 70q-119 0 -161 -95q-44 -98 -44 -345q0 -323 41.5 -433t163.5 -110z" />
    <glyph glyph-name="R" unicode="R" 
d="M106 1434h441q236 0 362 -123q119 -116 119 -328q0 -300 -221 -404l282 -579h-307l-248 532h-141v-532h-287v1434zM393 778h137q131 0 175 56q36 44 36 149q0 111 -50 158t-165 47h-133v-410z" />
    <glyph glyph-name="S" unicode="S" horiz-adv-x="1032" 
d="M967 1092l-246 -62q-31 110 -89 149q-44 29 -124 29q-155 0 -155 -143q0 -49 44 -87t177 -103q209 -102 292 -185q122 -124 122 -301q0 -209 -158 -320q-127 -89 -321 -89q-204 0 -332 107q-117 99 -152 278l266 65q15 -98 80 -154q57 -50 137 -50q97 0 148 47
q45 42 45 117q0 55 -47.5 98t-189.5 114q-203 102 -282 181q-116 118 -116 282q0 198 134 301q115 88 308 88q196 0 311 -101q101 -89 148 -261z" />
    <glyph glyph-name="T" unicode="T" horiz-adv-x="991" 
d="M25 1434h942v-246h-327v-1188h-287v1188h-328v246z" />
    <glyph glyph-name="U" unicode="U" horiz-adv-x="1196" 
d="M393 1434v-828q0 -231 62 -316q46 -64 143 -64q104 0 153 82q51 87 51 278v848h287v-848q0 -304 -116 -452q-121 -154 -375 -154q-290 0 -406 199q-86 147 -86 417v838h287z" />
    <glyph glyph-name="V" unicode="V" horiz-adv-x="1176" 
d="M590 322l275 1112h286l-387 -1434h-352l-387 1434h287l274 -1112h4z" />
    <glyph glyph-name="W" unicode="W" horiz-adv-x="1647" 
d="M947 1434l213 -989h4l192 989h266l-305 -1434h-291l-200 930h-4l-201 -930h-291l-305 1434h266l193 -989h4l213 989h246z" />
    <glyph glyph-name="X" unicode="X" horiz-adv-x="1176" 
d="M1110 1434l-358 -682l399 -752h-307l-248 502h-4l-260 -502h-307l403 746l-362 688h307l215 -445h4l211 445h307z" />
    <glyph glyph-name="Y" unicode="Y" horiz-adv-x="1135" 
d="M570 860l234 574h307l-389 -901v-533h-287v533l-410 901h307l234 -574h4z" />
    <glyph glyph-name="Z" unicode="Z" horiz-adv-x="1032" 
d="M107 1434h840v-217l-574 -971h594v-246h-901v217l574 971h-533v246z" />
    <glyph glyph-name="bracketleft" unicode="[" horiz-adv-x="725" 
d="M372 1454v-1679h205v-164h-430v2007h430v-164h-205z" />
    <glyph glyph-name="backslash" unicode="\" horiz-adv-x="889" 
d="M639 -20l-614 1474h225l615 -1474h-226z" />
    <glyph glyph-name="bracketright" unicode="]" horiz-adv-x="725" 
d="M352 -225v1679h-205v164h430v-2007h-430v164h205z" />
    <glyph glyph-name="underscore" unicode="_" horiz-adv-x="1024" 
d="M1028 -41v-164h-1032v164h1032z" />
    <glyph glyph-name="grave" unicode="`" horiz-adv-x="664" 
d="M106 1413h287l164 -266h-205z" />
    <glyph glyph-name="a" unicode="a" horiz-adv-x="991" 
d="M482 839q-114 0 -144 -130l-239 36q20 153 126 229q96 70 257 70q189 0 298 -100q105 -96 105 -266v-678h-225l-19 82h-2q-89 -102 -241 -102q-158 0 -247 76q-85 73 -85 200q0 125 89.5 207.5t289.5 142.5l174 60v16q0 82 -32.5 119.5t-104.5 37.5zM619 338v143
l-164 -65q-123 -44 -123 -139q0 -46 34 -74t89 -28q164 0 164 163z" />
    <glyph glyph-name="b" unicode="b" horiz-adv-x="991" 
d="M106 0v1434h266v-492h4q64 103 211 103q166 0 257 -154q81 -140 81 -378q0 -533 -338 -533q-141 0 -231 102h-5l-20 -82h-225zM505 820q-87 0 -133 -93v-328q0 -92 35 -143t98 -51q83 0 117 65q37 72 37 243q0 307 -154 307z" />
    <glyph glyph-name="c" unicode="c" horiz-adv-x="930" 
d="M633 354l252 -39q-20 -194 -142 -273q-96 -62 -267 -62q-233 0 -326 138q-84 124 -84 396q0 530 410 530q358 0 401 -296l-248 -39q-25 130 -154 130q-78 0 -110.5 -73.5t-32.5 -251.5q0 -179 32.5 -254t110.5 -75q74 0 111 40t47 129z" />
    <glyph glyph-name="d" unicode="d" horiz-adv-x="991" 
d="M885 1434v-1434h-225l-21 82h-4q-90 -102 -231 -102q-338 0 -338 533q0 273 105 414q88 118 233 118q147 0 211 -103h4v492h266zM486 820q-154 0 -154 -307q0 -169 35 -238.5t119 -69.5q63 0 98 51t35 143v328q-46 93 -133 93z" />
    <glyph glyph-name="e" unicode="e" horiz-adv-x="971" 
d="M486 185q62 0 93 31q35 35 52 118l250 -39q-28 -182 -140 -255q-91 -60 -255 -60q-240 0 -335 138q-85 123 -85 396q0 284 111 412q102 118 309 118q232 0 334 -154q86 -129 86 -376v-43h-574q0 -159 38 -224q36 -62 116 -62zM486 839q-70 0 -103 -41t-45 -143h295
q-20 184 -147 184z" />
    <glyph glyph-name="f" unicode="f" horiz-adv-x="582" 
d="M25 819v205h102v61q0 198 65 271q69 78 242 78h123v-205h-41q-71 0 -97 -30.5t-26 -113.5v-61h144v-205h-144v-819h-266v819h-102z" />
    <glyph glyph-name="g" unicode="g" horiz-adv-x="991" 
d="M619 82v41h-4q-64 -103 -211 -103q-164 0 -257 154q-81 137 -81 358q0 274 105 405q86 107 233 107q141 0 231 -102h4l21 82h225v-901q0 -290 -110 -409q-96 -103 -299 -103q-181 0 -278 68q-95 67 -120 206l250 39q16 -58 47.5 -83t89.5 -25q154 0 154 266zM486 819
q-74 0 -114 -74.5t-40 -212.5q0 -151 48 -226q39 -61 106 -61q61 0 97 47t36 128v307q-46 92 -133 92z" />
    <glyph glyph-name="h" unicode="h" horiz-adv-x="1032" 
d="M925 614v-614h-266v614q0 98 -37 153q-35 53 -96 53q-82 0 -154 -72v-748h-266v1434h266v-492h4q46 47 115.5 75t136.5 28q156 0 234 -139q63 -112 63 -292z" />
    <glyph glyph-name="i" unicode="i" horiz-adv-x="479" 
d="M372 1024v-1024h-266v1024h266zM372 1413v-246h-266v246h266z" />
    <glyph glyph-name="j" unicode="j" horiz-adv-x="500" 
d="M393 1024v-983q0 -242 -63 -324q-66 -86 -244 -86h-123v205h41q71 0 97 30t26 113v1045h266zM393 1413v-246h-266v246h266z" />
    <glyph glyph-name="k" unicode="k" horiz-adv-x="991" 
d="M372 1434v-799h4l262 389h287l-272 -369l313 -655h-287l-186 436h-4l-117 -139v-297h-266v1434h266z" />
    <glyph glyph-name="l" unicode="l" horiz-adv-x="479" 
d="M372 1434v-1434h-266v1434h266z" />
    <glyph glyph-name="m" unicode="m" horiz-adv-x="1503" 
d="M878 741q6 -58 6 -127v-614h-266v614q0 205 -113 205q-39 0 -63 -12.5t-70 -58.5v-748h-266v1024h225l20 -82h5q46 46 115 74t137 28q156 0 221 -126h4q130 126 287 126q276 0 276 -430v-614h-266v614q0 205 -113 205q-38 0 -64 -14.5t-75 -63.5z" />
    <glyph glyph-name="n" unicode="n" horiz-adv-x="1032" 
d="M925 614v-614h-266v614q0 97 -37 152q-35 53 -96 53q-82 0 -154 -71v-748h-266v1024h225l20 -82h5q43 43 121.5 72.5t150.5 29.5q156 0 234 -139q63 -111 63 -291z" />
    <glyph glyph-name="o" unicode="o" horiz-adv-x="950" 
d="M475 -20q-232 0 -325 138q-84 124 -84 396q0 530 409 530q410 0 410 -530q0 -309 -110 -430q-95 -104 -300 -104zM475 839q-78 0 -110.5 -73.5t-32.5 -251.5q0 -179 32.5 -254t110.5 -75q80 0 112 73.5t32 255.5q0 200 -41 271q-32 54 -103 54z" />
    <glyph glyph-name="p" unicode="p" horiz-adv-x="991" 
d="M106 -369v1393h225l20 -82h5q90 102 231 102q338 0 338 -533q0 -273 -105 -414q-88 -118 -233 -118q-147 0 -211 103h-4v-451h-266zM505 819q-87 0 -133 -92v-328q0 -92 35 -143.5t98 -51.5q83 0 117 65q37 72 37 242q0 308 -154 308z" />
    <glyph glyph-name="q" unicode="q" horiz-adv-x="991" 
d="M885 1024v-1393h-266v451h-4q-64 -103 -211 -103q-167 0 -257 154q-81 140 -81 378q0 533 338 533q141 0 231 -102h4l21 82h225zM486 819q-154 0 -154 -308q0 -168 35 -237.5t119 -69.5q63 0 98 51.5t35 143.5v328q-46 92 -133 92z" />
    <glyph glyph-name="r" unicode="r" horiz-adv-x="664" 
d="M638 1044v-235q-45 10 -92 10q-82 0 -128 -55t-46 -160v-604h-266v1024h225l20 -102h5q82 122 282 122z" />
    <glyph glyph-name="s" unicode="s" horiz-adv-x="868" 
d="M793 784l-229 -53q-50 108 -140 108q-42 0 -67 -19t-25 -50q0 -68 164 -136q155 -64 230 -136q98 -94 98 -223q0 -151 -133 -232q-105 -63 -258 -63q-167 0 -272 75q-105 74 -136 215l240 56q53 -141 174 -141q117 0 117 90q0 41 -29 66t-131 69q-160 70 -230 135
q-100 91 -100 215q0 144 107 219q91 65 241 65q157 0 248 -67q85 -62 131 -193z" />
    <glyph glyph-name="t" unicode="t" horiz-adv-x="602" 
d="M25 819v205h102l29 303h237v-303h144v-205h-144v-471q0 -83 26 -113t97 -30h41v-205h-123q-174 0 -240.5 75.5t-66.5 272.5v471h-102z" />
    <glyph glyph-name="u" unicode="u" horiz-adv-x="1032" 
d="M106 410v614h266v-614q0 -97 37 -152q35 -53 96 -53q82 0 154 71v748h266v-1024h-225l-21 82h-4q-43 -43 -121.5 -72.5t-150.5 -29.5q-156 0 -234 139q-63 111 -63 291z" />
    <glyph glyph-name="v" unicode="v" horiz-adv-x="991" 
d="M946 1024l-307 -1024h-287l-307 1024h266l183 -700h4l182 700h266z" />
    <glyph glyph-name="w" unicode="w" horiz-adv-x="1462" 
d="M1417 1024l-266 -1024h-287l-131 616h-4l-131 -616h-287l-266 1024h246l162 -700h4l141 700h266l142 -700h4l161 700h246z" />
    <glyph glyph-name="x" unicode="x" horiz-adv-x="991" 
d="M917 1024l-284 -485l313 -539h-266l-182 330h-4l-183 -330h-266l305 532l-278 492h266l151 -289h5l157 289h266z" />
    <glyph glyph-name="y" unicode="y" horiz-adv-x="991" 
d="M946 1024l-328 -1024q-37 -121 -65 -181t-66 -100q-86 -88 -258 -88h-123v205h41q84 0 129 35q49 38 76 129l-307 1024h266l182 -701h4l182 701h267z" />
    <glyph glyph-name="z" unicode="z" horiz-adv-x="930" 
d="M127 1024h696v-176l-450 -643h471v-205h-758v176l450 643h-409v205z" />
    <glyph glyph-name="braceleft" unicode="{" horiz-adv-x="684" 
d="M66 533v161q147 67 147 299v353q0 129 76 207q63 65 149 65h181v-164h-105q-39 0 -65.5 -32t-26.5 -79v-380q0 -227 -152 -348q69 -45 110.5 -140.5t41.5 -208.5v-376q0 -48 27 -81.5t65 -33.5h105v-166h-181q-100 0 -166 84q-59 76 -59 188v353q0 235 -147 299z" />
    <glyph glyph-name="bar" unicode="|" horiz-adv-x="541" 
d="M352 1618v-2007h-164v2007h164z" />
    <glyph glyph-name="braceright" unicode="}" horiz-adv-x="664" 
d="M598 694v-161q-147 -64 -147 -299v-353q0 -129 -76 -207q-63 -65 -149 -65h-181v166h105q38 0 65 33.5t27 81.5v376q0 113 41.5 208.5t110.5 140.5q-152 121 -152 348v380q0 47 -26.5 79t-65.5 32h-105v164h181q100 0 166 -84q59 -76 59 -188v-353q0 -232 147 -299z" />
    <glyph glyph-name="nonbreakingspace" unicode="&#xa0;" horiz-adv-x="410" 
 />
    <glyph glyph-name="exclamdown" unicode="&#xa1;" horiz-adv-x="541" 
d="M393 1024v-246h-246v246h246zM393 614v-1024h-246v1024h246z" />
    <glyph glyph-name="cent" unicode="&#xa2;" horiz-adv-x="930" 
d="M740 1167l-51 -161q159 -72 188 -258l-248 -39q-5 22 -16 49l-174 -570q10 -3 37 -3q73 0 110 40t47 129l252 -39q-20 -194 -142 -273q-96 -62 -267 -62q-39 0 -101 8l-39 -131h-116l49 159q-113 53 -161 185q-42 116 -42 313q0 530 410 530q36 0 106 -8l41 131h117z
M332 514q0 -151 21 -221l168 543q-28 3 -45 3q-79 0 -111.5 -73.5t-32.5 -251.5z" />
    <glyph glyph-name="sterling" unicode="&#xa3;" horiz-adv-x="1135" 
d="M1039 1168l-220 -123q-36 87 -75 125t-93 38q-135 0 -135 -204v-287h308l-54 -164h-254v-59q0 -149 -61 -248h594v-246h-902v224q45 52 63.5 108t18.5 139v82h-143l53 164h90v307q0 219 99 324q101 106 313 106q276 0 398 -286z" />
    <glyph glyph-name="yen" unicode="&#xa5;" horiz-adv-x="1176" 
d="M182 655v164h142l-279 615h307l234 -574h4l234 574h307l-266 -615h141v-164h-211l-53 -122h264v-164h-264v-369h-287v369h-273v164h273l-57 122h-216z" />
    <glyph glyph-name="section" unicode="&#xa7;" horiz-adv-x="1094" 
d="M540 0q77 0 129 48q47 43 47 106q0 85 -153 159l-217 107q-132 64 -181 122q-59 70 -59 181q0 160 145 285q-42 35 -69 96t-27 121q0 160 130 264q109 88 253 88q239 0 397 -213l-174 -131q-99 123 -223 123q-58 0 -96.5 -36.5t-38.5 -90.5q0 -85 137 -154l182 -94
q132 -67 188 -123q77 -76 77 -174q0 -81 -36 -163t-93 -134q104 -93 104 -233q0 -180 -139 -286q-116 -89 -283 -89q-133 0 -252 68q-108 62 -180 167l174 131q47 -66 116.5 -105.5t141.5 -39.5zM468 614l216 -110q28 25 49 66.5t21 72.5q0 41 -27 69.5t-99 65.5l-207 111
q-31 -21 -53 -63.5t-22 -82.5q0 -39 24.5 -65t97.5 -64z" />
    <glyph glyph-name="dieresis" unicode="&#xa8;" horiz-adv-x="807" 
d="M352 1393v-246h-246v246h246zM700 1393v-246h-246v246h246z" />
    <glyph glyph-name="copyright" unicode="&#xa9;" horiz-adv-x="1688" 
d="M601 717q0 -114 77 -188q68 -66 165 -66q126 0 195 100l133 -131q-124 -153 -328 -153q-195 0 -321 145q-109 124 -109 293q0 194 140 323q121 113 290 113q193 0 326 -149l-133 -132q-65 97 -193 97q-112 0 -182 -83q-60 -71 -60 -169zM844 -20q-203 0 -375 99
q-166 97 -263 263q-100 172 -100 375q0 202 100 374q97 166 263 263q172 100 375 100q202 0 374 -100q166 -97 263 -263q100 -171 100 -374t-100 -375q-96 -166 -263 -263q-172 -99 -374 -99zM844 1282q-153 0 -283 -75q-127 -74 -201 -202q-76 -131 -76 -288
q0 -254 184 -420q159 -143 376 -143q152 0 282 75q127 74 201 201q76 131 76 287q0 255 -184 422q-159 143 -375 143z" />
    <glyph glyph-name="ordfeminine" unicode="&#xaa;" horiz-adv-x="684" 
d="M344 1325q-58 0 -74 -73l-146 22q20 180 220 180q109 0 171 -56q62 -55 62 -153v-385h-139l-10 35q-51 -47 -134 -47q-90 0 -140 43q-48 42 -48 117q0 69 51 117.5t164 87.5l92 30v2q0 80 -69 80zM413 1053v67l-84 -30q-61 -22 -61 -70q0 -51 59 -51q86 0 86 84z" />
    <glyph glyph-name="guillemotleft" unicode="&#xab;" horiz-adv-x="1217" 
d="M524 127l-418 412l418 409l114 -112l-276 -297l276 -299zM995 127l-418 412l418 409l115 -112l-277 -297l277 -299z" />
    <glyph glyph-name="uni00AD" unicode="&#xad;" horiz-adv-x="786" 
d="M86 487v246h614v-246h-614z" />
    <glyph glyph-name="registered" unicode="&#xae;" horiz-adv-x="1176" 
d="M423 1237h170q92 0 141 -47q45 -44 45 -123q0 -99 -75 -145l102 -211h-135l-88 186h-33v-186h-127v526zM550 1008h37q37 0 50 12t13 47q0 62 -65 62h-35v-121zM106 973q0 214 159 357q137 124 323 124q214 0 357 -159q124 -137 124 -322q0 -214 -159 -357
q-137 -124 -322 -124q-215 0 -358 159q-124 137 -124 322zM231 973q0 -158 118 -265q102 -93 239 -93q158 0 264 119q92 102 92 239q0 158 -118 263q-101 91 -238 91q-159 0 -265 -116q-92 -101 -92 -238z" />
    <glyph glyph-name="macron" unicode="&#xaf;" horiz-adv-x="786" 
d="M679 1352v-164h-573v164h573z" />
    <glyph glyph-name="degree" unicode="&#xb0;" horiz-adv-x="582" 
d="M25 1188q0 118 88 198q75 68 178 68q118 0 198 -88q68 -75 68 -178q0 -119 -88 -198q-75 -68 -178 -68q-119 0 -198 88q-68 75 -68 178zM158 1188q0 -55 39 -94t94 -39t94 39t39 94t-39 94t-94 39t-94 -39t-39 -94z" />
    <glyph glyph-name="plusminus" unicode="&#xb1;" horiz-adv-x="1073" 
d="M86 0v205h901v-205h-901zM86 569v205h348v369h205v-369h348v-205h-348v-323h-205v323h-348z" />
    <glyph glyph-name="twosuperior" unicode="&#xb2;" horiz-adv-x="786" 
d="M396 1454q133 0 212 -74q71 -66 71 -168q0 -83 -30.5 -145t-106.5 -133l-174 -162l2 -2h299v-156h-543v135l266 267q105 102 105 196q0 38 -28 62t-72 24q-98 0 -119 -130l-172 43q52 243 290 243z" />
    <glyph glyph-name="threesuperior" unicode="&#xb3;" horiz-adv-x="807" 
d="M700 854q0 -140 -98 -208q-76 -52 -197 -52q-130 0 -210 63q-78 62 -89 171l168 43q8 -53 43 -86t84 -33q47 0 76.5 28t29.5 74q0 119 -106 119h-39v152h39q49 0 69.5 19t20.5 64q0 88 -90 88q-98 0 -117 -108l-168 43q43 223 285 223q127 0 202 -66q74 -65 74 -179
q0 -98 -88 -156v-4q111 -65 111 -195z" />
    <glyph glyph-name="acute" unicode="&#xb4;" horiz-adv-x="664" 
d="M270 1413h287l-246 -266h-205z" />
    <glyph glyph-name="mu" unicode="&#xb5;" horiz-adv-x="1032" 
d="M106 -369v1393h266v-614q0 -97 37 -153q35 -53 96 -53q82 0 154 72v748h266v-1024h-225l-21 82h-4q-43 -44 -121.5 -73.5t-150.5 -29.5q-18 0 -51 5v-353h-246z" />
    <glyph glyph-name="mu" unicode="&#x3bc;" horiz-adv-x="1032" 
d="M106 -369v1393h266v-614q0 -97 37 -153q35 -53 96 -53q82 0 154 72v748h266v-1024h-225l-21 82h-4q-43 -44 -121.5 -73.5t-150.5 -29.5q-18 0 -51 5v-353h-246z" />
    <glyph glyph-name="paragraph" unicode="&#xb6;" horiz-adv-x="1217" 
d="M1110 1434v-186h-123v-1615h-164v1615h-123v-1615h-164v879q-191 5 -316 147q-114 129 -114 314q0 210 127 341q118 120 303 120h574z" />
    <glyph glyph-name="periodcentered" unicode="&#xb7;" horiz-adv-x="623" 
d="M434 860v-246h-246v246h246z" />
    <glyph glyph-name="cedilla" unicode="&#xb8;" horiz-adv-x="664" 
d="M106 -353l47 80q73 -60 146 -60q41 0 68.5 21t27.5 53q0 30 -28.5 51t-67.5 21q-41 0 -64 -16l-33 16l107 187h82l-45 -86l2 -2q15 6 35 6q76 0 128 -56q46 -47 46 -110q0 -82 -70 -133q-68 -50 -182 -50q-56 0 -111 21.5t-88 56.5z" />
    <glyph glyph-name="onesuperior" unicode="&#xb9;" horiz-adv-x="561" 
d="M280 614v609l-2 2l-107 -51l-65 143l227 117h121v-820h-174z" />
    <glyph glyph-name="ordmasculine" unicode="&#xba;" horiz-adv-x="684" 
d="M342 840q-135 0 -189 80q-47 72 -47 229q0 163 63 238q58 67 173 67q130 0 187 -88q48 -74 48 -217q0 -178 -63 -248q-54 -61 -172 -61zM342 1323q-39 0 -54.5 -38.5t-15.5 -135.5q0 -100 15.5 -139t54.5 -39t54 38t15 140q0 99 -15 136.5t-54 37.5z" />
    <glyph glyph-name="guillemotright" unicode="&#xbb;" horiz-adv-x="1217" 
d="M638 539l-417 -412l-115 113l276 299l-276 297l115 112zM1110 539l-418 -412l-115 113l277 299l-277 297l115 112z" />
    <glyph glyph-name="questiondown" unicode="&#xbf;" horiz-adv-x="930" 
d="M385 778v246h246v-246h-246zM630 614v-102q0 -87 -32 -151.5t-122 -155.5q-78 -80 -105 -130.5t-27 -116.5q0 -143 155 -143q84 0 123.5 37t68.5 141l246 -61q-55 -200 -166 -285q-102 -78 -272 -78q-222 0 -339 115q-103 101 -103 274q0 99 38.5 172.5t145.5 177.5
q85 84 114 133.5t29 111.5v61h246z" />
    <glyph glyph-name="Agrave" unicode="&#xc0;" horiz-adv-x="1176" 
d="M387 307l-75 -307h-287l387 1434h352l387 -1434h-286l-76 307h-402zM449 553h278l-137 559h-4zM297 1802h287l164 -266h-205z" />
    <glyph glyph-name="Aacute" unicode="&#xc1;" horiz-adv-x="1176" 
d="M387 307l-75 -307h-287l387 1434h352l387 -1434h-286l-76 307h-402zM449 553h278l-137 559h-4zM625 1802h287l-246 -266h-205z" />
    <glyph glyph-name="Acircumflex" unicode="&#xc2;" horiz-adv-x="1176" 
d="M387 307l-75 -307h-287l387 1434h352l387 -1434h-286l-76 307h-402zM449 553h278l-137 559h-4zM471 1802h266l205 -266h-205l-133 143l-133 -143h-205z" />
    <glyph glyph-name="Atilde" unicode="&#xc3;" horiz-adv-x="1176" 
d="M387 307l-75 -307h-287l387 1434h352l387 -1434h-286l-76 307h-402zM449 553h278l-137 559h-4zM768 1782h154q-20 -116 -64 -169q-47 -57 -129 -57q-49 0 -121 33q-63 29 -100 29q-34 0 -49 -13t-22 -49h-150q29 226 201 226q50 0 137 -37q59 -25 84 -25q31 0 42 11.5
t17 50.5z" />
    <glyph glyph-name="Adieresis" unicode="&#xc4;" horiz-adv-x="1176" 
d="M387 307l-75 -307h-287l387 1434h352l387 -1434h-286l-76 307h-402zM449 553h278l-137 559h-4zM553 1782v-246h-246v246h246zM901 1782v-246h-246v246h246z" />
    <glyph glyph-name="Aring" unicode="&#xc5;" horiz-adv-x="1176" 
d="M387 307l-75 -307h-287l387 1434h352l387 -1434h-286l-76 307h-402zM449 553h278l-137 559h-4zM399 1698q0 91 68 151q58 52 137 52q91 0 152 -67q53 -58 53 -136q0 -90 -68 -151q-58 -52 -137 -52q-91 0 -152 67q-53 58 -53 136zM524 1698q0 -32 23.5 -55t56.5 -23
t56.5 23t23.5 55t-23.5 55t-56.5 23t-56.5 -23t-23.5 -55z" />
    <glyph glyph-name="AE" unicode="&#xc6;" horiz-adv-x="1708" 
d="M485 307l-154 -307h-307l743 1434h855v-246h-471v-328h349v-246h-349v-368h492v-246h-779v307h-379zM610 553h254v494h-4z" />
    <glyph glyph-name="Ccedilla" unicode="&#xc7;" 
d="M353 -353l47 80q72 -60 145 -60q41 0 68.5 21t27.5 53q0 30 -28 51t-68 21t-63 -16l-33 16l94 166q-191 3 -296 86q-97 77 -139 239.5t-42 463.5q0 354 114 516q118 170 378 170q409 0 481 -419l-268 -42q-20 118 -68 166.5t-145 48.5q-119 0 -161 -95q-44 -98 -44 -345
q0 -323 41.5 -433t163.5 -110q106 0 155.5 61.5t67.5 215.5l268 -41q-37 -248 -131 -354q-98 -110 -291 -124l-35 -69l2 -2q16 6 35 6q76 0 129 -56q45 -47 45 -110q0 -82 -70 -133q-68 -50 -182 -50q-56 0 -110.5 21.5t-87.5 56.5z" />
    <glyph glyph-name="Egrave" unicode="&#xc8;" horiz-adv-x="950" 
d="M106 1434h758v-246h-471v-328h348v-246h-348v-368h491v-246h-778v1434zM184 1802h287l164 -266h-205z" />
    <glyph glyph-name="Eacute" unicode="&#xc9;" horiz-adv-x="950" 
d="M106 1434h758v-246h-471v-328h348v-246h-348v-368h491v-246h-778v1434zM512 1802h287l-246 -266h-205z" />
    <glyph glyph-name="Ecircumflex" unicode="&#xca;" horiz-adv-x="950" 
d="M106 1434h758v-246h-471v-328h348v-246h-348v-368h491v-246h-778v1434zM359 1802h266l205 -266h-205l-133 143l-133 -143h-205z" />
    <glyph glyph-name="Edieresis" unicode="&#xcb;" horiz-adv-x="950" 
d="M106 1434h758v-246h-471v-328h348v-246h-348v-368h491v-246h-778v1434zM441 1782v-246h-246v246h246zM789 1782v-246h-246v246h246z" />
    <glyph glyph-name="Igrave" unicode="&#xcc;" horiz-adv-x="500" 
d="M393 1434v-1434h-287v1434h287zM-41 1802h287l164 -266h-205z" />
    <glyph glyph-name="Iacute" unicode="&#xcd;" horiz-adv-x="500" 
d="M393 1434v-1434h-287v1434h287zM287 1802h287l-246 -266h-205z" />
    <glyph glyph-name="Icircumflex" unicode="&#xce;" horiz-adv-x="500" 
d="M393 1434v-1434h-287v1434h287zM133 1802h266l205 -266h-205l-133 143l-133 -143h-205z" />
    <glyph glyph-name="Idieresis" unicode="&#xcf;" horiz-adv-x="500" 
d="M393 1434v-1434h-287v1434h287zM215 1782v-246h-246v246h246zM563 1782v-246h-246v246h246z" />
    <glyph glyph-name="Eth" unicode="&#xd0;" horiz-adv-x="1094" 
d="M-16 614v205h123v615h328q354 0 484 -193q109 -161 109 -524q0 -278 -53 -430q-55 -156 -180 -223q-120 -64 -340 -64h-348v614h-123zM394 1188v-369h163v-205h-163v-368h41q116 0 170 25q71 33 102 130q34 104 34 316q0 322 -87 412q-40 40 -109 52q-40 7 -110 7h-41z
" />
    <glyph glyph-name="Ntilde" unicode="&#xd1;" horiz-adv-x="1196" 
d="M1089 1434v-1434h-258l-463 930h-4v-930h-258v1434h279l442 -889h4v889h258zM778 1782h154q-20 -116 -64 -169q-47 -57 -129 -57q-49 0 -121 33q-63 29 -100 29q-34 0 -49 -13t-22 -49h-150q29 226 201 226q50 0 137 -37q59 -25 84 -25q31 0 42 11.5t17 50.5z" />
    <glyph glyph-name="Ograve" unicode="&#xd2;" 
d="M558 -20q-197 0 -305 84q-101 77 -144 240.5t-43 463.5q0 354 114 516q118 170 378 170q292 0 407 -218q84 -161 84 -468q0 -286 -39 -445q-43 -178 -148 -259q-108 -84 -304 -84zM558 226q77 0 115 34q47 42 67 155q22 119 22 353q0 279 -57 370q-43 70 -147 70
q-119 0 -161 -95q-44 -98 -44 -345q0 -322 41.5 -432t163.5 -110zM266 1802h287l164 -266h-205z" />
    <glyph glyph-name="Oacute" unicode="&#xd3;" 
d="M558 -20q-197 0 -305 84q-101 77 -144 240.5t-43 463.5q0 354 114 516q118 170 378 170q292 0 407 -218q84 -161 84 -468q0 -286 -39 -445q-43 -178 -148 -259q-108 -84 -304 -84zM558 226q77 0 115 34q47 42 67 155q22 119 22 353q0 279 -57 370q-43 70 -147 70
q-119 0 -161 -95q-44 -98 -44 -345q0 -322 41.5 -432t163.5 -110zM594 1802h287l-246 -266h-205z" />
    <glyph glyph-name="Ocircumflex" unicode="&#xd4;" 
d="M558 -20q-197 0 -305 84q-101 77 -144 240.5t-43 463.5q0 354 114 516q118 170 378 170q292 0 407 -218q84 -161 84 -468q0 -286 -39 -445q-43 -178 -148 -259q-108 -84 -304 -84zM558 226q77 0 115 34q47 42 67 155q22 119 22 353q0 279 -57 370q-43 70 -147 70
q-119 0 -161 -95q-44 -98 -44 -345q0 -322 41.5 -432t163.5 -110zM441 1802h266l205 -266h-205l-133 143l-133 -143h-205z" />
    <glyph glyph-name="Otilde" unicode="&#xd5;" 
d="M558 -20q-197 0 -305 84q-101 77 -144 240.5t-43 463.5q0 354 114 516q118 170 378 170q292 0 407 -218q84 -161 84 -468q0 -286 -39 -445q-43 -178 -148 -259q-108 -84 -304 -84zM558 226q77 0 115 34q47 42 67 155q22 119 22 353q0 279 -57 370q-43 70 -147 70
q-119 0 -161 -95q-44 -98 -44 -345q0 -322 41.5 -432t163.5 -110zM737 1782h154q-20 -116 -64 -169q-47 -57 -129 -57q-49 0 -121 33q-63 29 -100 29q-34 0 -49 -13t-22 -49h-150q29 226 201 226q50 0 137 -37q59 -25 84 -25q31 0 42 11.5t17 50.5z" />
    <glyph glyph-name="Odieresis" unicode="&#xd6;" 
d="M486 1782v-246h-246v246h246zM875 1782v-246h-246v246h246zM558 -20q-197 0 -305 84q-101 77 -144 240.5t-43 463.5q0 354 114 516q118 170 378 170q292 0 407 -218q84 -161 84 -468q0 -286 -39 -445q-43 -178 -148 -259q-108 -84 -304 -84zM558 226q77 0 115 34
q47 42 67 155q22 119 22 353q0 279 -57 370q-43 70 -147 70q-119 0 -161 -95q-44 -98 -44 -345q0 -322 41.5 -432t163.5 -110z" />
    <glyph glyph-name="multiply" unicode="&#xd7;" horiz-adv-x="1073" 
d="M106 956l145 146l285 -285l285 285l145 -146l-285 -284l285 -285l-145 -145l-285 284l-285 -284l-145 145l285 285z" />
    <glyph glyph-name="Oslash" unicode="&#xd8;" 
d="M1049 1438l-98 -178q98 -164 98 -492q0 -286 -39 -445q-43 -178 -148 -259q-108 -84 -304 -84q-167 0 -273 59l-76 -139l-143 80l100 182q-100 166 -100 606q0 354 114 516q118 170 378 170q170 0 276 -71l72 133zM353 768q0 -117 8 -248l340 623q-44 65 -143 65
q-119 0 -161 -95q-44 -98 -44 -345zM557 226q78 0 116 34q47 42 67 155q22 119 22 353q0 56 -4 137l-340 -620q40 -59 139 -59z" />
    <glyph glyph-name="Ugrave" unicode="&#xd9;" horiz-adv-x="1196" 
d="M393 1434v-828q0 -231 62 -316q46 -64 143 -64q104 0 153 82q51 87 51 278v848h287v-848q0 -304 -116 -452q-121 -154 -375 -154q-290 0 -406 199q-86 147 -86 417v838h287zM307 1802h287l164 -266h-205z" />
    <glyph glyph-name="Uacute" unicode="&#xda;" horiz-adv-x="1196" 
d="M393 1434v-828q0 -231 62 -316q46 -64 143 -64q104 0 153 82q51 87 51 278v848h287v-848q0 -304 -116 -452q-121 -154 -375 -154q-290 0 -406 199q-86 147 -86 417v838h287zM635 1802h287l-246 -266h-205z" />
    <glyph glyph-name="Ucircumflex" unicode="&#xdb;" horiz-adv-x="1196" 
d="M393 1434v-828q0 -231 62 -316q46 -64 143 -64q104 0 153 82q51 87 51 278v848h287v-848q0 -304 -116 -452q-121 -154 -375 -154q-290 0 -406 199q-86 147 -86 417v838h287zM482 1802h266l205 -266h-205l-133 143l-133 -143h-205z" />
    <glyph glyph-name="Udieresis" unicode="&#xdc;" horiz-adv-x="1196" 
d="M526 1782v-246h-246v246h246zM915 1782v-246h-246v246h246zM393 1434v-828q0 -231 62 -316q46 -64 143 -64q104 0 153 82q51 87 51 278v848h287v-848q0 -304 -116 -452q-121 -154 -375 -154q-290 0 -406 199q-86 147 -86 417v838h287z" />
    <glyph glyph-name="Yacute" unicode="&#xdd;" horiz-adv-x="1135" 
d="M570 860l234 574h307l-389 -901v-533h-287v533l-410 901h307l234 -574h4zM604 1802h287l-246 -266h-205z" />
    <glyph glyph-name="Thorn" unicode="&#xde;" horiz-adv-x="1094" 
d="M106 1434h287v-246h154q236 0 362 -123q119 -116 119 -327q0 -232 -136 -349q-119 -102 -329 -102h-170v-287h-287v1434zM393 533h137q131 0 175 55q36 45 36 150q0 110 -50 157t-165 47h-133v-409z" />
    <glyph glyph-name="germandbls" unicode="&#xdf;" horiz-adv-x="1094" 
d="M1028 421q0 -238 -151 -350q-124 -91 -341 -91h-82v246h82q195 0 195 195q0 101 -46.5 147.5t-148.5 46.5h-61v246h41q82 0 112.5 39t30.5 145q0 77 -38 120t-105 43t-105.5 -43.5t-38.5 -119.5v-1045h-266v1045q0 221 133 326q105 83 277 83q196 0 313 -109t117 -300
q0 -237 -123 -305v-4q109 -59 157 -132.5t48 -182.5z" />
    <glyph glyph-name="agrave" unicode="&#xe0;" horiz-adv-x="991" 
d="M482 839q-114 0 -144 -130l-239 36q20 153 126 229q96 70 257 70q189 0 298 -100q105 -96 105 -266v-678h-225l-19 82h-2q-89 -102 -241 -102q-158 0 -247 76q-85 73 -85 200q0 125 89.5 207.5t289.5 142.5l174 60v16q0 82 -32.5 119.5t-104.5 37.5zM619 338v143
l-164 -65q-123 -44 -123 -139q0 -46 34 -74t89 -28q164 0 164 163zM188 1413h287l164 -266h-205z" />
    <glyph glyph-name="aacute" unicode="&#xe1;" horiz-adv-x="991" 
d="M482 839q-114 0 -144 -130l-239 36q20 153 126 229q96 70 257 70q189 0 298 -100q105 -96 105 -266v-678h-225l-19 82h-2q-89 -102 -241 -102q-158 0 -247 76q-85 73 -85 200q0 125 89.5 207.5t289.5 142.5l174 60v16q0 82 -32.5 119.5t-104.5 37.5zM619 338v143
l-164 -65q-123 -44 -123 -139q0 -46 34 -74t89 -28q164 0 164 163zM516 1413h287l-246 -266h-205z" />
    <glyph glyph-name="acircumflex" unicode="&#xe2;" horiz-adv-x="991" 
d="M482 839q-114 0 -144 -130l-239 36q20 153 126 229q96 70 257 70q189 0 298 -100q105 -96 105 -266v-678h-225l-19 82h-2q-89 -102 -241 -102q-158 0 -247 76q-85 73 -85 200q0 125 89.5 207.5t289.5 142.5l174 60v16q0 82 -32.5 119.5t-104.5 37.5zM619 338v143
l-164 -65q-123 -44 -123 -139q0 -46 34 -74t89 -28q164 0 164 163zM362 1413h266l205 -266h-205l-133 143l-133 -143h-205z" />
    <glyph glyph-name="atilde" unicode="&#xe3;" horiz-adv-x="991" 
d="M482 839q-114 0 -144 -130l-239 36q20 153 126 229q96 70 257 70q189 0 298 -100q105 -96 105 -266v-678h-225l-19 82h-2q-89 -102 -241 -102q-158 0 -247 76q-85 73 -85 200q0 125 89.5 207.5t289.5 142.5l174 60v16q0 82 -32.5 119.5t-104.5 37.5zM619 338v143
l-164 -65q-123 -44 -123 -139q0 -46 34 -74t89 -28q164 0 164 163zM659 1393h154q-20 -116 -64 -169q-47 -57 -129 -57q-50 0 -121 33q-63 29 -100 29q-34 0 -49 -13t-22 -49h-150q29 226 201 226q50 0 137 -37q59 -25 84 -25q31 0 42 11.5t17 50.5z" />
    <glyph glyph-name="adieresis" unicode="&#xe4;" horiz-adv-x="991" 
d="M482 839q-114 0 -144 -130l-239 36q20 153 126 229q96 70 257 70q189 0 298 -100q105 -96 105 -266v-678h-225l-19 82h-2q-89 -102 -241 -102q-158 0 -247 76q-85 73 -85 200q0 125 89.5 207.5t289.5 142.5l174 60v16q0 82 -32.5 119.5t-104.5 37.5zM619 338v143
l-164 -65q-123 -44 -123 -139q0 -46 34 -74t89 -28q164 0 164 163zM440 1393v-246h-246v246h246zM788 1393v-246h-246v246h246z" />
    <glyph glyph-name="aring" unicode="&#xe5;" horiz-adv-x="991" 
d="M482 839q-114 0 -144 -130l-239 36q20 153 126 229q96 70 257 70q189 0 298 -100q105 -96 105 -266v-678h-225l-19 82h-2q-89 -102 -241 -102q-158 0 -247 76q-85 73 -85 200q0 125 89.5 207.5t289.5 142.5l174 60v16q0 82 -32.5 119.5t-104.5 37.5zM619 338v143
l-164 -65q-123 -44 -123 -139q0 -46 34 -74t89 -28q164 0 164 163zM286 1313q0 91 68 151q58 52 137 52q91 0 152 -67q53 -58 53 -136q0 -90 -68 -151q-58 -52 -137 -52q-91 0 -152 67q-53 58 -53 136zM411 1313q0 -32 23.5 -55t56.5 -23t56.5 23t23.5 55t-23.5 55t-56.5 23
t-56.5 -23t-23.5 -55z" />
    <glyph glyph-name="ae" unicode="&#xe6;" horiz-adv-x="1524" 
d="M1039 185q62 0 93 31q35 35 52 118l250 -39q-28 -182 -140 -255q-91 -60 -255 -60q-202 0 -295 149q-84 -149 -346 -149q-158 0 -247 76q-85 73 -85 200q0 121 86 200.5t293 149.5l174 59v17q0 82 -32.5 119.5t-104.5 37.5q-114 0 -144 -131l-239 37q20 153 126 229
q96 70 257 70q176 0 282 -86q99 86 275 86q232 0 334 -154q86 -129 86 -376v-43h-574q0 -159 38 -224q36 -62 116 -62zM619 338v143l-164 -65q-123 -48 -123 -139q0 -46 34 -74t89 -28q164 0 164 163zM1039 839q-70 0 -103 -41t-45 -143h295q-21 184 -147 184z" />
    <glyph glyph-name="ccedilla" unicode="&#xe7;" horiz-adv-x="930" 
d="M271 -353l47 80q72 -60 145 -60q41 0 68.5 21t27.5 53q0 30 -28 51t-68 21t-63 -16l-33 16l94 166q-224 4 -314 142q-81 125 -81 393q0 530 410 530q179 0 282 -79q98 -76 119 -218l-248 -39q-25 131 -154 131q-78 0 -110.5 -73.5t-32.5 -251.5q0 -180 32.5 -255
t110.5 -75q74 0 111 40t47 130l252 -39q-19 -176 -119 -257q-80 -65 -221 -77l-35 -67l2 -2q16 6 35 6q76 0 129 -56q45 -47 45 -110q0 -82 -70 -133q-68 -50 -182 -50q-55 0 -110 21.5t-88 56.5z" />
    <glyph glyph-name="egrave" unicode="&#xe8;" horiz-adv-x="971" 
d="M486 185q62 0 93 31q35 35 52 118l250 -39q-28 -182 -140 -255q-91 -60 -255 -60q-240 0 -335 138q-85 123 -85 396q0 284 111 412q102 118 309 118q232 0 334 -154q86 -129 86 -376v-43h-574q0 -159 38 -224q36 -62 116 -62zM486 839q-70 0 -103 -41t-45 -143h295
q-20 184 -147 184zM178 1413h287l164 -266h-205z" />
    <glyph glyph-name="eacute" unicode="&#xe9;" horiz-adv-x="971" 
d="M486 185q62 0 93 31q35 35 52 118l250 -39q-28 -182 -140 -255q-91 -60 -255 -60q-240 0 -335 138q-85 123 -85 396q0 284 111 412q102 118 309 118q232 0 334 -154q86 -129 86 -376v-43h-574q0 -159 38 -224q36 -62 116 -62zM486 839q-70 0 -103 -41t-45 -143h295
q-20 184 -147 184zM505 1413h287l-246 -266h-205z" />
    <glyph glyph-name="ecircumflex" unicode="&#xea;" horiz-adv-x="971" 
d="M486 185q62 0 93 31q35 35 52 118l250 -39q-28 -182 -140 -255q-91 -60 -255 -60q-240 0 -335 138q-85 123 -85 396q0 284 111 412q102 118 309 118q232 0 334 -154q86 -129 86 -376v-43h-574q0 -159 38 -224q36 -62 116 -62zM486 839q-70 0 -103 -41t-45 -143h295
q-20 184 -147 184zM352 1413h266l205 -266h-205l-133 143l-133 -143h-205z" />
    <glyph glyph-name="edieresis" unicode="&#xeb;" horiz-adv-x="971" 
d="M486 185q62 0 93 31q35 35 52 118l250 -39q-28 -182 -140 -255q-91 -60 -255 -60q-240 0 -335 138q-85 123 -85 396q0 284 111 412q102 118 309 118q232 0 334 -154q86 -129 86 -376v-43h-574q0 -159 38 -224q36 -62 116 -62zM486 839q-70 0 -103 -41t-45 -143h295
q-20 184 -147 184zM434 1393v-246h-246v246h246zM782 1393v-246h-246v246h246z" />
    <glyph glyph-name="igrave" unicode="&#xec;" horiz-adv-x="479" 
d="M372 1024v-1024h-266v1024h266zM-78 1413h287l164 -266h-205z" />
    <glyph glyph-name="iacute" unicode="&#xed;" horiz-adv-x="479" 
d="M372 1024v-1024h-266v1024h266zM270 1413h287l-246 -266h-205z" />
    <glyph glyph-name="icircumflex" unicode="&#xee;" horiz-adv-x="479" 
d="M372 1024v-1024h-266v1024h266zM106 1413h266l205 -266h-205l-133 143l-133 -143h-205z" />
    <glyph glyph-name="idieresis" unicode="&#xef;" horiz-adv-x="479" 
d="M372 1024v-1024h-266v1024h266zM205 1393v-246h-246v246h246zM553 1393v-246h-246v246h246z" />
    <glyph glyph-name="eth" unicode="&#xf0;" horiz-adv-x="950" 
d="M475 -20q-230 0 -325 134q-84 117 -84 359q0 258 113 377q105 113 317 113q-9 26 -42.5 72t-59.5 71l-146 -117l-86 109l137 109q-63 66 -172 145l127 123q107 -56 197 -139l150 118l86 -110l-138 -107q174 -193 253 -373q83 -186 83 -391q0 -279 -110 -393
q-97 -100 -300 -100zM475 758q-79 0 -111 -64q-32 -65 -32 -221q0 -157 32.5 -222.5t110.5 -65.5q80 0 112 64t32 224q0 177 -41 238q-32 47 -103 47z" />
    <glyph glyph-name="ntilde" unicode="&#xf1;" horiz-adv-x="1032" 
d="M925 614v-614h-266v614q0 97 -37 152q-35 53 -96 53q-82 0 -154 -71v-748h-266v1024h225l20 -82h5q43 43 121.5 72.5t150.5 29.5q156 0 234 -139q63 -111 63 -291zM679 1393h154q-20 -116 -64 -169q-47 -57 -129 -57q-50 0 -121 33q-63 29 -100 29q-34 0 -49 -13t-22 -49
h-150q29 226 201 226q50 0 137 -37q59 -25 84 -25q31 0 42 11.5t17 50.5z" />
    <glyph glyph-name="ograve" unicode="&#xf2;" horiz-adv-x="950" 
d="M475 -20q-232 0 -325 138q-84 124 -84 396q0 530 409 530q410 0 410 -530q0 -309 -110 -430q-95 -104 -300 -104zM475 839q-78 0 -110.5 -73.5t-32.5 -251.5q0 -179 32.5 -254t110.5 -75q80 0 112 73.5t32 255.5q0 200 -41 271q-32 54 -103 54zM167 1413h287l164 -266
h-205z" />
    <glyph glyph-name="oacute" unicode="&#xf3;" horiz-adv-x="950" 
d="M475 -20q-232 0 -325 138q-84 124 -84 396q0 530 409 530q410 0 410 -530q0 -309 -110 -430q-95 -104 -300 -104zM475 839q-78 0 -110.5 -73.5t-32.5 -251.5q0 -179 32.5 -254t110.5 -75q80 0 112 73.5t32 255.5q0 200 -41 271q-32 54 -103 54zM495 1413h287l-246 -266
h-205z" />
    <glyph glyph-name="ocircumflex" unicode="&#xf4;" horiz-adv-x="950" 
d="M475 -20q-232 0 -325 138q-84 124 -84 396q0 530 409 530q410 0 410 -530q0 -309 -110 -430q-95 -104 -300 -104zM475 839q-78 0 -110.5 -73.5t-32.5 -251.5q0 -179 32.5 -254t110.5 -75q80 0 112 73.5t32 255.5q0 200 -41 271q-32 54 -103 54zM342 1413h266l205 -266
h-205l-133 143l-133 -143h-205z" />
    <glyph glyph-name="otilde" unicode="&#xf5;" horiz-adv-x="950" 
d="M475 -20q-232 0 -325 138q-84 124 -84 396q0 530 409 530q410 0 410 -530q0 -309 -110 -430q-95 -104 -300 -104zM475 839q-78 0 -110.5 -73.5t-32.5 -251.5q0 -179 32.5 -254t110.5 -75q80 0 112 73.5t32 255.5q0 200 -41 271q-32 54 -103 54zM638 1393h154
q-20 -116 -64 -169q-47 -57 -129 -57q-50 0 -121 33q-63 29 -100 29q-34 0 -49 -13t-22 -49h-150q29 226 201 226q50 0 137 -37q59 -25 84 -25q31 0 42 11.5t17 50.5z" />
    <glyph glyph-name="odieresis" unicode="&#xf6;" horiz-adv-x="950" 
d="M475 -20q-232 0 -325 138q-84 124 -84 396q0 530 409 530q410 0 410 -530q0 -309 -110 -430q-95 -104 -300 -104zM475 839q-78 0 -110.5 -73.5t-32.5 -251.5q0 -179 32.5 -254t110.5 -75q80 0 112 73.5t32 255.5q0 200 -41 271q-32 54 -103 54zM424 1393v-246h-246v246
h246zM772 1393v-246h-246v246h246z" />
    <glyph glyph-name="divide" unicode="&#xf7;" horiz-adv-x="1073" 
d="M660 447v-246h-246v246h246zM660 1143v-246h-246v246h246zM86 569v205h901v-205h-901z" />
    <glyph glyph-name="oslash" unicode="&#xf8;" horiz-adv-x="950" 
d="M865 1024l-72 -123q92 -135 92 -387q0 -309 -110 -430q-95 -104 -299 -104q-118 0 -203 34l-64 -106l-123 72l72 124q-92 122 -92 410q0 530 410 530q121 0 208 -47l58 99zM475 839q-78 0 -110.5 -73.5t-32.5 -251.5q0 -78 2 -111l234 396q-33 40 -93 40zM619 514l-2 88
l-225 -385q30 -32 84 -32q79 0 111 73.5t32 255.5z" />
    <glyph glyph-name="ugrave" unicode="&#xf9;" horiz-adv-x="1032" 
d="M106 410v614h266v-614q0 -97 37 -152q35 -53 96 -53q82 0 154 71v748h266v-1024h-225l-21 82h-4q-43 -43 -121.5 -72.5t-150.5 -29.5q-156 0 -234 139q-63 111 -63 291zM208 1413h287l164 -266h-205z" />
    <glyph glyph-name="uacute" unicode="&#xfa;" horiz-adv-x="1032" 
d="M106 410v614h266v-614q0 -97 37 -152q35 -53 96 -53q82 0 154 71v748h266v-1024h-225l-21 82h-4q-43 -43 -121.5 -72.5t-150.5 -29.5q-156 0 -234 139q-63 111 -63 291zM536 1413h287l-246 -266h-205z" />
    <glyph glyph-name="ucircumflex" unicode="&#xfb;" horiz-adv-x="1032" 
d="M106 410v614h266v-614q0 -97 37 -152q35 -53 96 -53q82 0 154 71v748h266v-1024h-225l-21 82h-4q-43 -43 -121.5 -72.5t-150.5 -29.5q-156 0 -234 139q-63 111 -63 291zM383 1413h266l205 -266h-205l-133 143l-133 -143h-205z" />
    <glyph glyph-name="udieresis" unicode="&#xfc;" horiz-adv-x="1032" 
d="M106 410v614h266v-614q0 -97 37 -152q35 -53 96 -53q82 0 154 71v748h266v-1024h-225l-21 82h-4q-43 -43 -121.5 -72.5t-150.5 -29.5q-156 0 -234 139q-63 111 -63 291zM465 1393v-246h-246v246h246zM813 1393v-246h-246v246h246z" />
    <glyph glyph-name="yacute" unicode="&#xfd;" horiz-adv-x="991" 
d="M946 1024l-328 -1024q-37 -121 -65 -181t-66 -100q-86 -88 -258 -88h-123v205h41q84 0 129 35q49 38 76 129l-307 1024h266l182 -701h4l182 701h267zM515 1413h287l-246 -266h-205z" />
    <glyph glyph-name="thorn" unicode="&#xfe;" horiz-adv-x="991" 
d="M106 -369v1803h266v-471h4q85 82 211 82q338 0 338 -533q0 -273 -105 -415q-88 -118 -233 -118q-147 0 -211 103h-4v-451h-266zM505 820q-87 0 -133 -93v-328q0 -92 35 -143.5t98 -51.5q83 0 117 66q37 71 37 242q0 308 -154 308z" />
    <glyph glyph-name="ydieresis" unicode="&#xff;" horiz-adv-x="991" 
d="M946 1024l-328 -1024q-37 -121 -65 -181t-66 -100q-86 -88 -258 -88h-123v205h41q84 0 129 35q49 38 76 129l-307 1024h266l182 -701h4l182 701h267zM444 1393v-246h-246v246h246zM792 1393v-246h-246v246h246z" />
    <glyph glyph-name="Amacron" unicode="&#x100;" horiz-adv-x="1176" 
d="M387 307l-75 -307h-287l387 1434h352l387 -1434h-286l-76 307h-402zM449 553h278l-137 559h-4zM890 1741v-164h-573v164h573z" />
    <glyph glyph-name="amacron" unicode="&#x101;" horiz-adv-x="991" 
d="M482 839q-114 0 -144 -130l-239 36q20 153 126 229q96 70 257 70q189 0 298 -100q105 -96 105 -266v-678h-225l-19 82h-2q-89 -102 -241 -102q-158 0 -247 76q-85 73 -85 200q0 125 89.5 207.5t289.5 142.5l174 60v16q0 82 -32.5 119.5t-104.5 37.5zM619 338v143
l-164 -65q-123 -44 -123 -139q0 -46 34 -74t89 -28q164 0 164 163zM767 1352v-164h-573v164h573z" />
    <glyph glyph-name="Abreve" unicode="&#x102;" horiz-adv-x="1176" 
d="M387 307l-75 -307h-287l387 1434h352l387 -1434h-286l-76 307h-402zM449 553h278l-137 559h-4zM737 1802h164q-18 -128 -93 -196q-76 -70 -204 -70q-244 0 -297 266h164q22 -123 133 -123q110 0 133 123z" />
    <glyph glyph-name="abreve" unicode="&#x103;" horiz-adv-x="991" 
d="M482 839q-114 0 -144 -130l-239 36q20 153 126 229q96 70 257 70q189 0 298 -100q105 -96 105 -266v-678h-225l-19 82h-2q-89 -102 -241 -102q-158 0 -247 76q-85 73 -85 200q0 125 89.5 207.5t289.5 142.5l174 60v16q0 82 -32.5 119.5t-104.5 37.5zM619 338v143
l-164 -65q-123 -44 -123 -139q0 -46 34 -74t89 -28q164 0 164 163zM614 1393h164q-18 -128 -93 -196q-76 -70 -204 -70q-244 0 -297 266h164q22 -123 133 -123q110 0 133 123z" />
    <glyph glyph-name="Aogonek" unicode="&#x104;" horiz-adv-x="1176" 
d="M1094 -324q69 0 139 51l54 -82q-87 -76 -199 -76q-122 0 -190 50q-62 46 -62 124q0 137 213 257h-184l-76 307h-402l-75 -307h-287l387 1434h352l387 -1434q-163 -119 -163 -236q0 -41 28.5 -64.5t77.5 -23.5zM449 553h278l-137 559h-4z" />
    <glyph glyph-name="aogonek" unicode="&#x105;" horiz-adv-x="991" 
d="M828 -324q68 0 139 51l53 -82q-86 -76 -198 -76q-122 0 -190 50q-62 46 -62 124q0 137 213 257h-123l-19 82h-2q-89 -103 -241 -103q-158 0 -247 76q-85 73 -85 201q0 124 89.5 207t289.5 143l174 60v16q0 82 -32.5 119.5t-104.5 37.5q-114 0 -144 -130l-239 36
q20 153 126 229q96 70 257 70q189 0 298 -100q105 -96 105 -266v-678q-164 -119 -164 -236q0 -41 28.5 -64.5t78.5 -23.5zM619 338v143l-164 -65q-123 -45 -123 -140q0 -46 34 -74t89 -28q164 0 164 164z" />
    <glyph glyph-name="Cacute" unicode="&#x106;" 
d="M558 -20q-198 0 -305 82q-101 76 -144 239t-43 467q0 354 114 516q118 170 378 170q409 0 481 -419l-268 -41q-20 117 -68 165.5t-145 48.5q-119 0 -161 -95q-44 -98 -44 -345q0 -322 41.5 -432t163.5 -110q106 0 155.5 61.5t67.5 214.5l268 -41q-39 -266 -147 -371
q-113 -110 -344 -110zM615 1802h287l-246 -266h-205z" />
    <glyph glyph-name="cacute" unicode="&#x107;" horiz-adv-x="930" 
d="M633 354l252 -39q-20 -194 -142 -273q-96 -62 -267 -62q-233 0 -326 138q-84 124 -84 396q0 530 410 530q358 0 401 -296l-248 -39q-25 130 -154 130q-78 0 -110.5 -73.5t-32.5 -251.5q0 -179 32.5 -254t110.5 -75q74 0 111 40t47 129zM516 1413h287l-246 -266h-205z" />
    <glyph glyph-name="Ccaron" unicode="&#x10c;" 
d="M558 -20q-198 0 -305 82q-101 76 -144 239t-43 467q0 354 114 516q118 170 378 170q409 0 481 -419l-268 -41q-20 117 -68 165.5t-145 48.5q-119 0 -161 -95q-44 -98 -44 -345q0 -322 41.5 -432t163.5 -110q106 0 155.5 61.5t67.5 214.5l268 -41q-39 -266 -147 -371
q-113 -110 -344 -110zM709 1536h-266l-205 266h205l133 -143l133 143h205z" />
    <glyph glyph-name="ccaron" unicode="&#x10d;" horiz-adv-x="930" 
d="M633 354l252 -39q-20 -194 -142 -273q-96 -62 -267 -62q-233 0 -326 138q-84 124 -84 396q0 530 410 530q358 0 401 -296l-248 -39q-25 130 -154 130q-78 0 -110.5 -73.5t-32.5 -251.5q0 -179 32.5 -254t110.5 -75q74 0 111 40t47 129zM612 1147h-266l-205 266h205
l133 -143l133 143h205z" />
    <glyph glyph-name="Dcaron" unicode="&#x10e;" horiz-adv-x="1094" 
d="M106 1434h328q355 0 485 -193q109 -161 109 -524q0 -278 -53 -430q-55 -156 -181 -223q-120 -64 -340 -64h-348v1434zM393 1188v-942h41q117 0 171 25q70 33 102 130q34 105 34 316q0 322 -87 412q-40 40 -110 52q-40 7 -110 7h-41zM625 1536h-266l-205 266h205l133 -143
l133 143h205z" />
    <glyph glyph-name="dcaron" unicode="&#x10f;" horiz-adv-x="1155" 
d="M885 1434v-1434h-225l-21 82h-4q-90 -102 -231 -102q-338 0 -338 533q0 273 105 414q88 118 233 118q147 0 211 -103h4v492h266zM486 820q-154 0 -154 -307q0 -169 35 -238.5t119 -69.5q63 0 98 51t35 143v328q-46 93 -133 93zM1188 1454v-205l-59 -143h-93l45 143h-98
v205h205z" />
    <glyph glyph-name="Dcroat" unicode="&#x110;" horiz-adv-x="1094" 
d="M-16 614v205h123v615h328q354 0 484 -193q109 -161 109 -524q0 -278 -53 -430q-55 -156 -180 -223q-120 -64 -340 -64h-348v614h-123zM394 1188v-369h163v-205h-163v-368h41q116 0 170 25q71 33 102 130q34 104 34 316q0 322 -87 412q-40 40 -109 52q-40 7 -110 7h-41z
" />
    <glyph glyph-name="dcroat" unicode="&#x111;" horiz-adv-x="971" 
d="M885 1434v-164h103v-164h-103v-1106h-225l-21 82h-4q-90 -102 -231 -102q-338 0 -338 533q0 273 105 414q88 118 233 118q147 0 211 -103h4v164h-205v164h205v164h266zM486 820q-154 0 -154 -307q0 -169 35 -238.5t119 -69.5q63 0 98 51t35 143v328q-46 93 -133 93z" />
    <glyph glyph-name="Emacron" unicode="&#x112;" horiz-adv-x="950" 
d="M106 1434h758v-246h-471v-328h348v-246h-348v-368h491v-246h-778v1434zM778 1741v-164h-573v164h573z" />
    <glyph glyph-name="emacron" unicode="&#x113;" horiz-adv-x="971" 
d="M486 185q62 0 93 31q35 35 52 118l250 -39q-28 -182 -140 -255q-91 -60 -255 -60q-240 0 -335 138q-85 123 -85 396q0 284 111 412q102 118 309 118q232 0 334 -154q86 -129 86 -376v-43h-574q0 -159 38 -224q36 -62 116 -62zM486 839q-70 0 -103 -41t-45 -143h295
q-20 184 -147 184zM773 1352v-164h-573v164h573z" />
    <glyph glyph-name="Edotaccent" unicode="&#x116;" horiz-adv-x="950" 
d="M106 1434h758v-246h-471v-328h348v-246h-348v-368h491v-246h-778v1434zM615 1782v-246h-246v246h246z" />
    <glyph glyph-name="edotaccent" unicode="&#x117;" horiz-adv-x="971" 
d="M486 185q62 0 93 31q35 35 52 118l250 -39q-28 -182 -140 -255q-91 -60 -255 -60q-240 0 -335 138q-85 123 -85 396q0 284 111 412q102 118 309 118q232 0 334 -154q86 -129 86 -376v-43h-574q0 -159 38 -224q36 -62 116 -62zM486 839q-70 0 -103 -41t-45 -143h295
q-20 184 -147 184zM608 1393v-246h-246v246h246z" />
    <glyph glyph-name="Eogonek" unicode="&#x118;" horiz-adv-x="950" 
d="M827 -324q69 0 139 51l53 -82q-86 -76 -198 -76q-122 0 -190 50q-62 46 -62 124q0 137 213 257h-676v1434h758v-246h-471v-328h348v-246h-348v-368h491v-246q-164 -119 -164 -236q0 -41 28.5 -64.5t78.5 -23.5z" />
    <glyph glyph-name="eogonek" unicode="&#x119;" horiz-adv-x="971" 
d="M529 -324q69 0 139 51l53 -82q-86 -76 -198 -76q-122 0 -190 50q-62 46 -62 124q0 130 178 238q-219 9 -306 147q-77 123 -77 386q0 284 111 412q102 118 309 118q232 0 334 -154q86 -129 86 -376v-43h-574q0 -159 38 -225q36 -62 116 -62q62 0 93 32q35 34 52 118
l250 -39q-25 -161 -115 -236q-74 -62 -202 -76q-141 -110 -141 -219q0 -41 28.5 -64.5t77.5 -23.5zM486 839q-70 0 -103 -41t-45 -143h295q-20 184 -147 184z" />
    <glyph glyph-name="Ecaron" unicode="&#x11a;" horiz-adv-x="950" 
d="M106 1434h758v-246h-471v-328h348v-246h-348v-368h491v-246h-778v1434zM625 1536h-266l-205 266h205l133 -143l133 143h205z" />
    <glyph glyph-name="ecaron" unicode="&#x11b;" horiz-adv-x="971" 
d="M486 185q62 0 93 31q35 35 52 118l250 -39q-28 -182 -140 -255q-91 -60 -255 -60q-240 0 -335 138q-85 123 -85 396q0 284 111 412q102 118 309 118q232 0 334 -154q86 -129 86 -376v-43h-574q0 -159 38 -224q36 -62 116 -62zM486 839q-70 0 -103 -41t-45 -143h295
q-20 184 -147 184zM620 1147h-266l-205 266h205l133 -143l133 143h205z" />
    <glyph glyph-name="Gbreve" unicode="&#x11e;" 
d="M558 -20q-198 0 -305 82q-101 76 -144 239t-43 467q0 354 114 516q118 170 378 170q409 0 481 -420l-269 -41q-19 118 -67 166.5t-145 48.5q-119 0 -161 -95q-44 -98 -44 -345q0 -326 45 -434t180 -108q89 0 138 50q46 47 46 133v82h-198v246h485v-737h-139l-39 123h-5
q-38 -65 -122.5 -104t-185.5 -39zM713 1782h164q-18 -128 -93 -196q-76 -70 -204 -70q-244 0 -297 266h164q22 -123 133 -123q110 0 133 123z" />
    <glyph glyph-name="gbreve" unicode="&#x11f;" horiz-adv-x="991" 
d="M619 82v41h-4q-64 -103 -211 -103q-164 0 -257 154q-81 137 -81 358q0 274 105 405q86 107 233 107q141 0 231 -102h4l21 82h225v-901q0 -290 -110 -409q-96 -103 -299 -103q-181 0 -278 68q-95 67 -120 206l250 39q16 -58 47.5 -83t89.5 -25q154 0 154 266zM486 819
q-74 0 -114 -74.5t-40 -212.5q0 -151 48 -226q39 -61 106 -61q61 0 97 47t36 128v307q-46 92 -133 92zM642 1393h164q-18 -128 -93 -196q-76 -70 -204 -70q-244 0 -297 266h164q22 -123 133 -123q110 0 133 123z" />
    <glyph glyph-name="Gcommaaccent" unicode="&#x122;" 
d="M558 -20q-198 0 -305 82q-101 76 -144 239t-43 467q0 354 114 516q118 170 378 170q409 0 481 -420l-269 -41q-19 118 -67 166.5t-145 48.5q-119 0 -161 -95q-44 -98 -44 -345q0 -326 45 -434t180 -108q89 0 138 50q46 47 46 133v82h-198v246h485v-737h-139l-39 123h-5
q-38 -65 -122.5 -104t-185.5 -39zM705 -82v-205l-59 -143h-93l45 143h-98v205h205z" />
    <glyph glyph-name="gcommaaccent" unicode="&#x123;" horiz-adv-x="991" 
d="M619 82v41h-4q-64 -103 -211 -103q-164 0 -257 154q-81 137 -81 358q0 274 105 405q86 107 233 107q141 0 231 -102h4l21 82h225v-901q0 -290 -110 -409q-96 -103 -299 -103q-181 0 -278 68q-95 67 -120 206l250 39q16 -58 47.5 -83t89.5 -25q154 0 154 266zM486 819
q-74 0 -114 -74.5t-40 -212.5q0 -151 48 -226q39 -61 106 -61q61 0 97 47t36 128v307q-46 92 -133 92zM389 1147v205l59 143h93l-45 -143h98v-205h-205z" />
    <glyph glyph-name="Imacron" unicode="&#x12a;" horiz-adv-x="500" 
d="M393 1434v-1434h-287v1434h287zM553 1741v-164h-573v164h573z" />
    <glyph glyph-name="imacron" unicode="&#x12b;" horiz-adv-x="479" 
d="M372 1024v-1024h-266v1024h266zM525 1352v-164h-573v164h573z" />
    <glyph glyph-name="Iogonek" unicode="&#x12e;" horiz-adv-x="500" 
d="M337 -324q69 0 139 51l53 -82q-87 -76 -199 -76q-122 0 -190 50q-62 46 -62 124q0 137 214 257h-185v1434h287v-1434q-164 -119 -164 -236q0 -41 28.5 -64.5t78.5 -23.5z" />
    <glyph glyph-name="iogonek" unicode="&#x12f;" horiz-adv-x="479" 
d="M315 -324q69 0 139 51l53 -82q-87 -76 -198 -76q-122 0 -190 50q-62 46 -62 124q0 137 213 257h-164v1024h266v-1024q-164 -119 -164 -236q0 -41 28.5 -64.5t78.5 -23.5zM372 1413v-246h-266v246h266z" />
    <glyph glyph-name="Idotaccent" unicode="&#x130;" horiz-adv-x="500" 
d="M393 1434v-1434h-287v1434h287zM389 1782v-246h-246v246h246z" />
    <glyph glyph-name="dotlessi" unicode="&#x131;" horiz-adv-x="479" 
d="M372 1024v-1024h-266v1024h266z" />
    <glyph glyph-name="Kcommaaccent" unicode="&#x136;" 
d="M393 1434v-594h4l365 594h307l-369 -594l389 -840h-307l-258 582h-4l-127 -199v-383h-287v1434h287zM676 -82v-205l-59 -143h-93l45 143h-98v205h205z" />
    <glyph glyph-name="kcommaaccent" unicode="&#x137;" horiz-adv-x="991" 
d="M372 1434v-799h4l262 389h287l-272 -369l313 -655h-287l-186 436h-4l-117 -139v-297h-266v1434h266zM635 -82v-205l-59 -143h-93l45 143h-98v205h205z" />
    <glyph glyph-name="Lacute" unicode="&#x139;" horiz-adv-x="868" 
d="M393 1434v-1188h450v-246h-737v1434h287zM287 1802h287l-246 -266h-205z" />
    <glyph glyph-name="lacute" unicode="&#x13a;" horiz-adv-x="479" 
d="M372 1434v-1434h-266v1434h266zM270 1802h287l-246 -266h-205z" />
    <glyph glyph-name="Lcommaaccent" unicode="&#x13b;" horiz-adv-x="868" 
d="M393 1434v-1188h450v-246h-737v1434h287zM574 -82v-205l-59 -143h-93l45 143h-98v205h205z" />
    <glyph glyph-name="lcommaaccent" unicode="&#x13c;" horiz-adv-x="479" 
d="M372 1434v-1434h-266v1434h266zM359 -82v-205l-59 -143h-93l45 143h-98v205h205z" />
    <glyph glyph-name="Lcaron" unicode="&#x13d;" horiz-adv-x="868" 
d="M393 1434v-1188h450v-246h-737v1434h287zM717 1454v-205l-59 -143h-93l45 143h-98v205h205z" />
    <glyph glyph-name="lcaron" unicode="&#x13e;" horiz-adv-x="643" 
d="M372 1434v-1434h-266v1434h266zM676 1454v-205l-59 -143h-93l45 143h-98v205h205z" />
    <glyph glyph-name="Lslash" unicode="&#x141;" horiz-adv-x="868" 
d="M-16 389v226l123 59v760h287v-623l204 99v-226l-204 -98v-340h450v-246h-737v449z" />
    <glyph glyph-name="lslash" unicode="&#x142;" horiz-adv-x="438" 
d="M-16 389v226l102 49v770h266v-643l103 49v-225l-103 -50v-565h-266v438z" />
    <glyph glyph-name="Nacute" unicode="&#x143;" horiz-adv-x="1196" 
d="M1089 1434v-1434h-258l-463 930h-4v-930h-258v1434h279l442 -889h4v889h258zM656 1802h287l-246 -266h-205z" />
    <glyph glyph-name="nacute" unicode="&#x144;" horiz-adv-x="1032" 
d="M925 614v-614h-266v614q0 97 -37 152q-35 53 -96 53q-82 0 -154 -71v-748h-266v1024h225l20 -82h5q43 43 121.5 72.5t150.5 29.5q156 0 234 -139q63 -111 63 -291zM516 1413h287l-246 -266h-205z" />
    <glyph glyph-name="Ncommaaccent" unicode="&#x145;" horiz-adv-x="1196" 
d="M1089 1434v-1434h-258l-463 930h-4v-930h-258v1434h279l442 -889h4v889h258zM697 -82v-205l-59 -143h-93l45 143h-98v205h205z" />
    <glyph glyph-name="ncommaaccent" unicode="&#x146;" horiz-adv-x="1032" 
d="M925 614v-614h-266v614q0 97 -37 152q-35 53 -96 53q-82 0 -154 -71v-748h-266v1024h225l20 -82h5q43 43 121.5 72.5t150.5 29.5q156 0 234 -139q63 -111 63 -291zM635 -82v-205l-59 -143h-93l45 143h-98v205h205z" />
    <glyph glyph-name="Ncaron" unicode="&#x147;" horiz-adv-x="1196" 
d="M1089 1434v-1434h-258l-463 930h-4v-930h-258v1434h279l442 -889h4v889h258zM756 1536h-266l-205 266h205l133 -143l133 143h205z" />
    <glyph glyph-name="ncaron" unicode="&#x148;" horiz-adv-x="1032" 
d="M925 614v-614h-266v614q0 97 -37 152q-35 53 -96 53q-82 0 -154 -71v-748h-266v1024h225l20 -82h5q43 43 121.5 72.5t150.5 29.5q156 0 234 -139q63 -111 63 -291zM618 1147h-266l-205 266h205l133 -143l133 143h205z" />
    <glyph glyph-name="Omacron" unicode="&#x14c;" 
d="M558 -20q-197 0 -305 84q-101 77 -144 240.5t-43 463.5q0 354 114 516q118 170 378 170q292 0 407 -218q84 -161 84 -468q0 -286 -39 -445q-43 -178 -148 -259q-108 -84 -304 -84zM558 226q77 0 115 34q47 42 67 155q22 119 22 353q0 279 -57 370q-43 70 -147 70
q-119 0 -161 -95q-44 -98 -44 -345q0 -322 41.5 -432t163.5 -110zM860 1741v-164h-573v164h573z" />
    <glyph glyph-name="omacron" unicode="&#x14d;" horiz-adv-x="950" 
d="M475 -20q-232 0 -325 138q-84 124 -84 396q0 530 409 530q410 0 410 -530q0 -309 -110 -430q-95 -104 -300 -104zM475 839q-78 0 -110.5 -73.5t-32.5 -251.5q0 -179 32.5 -254t110.5 -75q80 0 112 73.5t32 255.5q0 200 -41 271q-32 54 -103 54zM761 1352v-164h-573v164
h573z" />
    <glyph glyph-name="Ohungarumlaut" unicode="&#x150;" 
d="M558 -20q-197 0 -305 84q-101 77 -144 240.5t-43 463.5q0 354 114 516q118 170 378 170q292 0 407 -218q84 -161 84 -468q0 -286 -39 -445q-43 -178 -148 -259q-108 -84 -304 -84zM558 226q77 0 115 34q47 42 67 155q22 119 22 353q0 279 -57 370q-43 70 -147 70
q-119 0 -161 -95q-44 -98 -44 -345q0 -322 41.5 -432t163.5 -110zM410 1802h287l-246 -266h-205zM778 1802h287l-246 -266h-204z" />
    <glyph glyph-name="ohungarumlaut" unicode="&#x151;" horiz-adv-x="950" 
d="M475 -20q-232 0 -325 138q-84 124 -84 396q0 530 409 530q410 0 410 -530q0 -309 -110 -430q-95 -104 -300 -104zM475 839q-78 0 -110.5 -73.5t-32.5 -251.5q0 -179 32.5 -254t110.5 -75q80 0 112 73.5t32 255.5q0 200 -41 271q-32 54 -103 54zM311 1413h287l-246 -266
h-205zM679 1413h287l-246 -266h-204z" />
    <glyph glyph-name="OE" unicode="&#x152;" horiz-adv-x="1585" 
d="M700 1434h799v-246h-471v-328h348v-246h-348v-368h491v-246h-839q-220 0 -340 64q-126 67 -181 223q-53 152 -53 430q0 413 146 570q135 147 448 147zM741 246v942h-41q-117 0 -171 -25q-70 -33 -102 -129q-34 -105 -34 -317q0 -321 87 -411q40 -41 110 -53q40 -7 110 -7
h41z" />
    <glyph glyph-name="oe" unicode="&#x153;" horiz-adv-x="1524" 
d="M1039 185q62 0 93 31q35 35 52 118l250 -39q-28 -182 -140 -255q-91 -60 -255 -60q-192 0 -285 83q-92 -83 -278 -83q-233 0 -326 138q-84 124 -84 396q0 530 410 530q177 0 276 -96q103 96 287 96q232 0 334 -154q86 -129 86 -376v-43h-574q0 -159 38 -224
q36 -62 116 -62zM475 839q-78 0 -110.5 -73.5t-32.5 -251.5q0 -179 32.5 -254t110.5 -75q80 0 112 73.5t32 255.5q0 200 -41 271q-32 54 -103 54zM1039 839q-70 0 -103 -41t-45 -143h295q-21 184 -147 184z" />
    <glyph glyph-name="Racute" unicode="&#x154;" horiz-adv-x="1135" 
d="M106 1434h441q236 0 362 -123q119 -116 119 -328q0 -300 -221 -404l282 -579h-307l-248 532h-141v-532h-287v1434zM393 778h137q131 0 175 56q36 44 36 149q0 111 -50 158t-165 47h-133v-410zM574 1802h287l-246 -266h-205z" />
    <glyph glyph-name="racute" unicode="&#x155;" horiz-adv-x="664" 
d="M638 1044v-235q-45 10 -92 10q-82 0 -128 -55t-46 -160v-604h-266v1024h225l20 -102h5q82 122 282 122zM352 1413h287l-246 -266h-205z" />
    <glyph glyph-name="Rcommaaccent" unicode="&#x156;" horiz-adv-x="1135" 
d="M106 1434h441q236 0 362 -123q119 -116 119 -328q0 -300 -221 -404l282 -579h-307l-248 532h-141v-532h-287v1434zM393 778h137q131 0 175 56q36 44 36 149q0 111 -50 158t-165 47h-133v-410zM676 -82v-205l-59 -143h-93l45 143h-98v205h205z" />
    <glyph glyph-name="rcommaaccent" unicode="&#x157;" horiz-adv-x="664" 
d="M638 1044v-235q-45 10 -92 10q-82 0 -128 -55t-46 -160v-604h-266v1024h225l20 -102h5q82 122 282 122zM359 -82v-205l-59 -143h-93l45 143h-98v205h205z" />
    <glyph glyph-name="Rcaron" unicode="&#x158;" horiz-adv-x="1135" 
d="M106 1434h441q236 0 362 -123q119 -116 119 -328q0 -300 -221 -404l282 -579h-307l-248 532h-141v-532h-287v1434zM393 778h137q131 0 175 56q36 44 36 149q0 111 -50 158t-165 47h-133v-410zM678 1536h-266l-205 266h205l133 -143l133 143h205z" />
    <glyph glyph-name="rcaron" unicode="&#x159;" horiz-adv-x="664" 
d="M659 1044v-235q-45 10 -92 10q-82 0 -128 -55t-46 -160v-604h-266v1024h225l20 -102h5q82 122 282 122zM526 1147h-266l-205 266h205l133 -143l133 143h205z" />
    <glyph glyph-name="Sacute" unicode="&#x15a;" horiz-adv-x="1032" 
d="M967 1092l-246 -62q-31 110 -89 149q-44 29 -124 29q-155 0 -155 -143q0 -49 44 -87t177 -103q209 -102 292 -185q122 -124 122 -301q0 -209 -158 -320q-127 -89 -321 -89q-204 0 -332 107q-117 99 -152 278l266 65q15 -98 80 -154q57 -50 137 -50q97 0 148 47
q45 42 45 117q0 55 -47.5 98t-189.5 114q-203 102 -282 181q-116 118 -116 282q0 198 134 301q115 88 308 88q196 0 311 -101q101 -89 148 -261zM533 1800h287l-246 -266h-205z" />
    <glyph glyph-name="sacute" unicode="&#x15b;" horiz-adv-x="868" 
d="M793 784l-229 -53q-50 108 -140 108q-42 0 -67 -19t-25 -50q0 -68 164 -136q155 -64 230 -136q98 -94 98 -223q0 -151 -133 -232q-105 -63 -258 -63q-167 0 -272 75q-105 74 -136 215l240 56q53 -141 174 -141q117 0 117 90q0 41 -29 66t-131 69q-160 70 -230 135
q-100 91 -100 215q0 144 107 219q91 65 241 65q157 0 248 -67q85 -62 131 -193zM428 1413h287l-246 -266h-205z" />
    <glyph glyph-name="Scedilla" unicode="&#x15e;" horiz-adv-x="1032" 
d="M297 -353l47 80q73 -60 146 -60q41 0 68.5 21t27.5 53q0 30 -28 51t-68 21q-41 0 -64 -16l-32 16l94 166q-196 5 -317 112q-113 99 -146 273l266 66q15 -99 80 -155q57 -50 137 -50q98 0 148 47q45 42 45 117q0 56 -47.5 98.5t-189.5 113.5q-203 102 -282 182
q-116 117 -116 282q0 198 134 301q115 88 308 88q196 0 311 -101q101 -89 148 -261l-246 -62q-31 110 -89 149q-44 29 -124 29q-155 0 -155 -143q0 -49 44 -87t177 -103q209 -102 292 -185q122 -124 122 -301q0 -193 -135 -303q-110 -89 -281 -103l-35 -69l2 -2q15 6 35 6
q76 0 128 -56q46 -47 46 -110q0 -82 -70 -133q-68 -50 -182 -50q-56 0 -110.5 21.5t-88.5 56.5z" />
    <glyph glyph-name="scedilla" unicode="&#x15f;" horiz-adv-x="868" 
d="M220 -353l47 80q72 -60 145 -60q41 0 68.5 21t27.5 53q0 30 -28 51t-68 21q-41 0 -63 -16l-33 16l94 166q-157 6 -257 81q-98 74 -128 210l240 55q53 -141 174 -141q117 0 117 90q0 41 -29 66t-131 69q-160 71 -230 135q-100 92 -100 215q0 145 107 220q91 65 241 65
q157 0 248 -67q85 -62 131 -193l-229 -53q-50 108 -140 108q-42 0 -67 -19t-25 -51q0 -67 164 -135q156 -64 230 -136q98 -94 98 -224q0 -136 -110 -215q-87 -64 -220 -76l-35 -69l2 -2q15 6 35 6q76 0 128 -56q46 -47 46 -110q0 -82 -70 -133q-68 -50 -182 -50
q-56 0 -110.5 21.5t-87.5 56.5z" />
    <glyph glyph-name="Scaron" unicode="&#x160;" horiz-adv-x="1032" 
d="M967 1092l-246 -62q-31 110 -89 149q-44 29 -124 29q-155 0 -155 -143q0 -49 44 -87t177 -103q209 -102 292 -185q122 -124 122 -301q0 -209 -158 -320q-127 -89 -321 -89q-204 0 -332 107q-117 99 -152 278l266 65q15 -98 80 -154q57 -50 137 -50q97 0 148 47
q45 42 45 117q0 55 -47.5 98t-189.5 114q-203 102 -282 181q-116 118 -116 282q0 198 134 301q115 88 308 88q196 0 311 -101q101 -89 148 -261zM655 1536h-266l-205 266h205l133 -143l133 143h205z" />
    <glyph glyph-name="scaron" unicode="&#x161;" horiz-adv-x="868" 
d="M793 784l-229 -53q-50 108 -140 108q-42 0 -67 -19t-25 -50q0 -68 164 -136q155 -64 230 -136q98 -94 98 -223q0 -151 -133 -232q-105 -63 -258 -63q-167 0 -272 75q-105 74 -136 215l240 56q53 -141 174 -141q117 0 117 90q0 41 -29 66t-131 69q-160 70 -230 135
q-100 91 -100 215q0 144 107 219q91 65 241 65q157 0 248 -67q85 -62 131 -193zM556 1147h-266l-205 266h205l133 -143l133 143h205z" />
    <glyph glyph-name="Tcommaaccent" unicode="&#x162;" horiz-adv-x="991" 
d="M25 1434h942v-246h-327v-1188h-287v1188h-328v246zM615 -82v-205l-59 -143h-93l45 143h-98v205h205z" />
    <glyph glyph-name="tcommaaccent" unicode="&#x163;" horiz-adv-x="602" 
d="M25 819v205h102l29 303h237v-303h144v-205h-144v-471q0 -83 26 -113t97 -30h41v-205h-123q-174 0 -240.5 75.5t-66.5 272.5v471h-102zM473 -82v-205l-59 -143h-93l45 143h-98v205h205z" />
    <glyph glyph-name="Tcaron" unicode="&#x164;" horiz-adv-x="991" 
d="M25 1434h942v-246h-327v-1188h-287v1188h-328v246zM645 1536h-266l-205 266h205l133 -143l133 143h205z" />
    <glyph glyph-name="tcaron" unicode="&#x165;" horiz-adv-x="643" 
d="M4 819v205h102l29 303h237v-303h144v-205h-144v-471q0 -83 26 -113t97 -30h41v-205h-123q-174 0 -240.5 75.5t-66.5 272.5v471h-102zM675 1454v-205l-59 -143h-93l45 143h-98v205h205z" />
    <glyph glyph-name="Umacron" unicode="&#x16a;" horiz-adv-x="1196" 
d="M393 1434v-828q0 -231 62 -316q46 -64 143 -64q104 0 153 82q51 87 51 278v848h287v-848q0 -304 -116 -452q-121 -154 -375 -154q-290 0 -406 199q-86 147 -86 417v838h287zM901 1741v-164h-573v164h573z" />
    <glyph glyph-name="umacron" unicode="&#x16b;" horiz-adv-x="1032" 
d="M106 410v614h266v-614q0 -97 37 -152q35 -53 96 -53q82 0 154 71v748h266v-1024h-225l-21 82h-4q-43 -43 -121.5 -72.5t-150.5 -29.5q-156 0 -234 139q-63 111 -63 291zM802 1352v-164h-573v164h573z" />
    <glyph glyph-name="Uring" unicode="&#x16e;" horiz-adv-x="1196" 
d="M393 1434v-828q0 -231 62 -316q46 -64 143 -64q104 0 153 82q51 87 51 278v848h287v-848q0 -304 -116 -452q-121 -154 -375 -154q-290 0 -406 199q-86 147 -86 417v838h287zM410 1698q0 91 68 151q58 52 137 52q91 0 152 -67q53 -58 53 -136q0 -90 -68 -151
q-58 -52 -137 -52q-91 0 -152 67q-53 58 -53 136zM535 1698q0 -32 23.5 -55t56.5 -23t56.5 23t23.5 55t-23.5 55t-56.5 23t-56.5 -23t-23.5 -55z" />
    <glyph glyph-name="uring" unicode="&#x16f;" horiz-adv-x="1032" 
d="M106 410v614h266v-614q0 -97 37 -152q35 -53 96 -53q82 0 154 71v748h266v-1024h-225l-21 82h-4q-43 -43 -121.5 -72.5t-150.5 -29.5q-156 0 -234 139q-63 111 -63 291zM311 1354q0 91 68 151q58 52 137 52q91 0 152 -67q53 -58 53 -136q0 -90 -68 -151q-58 -52 -137 -52
q-91 0 -152 67q-53 58 -53 136zM436 1354q0 -32 23.5 -55t56.5 -23t56.5 23t23.5 55t-23.5 55t-56.5 23t-56.5 -23t-23.5 -55z" />
    <glyph glyph-name="Uhungarumlaut" unicode="&#x170;" horiz-adv-x="1196" 
d="M393 1434v-828q0 -231 62 -316q46 -64 143 -64q104 0 153 82q51 87 51 278v848h287v-848q0 -304 -116 -452q-121 -154 -375 -154q-290 0 -406 199q-86 147 -86 417v838h287zM430 1800h287l-246 -266h-205zM798 1800h287l-246 -266h-204z" />
    <glyph glyph-name="uhungarumlaut" unicode="&#x171;" horiz-adv-x="1032" 
d="M106 410v614h266v-614q0 -97 37 -152q35 -53 96 -53q82 0 154 71v748h266v-1024h-225l-21 82h-4q-43 -43 -121.5 -72.5t-150.5 -29.5q-156 0 -234 139q-63 111 -63 291zM352 1413h287l-246 -266h-205zM720 1413h287l-246 -266h-204z" />
    <glyph glyph-name="Uogonek" unicode="&#x172;" horiz-adv-x="1196" 
d="M640 -324q69 0 140 51l53 -82q-87 -76 -199 -76q-122 0 -189 50q-62 46 -62 124q0 130 178 238q-267 12 -375 209q-80 144 -80 406v838h287v-828q0 -232 62 -317q46 -64 143 -64q104 0 153 82q51 88 51 279v848h287v-848q0 -281 -99 -428q-102 -153 -315 -175
q-141 -110 -141 -219q0 -41 28.5 -64.5t77.5 -23.5z" />
    <glyph glyph-name="uogonek" unicode="&#x173;" horiz-adv-x="1032" 
d="M868 -324q69 0 139 51l53 -82q-86 -76 -198 -76q-122 0 -190 50q-62 46 -62 124q0 137 213 257h-123l-21 82h-4q-43 -44 -121.5 -73.5t-150.5 -29.5q-156 0 -234 139q-63 112 -63 292v614h266v-614q0 -97 37 -153q35 -53 96 -53q82 0 154 72v748h266v-1024
q-163 -119 -163 -236q0 -41 28 -64.5t78 -23.5z" />
    <glyph glyph-name="Ydieresis" unicode="&#x178;" horiz-adv-x="1135" 
d="M570 860l234 574h307l-389 -901v-533h-287v533l-410 901h307l234 -574h4zM533 1782v-246h-246v246h246zM881 1782v-246h-246v246h246z" />
    <glyph glyph-name="Zacute" unicode="&#x179;" horiz-adv-x="1032" 
d="M107 1434h840v-217l-574 -971h594v-246h-901v217l574 971h-533v246zM574 1800h287l-246 -266h-205z" />
    <glyph glyph-name="zacute" unicode="&#x17a;" horiz-adv-x="930" 
d="M127 1024h696v-176l-450 -643h471v-205h-758v176l450 643h-409v205zM538 1413h287l-246 -266h-205z" />
    <glyph glyph-name="Zdotaccent" unicode="&#x17b;" horiz-adv-x="1032" 
d="M107 1434h840v-217l-574 -971h594v-246h-901v217l574 971h-533v246zM656 1782v-246h-246v246h246z" />
    <glyph glyph-name="zdotaccent" unicode="&#x17c;" horiz-adv-x="930" 
d="M127 1024h696v-176l-450 -643h471v-205h-758v176l450 643h-409v205zM618 1393v-246h-246v246h246z" />
    <glyph glyph-name="Zcaron" unicode="&#x17d;" horiz-adv-x="1032" 
d="M107 1434h840v-217l-574 -971h594v-246h-901v217l574 971h-533v246zM666 1536h-266l-205 266h205l133 -143l133 143h205z" />
    <glyph glyph-name="zcaron" unicode="&#x17e;" horiz-adv-x="930" 
d="M127 1024h696v-176l-450 -643h471v-205h-758v176l450 643h-409v205zM597 1147h-266l-205 266h205l133 -143l133 143h205z" />
    <glyph glyph-name="uni018F" unicode="&#x18f;" horiz-adv-x="1155" 
d="M578 1208q-97 0 -138 -56q-34 -46 -57 -165l-297 54q55 245 183 337q108 76 309 76q299 0 414 -200q98 -171 98 -541q0 -397 -129 -569q-123 -164 -383 -164q-292 0 -413 213q-99 175 -99 520v45h717q0 269 -47 362q-44 88 -158 88zM578 226q108 0 148 75q33 61 51 230
h-398q18 -187 64 -249q42 -56 135 -56z" />
    <glyph glyph-name="uni01DD" unicode="&#x1dd;" horiz-adv-x="971" 
d="M518 839q-62 0 -94 -31q-34 -35 -52 -118l-249 39q28 182 140 255q91 60 255 60q240 0 335 -138q85 -123 85 -396q0 -284 -111 -412q-102 -118 -309 -118q-233 0 -335 154q-85 129 -85 376v43h573q0 159 -38 224q-36 62 -115 62zM518 185q70 0 103 41t44 143h-295
q21 -184 148 -184z" />
    <glyph glyph-name="Scommaaccent" unicode="&#x218;" horiz-adv-x="1032" 
d="M967 1092l-246 -62q-31 110 -89 149q-44 29 -124 29q-155 0 -155 -143q0 -49 44 -87t177 -103q209 -102 292 -185q122 -124 122 -301q0 -209 -158 -320q-127 -89 -321 -89q-204 0 -332 107q-117 99 -152 278l266 65q15 -98 80 -154q57 -50 137 -50q97 0 148 47
q45 42 45 117q0 55 -47.5 98t-189.5 114q-203 102 -282 181q-116 118 -116 282q0 198 134 301q115 88 308 88q196 0 311 -101q101 -89 148 -261zM635 -82v-205l-59 -143h-93l45 143h-98v205h205z" />
    <glyph glyph-name="scommaaccent" unicode="&#x219;" horiz-adv-x="868" 
d="M793 784l-229 -53q-50 108 -140 108q-42 0 -67 -19t-25 -50q0 -68 164 -136q155 -64 230 -136q98 -94 98 -223q0 -151 -133 -232q-105 -63 -258 -63q-167 0 -272 75q-105 74 -136 215l240 56q53 -141 174 -141q117 0 117 90q0 41 -29 66t-131 69q-160 70 -230 135
q-100 91 -100 215q0 144 107 219q91 65 241 65q157 0 248 -67q85 -62 131 -193zM535 -82v-205l-59 -143h-93l45 143h-98v205h205z" />
    <glyph glyph-name="uni021A" unicode="&#x21a;" horiz-adv-x="991" 
d="M25 1434h942v-246h-327v-1188h-287v1188h-328v246zM615 -82v-205l-59 -143h-93l45 143h-98v205h205z" />
    <glyph glyph-name="uni021B" unicode="&#x21b;" horiz-adv-x="602" 
d="M25 819v205h102l29 303h237v-303h144v-205h-144v-471q0 -83 26 -113t97 -30h41v-205h-123q-174 0 -240.5 75.5t-66.5 272.5v471h-102zM473 -82v-205l-59 -143h-93l45 143h-98v205h205z" />
    <glyph glyph-name="uni0259" unicode="&#x259;" horiz-adv-x="971" 
d="M518 839q-62 0 -94 -31q-34 -35 -52 -118l-249 39q28 182 140 255q91 60 255 60q240 0 335 -138q85 -123 85 -396q0 -284 -111 -412q-102 -118 -309 -118q-233 0 -335 154q-85 129 -85 376v43h573q0 159 -38 224q-36 62 -115 62zM518 185q70 0 103 41t44 143h-295
q21 -184 148 -184z" />
    <glyph glyph-name="circumflex" unicode="&#x2c6;" horiz-adv-x="889" 
d="M311 1413h266l205 -266h-205l-133 143l-133 -143h-205z" />
    <glyph glyph-name="caron" unicode="&#x2c7;" horiz-adv-x="889" 
d="M577 1147h-266l-205 266h205l133 -143l133 143h205z" />
    <glyph glyph-name="uni02C9" unicode="&#x2c9;" horiz-adv-x="786" 
d="M679 1352v-164h-573v164h573z" />
    <glyph glyph-name="breve" unicode="&#x2d8;" horiz-adv-x="807" 
d="M536 1393h164q-18 -128 -93 -196q-76 -70 -204 -70q-244 0 -297 266h164q22 -123 133 -123q110 0 133 123z" />
    <glyph glyph-name="dotaccent" unicode="&#x2d9;" horiz-adv-x="459" 
d="M352 1393v-246h-246v246h246z" />
    <glyph glyph-name="ring" unicode="&#x2da;" horiz-adv-x="623" 
d="M106 1313q0 91 68 151q58 52 137 52q91 0 152 -67q53 -58 53 -136q0 -90 -68 -151q-58 -52 -137 -52q-91 0 -152 67q-53 58 -53 136zM231 1313q0 -32 23.5 -55t56.5 -23t56.5 23t23.5 55t-23.5 55t-56.5 23t-56.5 -23t-23.5 -55z" />
    <glyph glyph-name="ogonek" unicode="&#x2db;" horiz-adv-x="664" 
d="M364 -324q69 0 139 51l54 -82q-87 -76 -199 -76q-122 0 -190 50q-62 46 -62 124q0 137 213 257h102q-163 -119 -163 -236q0 -41 28.5 -64.5t77.5 -23.5z" />
    <glyph glyph-name="tilde" unicode="&#x2dc;" horiz-adv-x="848" 
d="M587 1393h154q-20 -116 -64 -169q-47 -57 -129 -57q-50 0 -121 33q-63 29 -100 29q-34 0 -49 -13t-22 -49h-150q29 226 201 226q50 0 137 -37q59 -25 84 -25q31 0 42 11.5t17 50.5z" />
    <glyph glyph-name="hungarumlaut" unicode="&#x2dd;" horiz-adv-x="1032" 
d="M270 1413h287l-246 -266h-205zM638 1413h287l-246 -266h-204z" />
    <glyph glyph-name="uni0309" unicode="&#x309;" horiz-adv-x="696" 
d="M123 1656q33 35 88 56.5t111 21.5q129 0 199 -64q53 -49 53 -118q0 -73 -58 -123q-51 -43 -116 -43q-20 0 -35 6l-2 -2v-86h-143l-1 186l33 16q23 -16 64 -16q39 0 67.5 21t28.5 51q0 32 -27.5 53t-68.5 21q-73 0 -146 -60z" />
    <glyph glyph-name="uni0323" unicode="&#x323;" horiz-adv-x="492" 
d="M369 -148v-246h-246v246h246z" />
    <glyph glyph-name="uni037E" unicode="&#x37e;" horiz-adv-x="438" 
d="M332 246v-246l-82 -225h-123l62 225h-103v246h246zM332 942v-246h-246v246h246z" />
    <glyph glyph-name="tonos" unicode="&#x384;" horiz-adv-x="463" 
d="M213 1469l164 -62l-164 -389l-127 47z" />
    <glyph glyph-name="Alphatonos" unicode="&#x386;" horiz-adv-x="1176" 
d="M387 307l-75 -307h-287l387 1434h352l387 -1434h-286l-76 307h-402zM449 553h278l-137 559h-4zM162 1469l164 -62l-164 -389l-127 47z" />
    <glyph glyph-name="uni0387" unicode="&#x387;" horiz-adv-x="623" 
d="M434 860v-246h-246v246h246z" />
    <glyph glyph-name="Epsilontonos" unicode="&#x388;" horiz-adv-x="1135" 
d="M290 1434h758v-246h-471v-328h348v-246h-348v-368h491v-246h-778v1434zM80 1469l164 -62l-164 -389l-127 47z" />
    <glyph glyph-name="Etatonos" unicode="&#x389;" horiz-adv-x="1380" 
d="M577 614v-614h-287v1434h287v-574h409v574h287v-1434h-287v614h-409zM80 1469l164 -62l-164 -389l-127 47z" />
    <glyph glyph-name="Iotatonos" unicode="&#x38a;" horiz-adv-x="684" 
d="M577 1434v-1434h-287v1434h287zM80 1469l164 -62l-164 -389l-127 47z" />
    <glyph glyph-name="Omicrontonos" unicode="&#x38c;" horiz-adv-x="1217" 
d="M80 1469l164 -62l-164 -389l-127 47zM660 -20q-197 0 -305 84q-100 77 -143.5 240.5t-43.5 463.5q0 354 114 516q118 170 378 170q292 0 407 -218q84 -161 84 -468q0 -286 -39 -445q-43 -178 -148 -259q-108 -84 -304 -84zM660 226q77 0 115 34q47 42 67 155
q22 119 22 353q0 279 -57 370q-43 70 -147 70q-119 0 -161 -95q-44 -98 -44 -345q0 -322 41.5 -432t163.5 -110z" />
    <glyph glyph-name="Upsilontonos" unicode="&#x38e;" horiz-adv-x="1360" 
d="M794 860l234 574h307l-389 -901v-533h-287v533l-410 901h307l234 -574h4zM80 1469l164 -62l-164 -389l-127 47z" />
    <glyph glyph-name="Omegatonos" unicode="&#x38f;" horiz-adv-x="1196" 
d="M291 246v4q-123 188 -123 518q0 354 114 516q118 170 377 170q293 0 408 -218q84 -161 84 -468q0 -330 -123 -518v-4h144v-246h-431v287q66 32 94.5 142.5t28.5 338.5q0 279 -57 370q-43 70 -148 70q-118 0 -160 -95q-44 -98 -44 -345q0 -240 35 -356q29 -97 88 -125
v-287h-430v246h143zM80 1469l164 -62l-164 -389l-127 47z" />
    <glyph glyph-name="iotadieresistonos" unicode="&#x390;" horiz-adv-x="479" 
d="M78 1352v-176h-156v176h156zM549 1352v-176h-156v176h156zM233 1542l164 -61l-164 -389l-127 47zM372 1024v-1024h-266v1024h266z" />
    <glyph glyph-name="Alpha" unicode="&#x391;" horiz-adv-x="1176" 
d="M387 307l-75 -307h-287l387 1434h352l387 -1434h-286l-76 307h-402zM449 553h278l-137 559h-4z" />
    <glyph glyph-name="Beta" unicode="&#x392;" horiz-adv-x="1073" 
d="M792 760v-5q117 -46 168 -142q47 -86 47 -222q0 -194 -152 -301q-129 -90 -329 -90h-420v1434h379q230 0 355 -94q126 -95 126 -275q0 -122 -39.5 -191t-134.5 -114zM393 614v-368h113q214 0 214 186q0 105 -71 148q-56 34 -164 34h-92zM393 1188v-328h92q100 0 151 51
q43 43 43 113q0 164 -194 164h-92z" />
    <glyph glyph-name="Gamma" unicode="&#x393;" horiz-adv-x="868" 
d="M393 1188v-1188h-287v1434h737v-246h-450z" />
    <glyph glyph-name="Delta" unicode="&#x394;" horiz-adv-x="1176" 
d="M1151 0h-1126l387 1434h352zM373 246h430l-213 866h-4z" />
    <glyph glyph-name="Delta" unicode="&#x2206;" horiz-adv-x="1176" 
d="M1151 0h-1126l387 1434h352zM373 246h430l-213 866h-4z" />
    <glyph glyph-name="Epsilon" unicode="&#x395;" horiz-adv-x="950" 
d="M106 1434h758v-246h-471v-328h348v-246h-348v-368h491v-246h-778v1434z" />
    <glyph glyph-name="Zeta" unicode="&#x396;" horiz-adv-x="1032" 
d="M107 1434h840v-217l-574 -971h594v-246h-901v217l574 971h-533v246z" />
    <glyph glyph-name="Eta" unicode="&#x397;" horiz-adv-x="1196" 
d="M393 614v-614h-287v1434h287v-574h409v574h287v-1434h-287v614h-409z" />
    <glyph glyph-name="Theta" unicode="&#x398;" 
d="M414 635v205h287v-205h-287zM558 -20q-197 0 -305 84q-101 77 -144 240.5t-43 463.5q0 354 114 516q118 170 378 170q292 0 407 -218q84 -161 84 -468q0 -286 -39 -445q-43 -178 -148 -259q-108 -84 -304 -84zM558 226q77 0 115 34q47 42 67 155q22 119 22 353
q0 279 -57 370q-43 70 -147 70q-119 0 -161 -95q-44 -98 -44 -345q0 -322 41.5 -432t163.5 -110z" />
    <glyph glyph-name="Iota" unicode="&#x399;" horiz-adv-x="500" 
d="M393 1434v-1434h-287v1434h287z" />
    <glyph glyph-name="Kappa" unicode="&#x39a;" 
d="M393 1434v-594h4l365 594h307l-369 -594l389 -840h-307l-258 582h-4l-127 -199v-383h-287v1434h287z" />
    <glyph glyph-name="Lambda" unicode="&#x39b;" horiz-adv-x="1176" 
d="M865 0l-275 1112h-4l-274 -1112h-287l387 1434h352l387 -1434h-286z" />
    <glyph glyph-name="Mu" unicode="&#x39c;" horiz-adv-x="1483" 
d="M1376 1434v-1434h-248v1024h-4l-291 -1024h-174l-301 1024h-4v-1024h-248v1434h375l262 -899h4l258 899h371z" />
    <glyph glyph-name="Nu" unicode="&#x39d;" horiz-adv-x="1196" 
d="M1089 1434v-1434h-258l-463 930h-4v-930h-258v1434h279l442 -889h4v889h258z" />
    <glyph glyph-name="Xi" unicode="&#x39e;" horiz-adv-x="930" 
d="M66 246h799v-246h-799v246zM148 614v246h614v-246h-614zM66 1188v246h778v-246h-778z" />
    <glyph glyph-name="Omicron" unicode="&#x39f;" 
d="M558 -20q-197 0 -305 84q-101 77 -144 240.5t-43 463.5q0 354 114 516q118 170 378 170q292 0 407 -218q84 -161 84 -468q0 -286 -39 -445q-43 -178 -148 -259q-108 -84 -304 -84zM558 226q77 0 115 34q47 42 67 155q22 119 22 353q0 279 -57 370q-43 70 -147 70
q-119 0 -161 -95q-44 -98 -44 -345q0 -322 41.5 -432t163.5 -110z" />
    <glyph glyph-name="Pi" unicode="&#x3a0;" horiz-adv-x="1217" 
d="M393 1188v-1188h-287v1434h1004v-1434h-287v1188h-430z" />
    <glyph glyph-name="Rho" unicode="&#x3a1;" horiz-adv-x="1094" 
d="M106 1434h441q236 0 362 -123q119 -116 119 -328q0 -232 -136 -349q-119 -102 -329 -102h-170v-532h-287v1434zM393 778h137q131 0 175 56q36 44 36 149q0 111 -50 158t-165 47h-133v-410z" />
    <glyph glyph-name="Sigma" unicode="&#x3a3;" horiz-adv-x="1032" 
d="M106 1434h840v-246h-533l308 -436l-308 -506h553v-246h-860v246l307 506l-307 434v248z" />
    <glyph glyph-name="Tau" unicode="&#x3a4;" horiz-adv-x="991" 
d="M25 1434h942v-246h-327v-1188h-287v1188h-328v246z" />
    <glyph glyph-name="Upsilon" unicode="&#x3a5;" horiz-adv-x="1135" 
d="M570 860l234 574h307l-389 -901v-533h-287v533l-410 901h307l234 -574h4z" />
    <glyph glyph-name="Phi" unicode="&#x3a6;" horiz-adv-x="1462" 
d="M885 1434v-211q291 -24 434 -177q119 -128 119 -329q0 -234 -155 -364q-141 -120 -398 -142v-211h-287v209q-304 22 -451 174q-122 127 -122 334q0 233 162 367q148 123 411 141v209h287zM291 717q0 -112 71 -169q75 -61 236 -73v482q-182 -11 -254 -88q-53 -56 -53 -152
zM1172 717q0 216 -287 238v-478q287 16 287 240z" />
    <glyph glyph-name="Chi" unicode="&#x3a7;" horiz-adv-x="1176" 
d="M1110 1434l-358 -682l399 -752h-307l-248 502h-4l-260 -502h-307l403 746l-362 688h307l215 -445h4l211 445h307z" />
    <glyph glyph-name="Psi" unicode="&#x3a8;" horiz-adv-x="1360" 
d="M353 1434v-387q0 -140 43.5 -225t140.5 -134v746h287v-746q96 47 140 132q44 87 44 227v387h287v-387q0 -293 -140 -462q-120 -146 -331 -183v-402h-287v402q-243 42 -364 226q-107 162 -107 419v387h287z" />
    <glyph glyph-name="Omega" unicode="&#x3a9;" horiz-adv-x="1073" 
d="M168 246v4q-123 188 -123 518q0 354 114 516q119 170 378 170q293 0 408 -218q84 -161 84 -468q0 -330 -123 -518v-4h143v-246h-430v287q66 32 94.5 142.5t28.5 338.5q0 279 -57 370q-44 70 -148 70q-119 0 -161 -95q-44 -98 -44 -345q0 -240 35 -356q29 -97 88 -125
v-287h-430v246h143z" />
    <glyph glyph-name="Omega" unicode="&#x2126;" horiz-adv-x="1073" 
d="M168 246v4q-123 188 -123 518q0 354 114 516q119 170 378 170q293 0 408 -218q84 -161 84 -468q0 -330 -123 -518v-4h143v-246h-430v287q66 32 94.5 142.5t28.5 338.5q0 279 -57 370q-44 70 -148 70q-119 0 -161 -95q-44 -98 -44 -345q0 -240 35 -356q29 -97 88 -125
v-287h-430v246h143z" />
    <glyph glyph-name="Iotadieresis" unicode="&#x3aa;" horiz-adv-x="500" 
d="M410 1434v-1434h-287v1434h287zM199 1753v-246h-246v246h246zM547 1753v-246h-246v246h246z" />
    <glyph glyph-name="Upsilondieresis" unicode="&#x3ab;" horiz-adv-x="1135" 
d="M570 860l234 574h307l-389 -901v-533h-287v533l-410 901h307l234 -574h4zM531 1753v-246h-246v246h246zM879 1753v-246h-246v246h246z" />
    <glyph glyph-name="alphatonos" unicode="&#x3ac;" horiz-adv-x="1094" 
d="M1029 0h-279q-30 40 -47 100h-4q-24 -53 -86 -86.5t-137 -33.5q-233 0 -326 138q-84 124 -84 396q0 530 410 530q69 0 129.5 -35.5t87.5 -90.5h4q14 51 45 106h287q-142 -236 -142 -510q0 -299 142 -514zM475 839q-78 0 -110.5 -73.5t-32.5 -251.5q0 -179 32.5 -254
t110.5 -75q80 0 112 73.5t32 255.5q0 200 -41 271q-32 54 -103 54zM592 1543l164 -62l-164 -389l-127 47z" />
    <glyph glyph-name="epsilontonos" unicode="&#x3ad;" horiz-adv-x="909" 
d="M750 281l94 -224q-167 -77 -360 -77q-418 0 -418 329q0 159 104 234v4q-65 71 -65 184q0 133 89 219q97 94 277 94q145 0 299 -65l-61 -227q-116 52 -217 52q-137 0 -137 -79q0 -92 151 -92h123v-205h-123q-188 0 -188 -106q0 -102 186 -102q123 0 246 61zM506 1541
l164 -62l-164 -389l-127 47z" />
    <glyph glyph-name="etatonos" unicode="&#x3ae;" horiz-adv-x="1032" 
d="M925 614v-983h-266v983q0 97 -37 152q-35 53 -96 53q-82 0 -154 -71v-748h-266v1024h225l20 -82h5q43 43 121.5 72.5t150.5 29.5q156 0 234 -139q63 -111 63 -291zM551 1543l164 -62l-164 -389l-127 47z" />
    <glyph glyph-name="iotatonos" unicode="&#x3af;" horiz-adv-x="479" 
d="M372 1024v-1024h-266v1024h266zM275 1543l164 -62l-164 -389l-127 47z" />
    <glyph glyph-name="upsilondieresistonos" unicode="&#x3b0;" horiz-adv-x="1073" 
d="M385 1352v-176h-156v176h156zM856 1352v-176h-156v176h156zM550 1542l164 -61l-164 -389l-127 47zM372 1024v-496q0 -206 40 -278q35 -65 124 -65q94 0 131 86q33 79 33 257v496h266v-496q0 -323 -98 -437q-94 -111 -332 -111q-263 0 -355 146q-75 120 -75 402v496h266z
" />
    <glyph glyph-name="alpha" unicode="&#x3b1;" horiz-adv-x="1094" 
d="M1029 0h-279q-30 40 -47 100h-4q-24 -53 -86 -86.5t-137 -33.5q-233 0 -326 138q-84 124 -84 396q0 530 410 530q69 0 129.5 -35.5t87.5 -90.5h4q14 51 45 106h287q-142 -236 -142 -510q0 -299 142 -514zM475 839q-78 0 -110.5 -73.5t-32.5 -251.5q0 -179 32.5 -254
t110.5 -75q80 0 112 73.5t32 255.5q0 200 -41 271q-32 54 -103 54z" />
    <glyph glyph-name="beta" unicode="&#x3b2;" horiz-adv-x="1053" 
d="M516 -21q-80 0 -144 35v-383h-266v1414q0 213 122 320q101 89 267 89q189 0 303 -116q107 -110 107 -293q0 -129 -28 -199t-95 -106v-4q121 -52 168 -140q37 -69 37 -176q0 -441 -471 -441zM372 1045v-762q54 -58 144 -58q85 0 131 56q43 51 43 139q0 103 -55 153
q-45 42 -119 42h-41v245h21q57 0 89.5 49t32.5 135q0 77 -32.5 120.5t-90.5 43.5q-55 0 -89 -45t-34 -118z" />
    <glyph glyph-name="gamma" unicode="&#x3b3;" horiz-adv-x="991" 
d="M945 1024l-317 -942v-451h-266v451l-317 942h266l182 -619h4l182 619h266z" />
    <glyph glyph-name="delta" unicode="&#x3b4;" horiz-adv-x="950" 
d="M475 -20q-230 0 -325 138q-84 122 -84 376q0 347 204 432v4q-110 110 -110 221q0 150 111 224q89 59 237 59h217v-205h-211q-100 0 -100 -78q0 -39 34 -70t130 -80q98 -49 131 -79q176 -159 176 -428q0 -292 -110 -410q-96 -104 -300 -104zM475 799q-81 0 -111 -63
q-32 -68 -32 -242q0 -175 31 -242t112 -67q83 0 112 63q32 68 32 246q0 176 -30.5 240.5t-113.5 64.5z" />
    <glyph glyph-name="epsilon" unicode="&#x3b5;" horiz-adv-x="868" 
d="M750 281l94 -224q-167 -77 -360 -77q-418 0 -418 329q0 159 104 234v4q-65 71 -65 184q0 133 89 219q97 94 277 94q145 0 299 -65l-61 -227q-116 52 -217 52q-137 0 -137 -79q0 -92 151 -92h123v-205h-123q-188 0 -188 -106q0 -102 186 -102q123 0 246 61z" />
    <glyph glyph-name="zeta" unicode="&#x3b6;" horiz-adv-x="827" 
d="M66 514q0 226 132 440q102 164 249 271v4h-340v205h737v-176q-290 -218 -389 -355q-123 -171 -123 -389q0 -177 244 -276q123 -50 171 -117t48 -188q0 -93 -62.5 -169t-201.5 -153l-152 178q97 54 128.5 82.5t31.5 61.5t-23.5 51.5t-91.5 40.5q-358 118 -358 489z" />
    <glyph glyph-name="eta" unicode="&#x3b7;" horiz-adv-x="1032" 
d="M925 614v-983h-266v983q0 97 -37 152q-35 53 -96 53q-82 0 -154 -71v-748h-266v1024h225l20 -82h5q43 43 121.5 72.5t150.5 29.5q156 0 234 -139q63 -111 63 -291z" />
    <glyph glyph-name="theta" unicode="&#x3b8;" 
d="M558 -20q-276 0 -392 217q-100 188 -100 571q0 338 133 516q127 170 359 170q263 0 390 -218q101 -175 101 -468q0 -435 -133 -622q-118 -166 -358 -166zM558 185q115 0 169 132q45 107 54 314h-447q11 -238 65 -343q54 -103 159 -103zM558 1249q-121 0 -174 -124
q-41 -95 -52 -289h449q-11 219 -66 318q-54 95 -157 95z" />
    <glyph glyph-name="iota" unicode="&#x3b9;" horiz-adv-x="479" 
d="M372 1024v-1024h-266v1024h266z" />
    <glyph glyph-name="kappa" unicode="&#x3ba;" horiz-adv-x="991" 
d="M372 1024v-389h4l262 389h287l-272 -369l313 -655h-287l-186 436h-4l-117 -139v-297h-266v1024h266z" />
    <glyph glyph-name="lambda" unicode="&#x3bb;" horiz-adv-x="991" 
d="M516 1434l430 -1434h-266l-182 701h-4l-183 -701h-266l307 1024l-121 410h285z" />
    <glyph glyph-name="nu" unicode="&#x3bd;" horiz-adv-x="991" 
d="M946 1024l-307 -1024h-287l-307 1024h266l183 -700h4l182 700h266z" />
    <glyph glyph-name="xi" unicode="&#x3be;" horiz-adv-x="786" 
d="M332 514q0 -177 244 -277q123 -49 171 -116t48 -189q0 -92 -62.5 -168t-201.5 -153l-152 178q97 53 128.5 81.5t31.5 61.5t-23.5 52t-91.5 40q-358 118 -358 490q0 162 158 283v4q-97 73 -97 223q0 135 99 205h-119v205h696v-205h-274q-79 0 -122 -57q-34 -44 -34 -107
q0 -76 46 -124q45 -48 118 -48h156v-205h-156q-205 0 -205 -174z" />
    <glyph glyph-name="omicron" unicode="&#x3bf;" horiz-adv-x="950" 
d="M475 -20q-232 0 -325 138q-84 124 -84 396q0 530 409 530q410 0 410 -530q0 -309 -110 -430q-95 -104 -300 -104zM475 839q-78 0 -110.5 -73.5t-32.5 -251.5q0 -179 32.5 -254t110.5 -75q80 0 112 73.5t32 255.5q0 200 -41 271q-32 54 -103 54z" />
    <glyph glyph-name="pi" unicode="&#x3c0;" horiz-adv-x="1176" 
d="M1151 1024v-205h-163v-819h-266v819h-267v-819h-266v819h-164v205h1126z" />
    <glyph glyph-name="rho" unicode="&#x3c1;" horiz-adv-x="991" 
d="M106 -369v901q0 290 119 413q96 99 280 99q218 0 321 -135q99 -131 99 -398q0 -273 -105 -414q-88 -118 -233 -118q-147 0 -211 103h-4v-451h-266zM505 819q-133 0 -133 -194v-226q0 -92 35 -143.5t98 -51.5q83 0 117 65q37 72 37 242q0 308 -154 308z" />
    <glyph glyph-name="uni03C2" unicode="&#x3c2;" horiz-adv-x="942" 
d="M332 514q0 -178 244 -277q122 -49 170.5 -116.5t48.5 -188.5q0 -92 -62.5 -168t-201.5 -153l-152 178q96 53 128 81.5t32 61.5t-23.5 52t-91.5 40q-358 118 -358 490q0 530 410 530q358 0 401 -296l-248 -39q-25 130 -154 130q-78 0 -110.5 -73.5t-32.5 -251.5z" />
    <glyph glyph-name="sigma" unicode="&#x3c3;" horiz-adv-x="950" 
d="M722 1024h225v-205h-108q47 -118 47 -305q0 -309 -110 -430q-95 -104 -300 -104q-233 0 -326 138q-84 124 -84 396q0 530 410 530q27 0 129 -10q92 -10 117 -10zM476 839q-79 0 -111.5 -73.5t-32.5 -251.5q0 -179 33 -254t111 -75q80 0 112 73.5t32 255.5q0 200 -41 271
q-32 54 -103 54z" />
    <glyph glyph-name="tau" unicode="&#x3c4;" horiz-adv-x="807" 
d="M25 1024h758v-205h-246v-819h-266v819h-246v205z" />
    <glyph glyph-name="upsilon" unicode="&#x3c5;" horiz-adv-x="1073" 
d="M372 1024v-496q0 -206 40 -278q35 -65 124 -65q94 0 131 86q33 79 33 257v496h266v-496q0 -323 -98 -437q-94 -111 -332 -111q-263 0 -355 146q-75 120 -75 402v496h266z" />
    <glyph glyph-name="phi" unicode="&#x3c6;" horiz-adv-x="1155" 
d="M445 235v809h133q239 0 381 -154q131 -142 131 -376q0 -249 -123 -386q-96 -107 -256 -136v-361h-266v361q-186 33 -284 170q-95 133 -95 352q0 215 146 379l182 -172q-82 -86 -82 -207q0 -223 133 -279zM844 514q0 91 -36 166t-97 111v-558q62 27 97.5 101t35.5 180z
" />
    <glyph glyph-name="chi" unicode="&#x3c7;" horiz-adv-x="1032" 
d="M946 1024l-262 -682l303 -711h-283l-180 471h-4l-192 -471h-283l307 705l-266 688h283l147 -455h4l143 455h283z" />
    <glyph glyph-name="psi" unicode="&#x3c8;" horiz-adv-x="1298" 
d="M332 1024v-377q0 -276 185 -369v746h266v-746q184 89 184 369v377h266v-377q0 -555 -450 -635v-381h-266v381q-451 80 -451 635v377h266z" />
    <glyph glyph-name="omega" unicode="&#x3c9;" horiz-adv-x="1421" 
d="M901 1024h289q73 -91 119.5 -235t46.5 -281q0 -275 -147 -419q-111 -109 -265 -109q-140 0 -231 94h-4q-89 -94 -240 -94q-169 0 -285 143q-118 145 -118 385q0 160 50 305q46 131 120 211h293q-93 -103 -145 -239t-52 -277q0 -154 62 -232q43 -54 98 -54q37 0 61.5 38
t24.5 96v406h266v-406q0 -58 26 -96t66 -38q71 0 112.5 78t41.5 208q0 138 -50 275t-139 241z" />
    <glyph glyph-name="iotadieresis" unicode="&#x3ca;" horiz-adv-x="479" 
d="M372 1024v-1024h-266v1024h266zM205 1393v-246h-246v246h246zM553 1393v-246h-246v246h246z" />
    <glyph glyph-name="upsilondieresis" unicode="&#x3cb;" horiz-adv-x="1073" 
d="M485 1393v-246h-246v246h246zM833 1393v-246h-246v246h246zM372 1024v-496q0 -206 40 -278q35 -65 124 -65q94 0 131 86q33 79 33 257v496h266v-496q0 -323 -98 -437q-94 -111 -332 -111q-263 0 -355 146q-75 120 -75 402v496h266z" />
    <glyph glyph-name="omicrontonos" unicode="&#x3cc;" horiz-adv-x="950" 
d="M475 -20q-232 0 -325 138q-84 124 -84 396q0 530 409 530q410 0 410 -530q0 -309 -110 -430q-95 -104 -300 -104zM475 839q-78 0 -110.5 -73.5t-32.5 -251.5q0 -179 32.5 -254t110.5 -75q80 0 112 73.5t32 255.5q0 200 -41 271q-32 54 -103 54zM510 1543l164 -62
l-164 -389l-127 47z" />
    <glyph glyph-name="upsilontonos" unicode="&#x3cd;" horiz-adv-x="1073" 
d="M372 1024v-496q0 -206 40 -278q35 -65 124 -65q94 0 131 86q33 79 33 257v496h266v-496q0 -323 -98 -437q-94 -111 -332 -111q-263 0 -355 146q-75 120 -75 402v496h266zM572 1543l164 -62l-164 -389l-127 47z" />
    <glyph glyph-name="omegatonos" unicode="&#x3ce;" horiz-adv-x="1421" 
d="M901 1024h289q73 -91 119.5 -235t46.5 -281q0 -275 -147 -419q-111 -109 -265 -109q-140 0 -231 94h-4q-89 -94 -240 -94q-169 0 -285 143q-118 145 -118 385q0 160 50 305q46 131 120 211h293q-93 -103 -145 -239t-52 -277q0 -154 62 -232q43 -54 98 -54q37 0 61.5 38
t24.5 96v406h266v-406q0 -58 26 -96t66 -38q71 0 112.5 78t41.5 208q0 138 -50 275t-139 241zM742 1543l164 -62l-164 -389l-127 47z" />
    <glyph glyph-name="uni0400" unicode="&#x400;" horiz-adv-x="950" 
d="M106 1434h758v-246h-471v-328h348v-246h-348v-368h491v-246h-778v1434zM184 1802h287l164 -266h-205z" />
    <glyph glyph-name="afii10023" unicode="&#x401;" horiz-adv-x="950" 
d="M106 1434h758v-246h-471v-328h348v-246h-348v-368h491v-246h-778v1434zM441 1782v-246h-246v246h246zM789 1782v-246h-246v246h246z" />
    <glyph glyph-name="uni0402" unicode="&#x402;" horiz-adv-x="1360" 
d="M1049 532q0 120 -68 189q-56 57 -137 57q-90 0 -149 -73q-55 -68 -55 -173v-532h-287v1188h-328v246h942v-246h-327v-266h4q46 46 115 74t137 28q227 0 342 -148q98 -127 98 -344q0 -632 -408 -921l-186 190q174 124 244 307q63 164 63 424z" />
    <glyph glyph-name="uni0403" unicode="&#x403;" horiz-adv-x="868" 
d="M393 1188v-1188h-287v1434h737v-246h-450zM514 1802h287l-246 -266h-205z" />
    <glyph glyph-name="uni0404" unicode="&#x404;" 
d="M558 -20q-198 0 -305 82q-101 76 -144 239t-43 467q0 354 114 516q118 170 378 170q409 0 481 -420l-268 -41q-20 118 -68 166.5t-145 48.5q-108 0 -152 -76t-51 -272h346v-246h-346q9 -226 51.5 -307t151.5 -81q106 0 155.5 61.5t67.5 213.5l268 -40q-39 -266 -147 -372
q-113 -109 -344 -109z" />
    <glyph glyph-name="uni0405" unicode="&#x405;" horiz-adv-x="1032" 
d="M967 1092l-246 -62q-31 110 -89 149q-44 29 -124 29q-155 0 -155 -143q0 -49 44 -87t177 -103q209 -102 292 -185q122 -124 122 -301q0 -209 -158 -320q-127 -89 -321 -89q-204 0 -332 107q-117 99 -152 278l266 65q15 -98 80 -154q57 -50 137 -50q97 0 148 47
q45 42 45 117q0 55 -47.5 98t-189.5 114q-203 102 -282 181q-116 118 -116 282q0 198 134 301q115 88 308 88q196 0 311 -101q101 -89 148 -261z" />
    <glyph glyph-name="uni0406" unicode="&#x406;" horiz-adv-x="500" 
d="M393 1434v-1434h-287v1434h287z" />
    <glyph glyph-name="uni0407" unicode="&#x407;" horiz-adv-x="500" 
d="M393 1434v-1434h-287v1434h287zM215 1782v-246h-246v246h246zM563 1782v-246h-246v246h246z" />
    <glyph glyph-name="uni0408" unicode="&#x408;" horiz-adv-x="705" 
d="M25 0v246h76q112 0 156 44q54 54 54 194v950h287v-950q0 -265 -135 -381q-120 -103 -362 -103h-76z" />
    <glyph glyph-name="uni0409" unicode="&#x409;" horiz-adv-x="1954" 
d="M299 860v574h955v-574h170q238 0 361 -132q104 -112 104 -298q0 -225 -153 -338q-125 -92 -328 -92h-441v1188h-383v-363q0 -375 -106 -580q-91 -176 -288 -282l-165 221q171 94 229 274q45 138 45 402zM1391 614h-137v-368h133q131 0 178 53q37 41 37 131q0 99 -48 141
q-50 43 -163 43z" />
    <glyph glyph-name="uni040A" unicode="&#x40a;" horiz-adv-x="1790" 
d="M1243 0h-441v614h-409v-614h-287v1434h287v-574h409v574h287v-574h170q238 0 361 -132q104 -112 104 -298q0 -225 -153 -338q-125 -92 -328 -92zM1226 614h-137v-368h133q131 0 178 53q37 41 37 131q0 99 -48 141q-50 43 -163 43z" />
    <glyph glyph-name="uni040B" unicode="&#x40b;" horiz-adv-x="1442" 
d="M1049 0v532q0 120 -68 189q-56 57 -137 57q-90 0 -149 -73q-55 -68 -55 -173v-532h-287v1188h-328v246h942v-246h-327v-266h4q46 46 115 74t137 28q227 0 342 -148q98 -127 98 -344v-532h-287z" />
    <glyph glyph-name="uni040C" unicode="&#x40c;" 
d="M393 1434v-594h4l365 594h307l-369 -594l389 -840h-307l-258 582h-4l-127 -199v-383h-287v1434h287zM594 1802h287l-246 -266h-205z" />
    <glyph glyph-name="uni040D" unicode="&#x40d;" horiz-adv-x="1196" 
d="M139 0v1434h258v-889h4l443 889h278v-1434h-258v930h-4l-463 -930h-258zM279 1802h287l164 -266h-205z" />
    <glyph glyph-name="uni040E" unicode="&#x40e;" horiz-adv-x="1135" 
d="M1110 1434l-397 -1071q-84 -226 -193 -311q-94 -72 -245 -72h-168v266h147q72 0 111 30t61 103l-401 1055h289l258 -698h4l246 698h288zM702 1782h164q-18 -128 -93 -196q-76 -70 -204 -70q-244 0 -297 266h164q22 -123 133 -123q110 0 133 123z" />
    <glyph glyph-name="uni040F" unicode="&#x40f;" horiz-adv-x="1196" 
d="M393 1434v-1188h409v1188h287v-1434h-393v-274h-197v274h-393v1434h287z" />
    <glyph glyph-name="afii10017" unicode="&#x410;" horiz-adv-x="1176" 
d="M387 307l-75 -307h-287l387 1434h352l387 -1434h-286l-76 307h-402zM449 553h278l-137 559h-4z" />
    <glyph glyph-name="afii10018" unicode="&#x411;" horiz-adv-x="1094" 
d="M546 0h-440v1434h737v-246h-450v-328h170q237 0 360 -132q104 -112 104 -298q0 -225 -153 -338q-124 -92 -328 -92zM530 614h-137v-368h133q130 0 177 53q37 41 37 131q0 99 -48 141q-49 43 -162 43z" />
    <glyph glyph-name="afii10019" unicode="&#x412;" horiz-adv-x="1073" 
d="M792 760v-5q117 -46 168 -142q47 -86 47 -222q0 -194 -152 -301q-129 -90 -329 -90h-420v1434h379q230 0 355 -94q126 -95 126 -275q0 -122 -39.5 -191t-134.5 -114zM393 614v-368h113q214 0 214 186q0 105 -71 148q-56 34 -164 34h-92zM393 1188v-328h92q100 0 151 51
q43 43 43 113q0 164 -194 164h-92z" />
    <glyph glyph-name="afii10020" unicode="&#x413;" horiz-adv-x="868" 
d="M393 1188v-1188h-287v1434h737v-246h-450z" />
    <glyph glyph-name="afii10021" unicode="&#x414;" horiz-adv-x="1339" 
d="M1138 0h-937v-274h-197v520h105q89 85 123 217t34 397v574h955v-1188h114v-520h-197v274zM551 1188v-365q0 -378 -107 -577h490v942h-383z" />
    <glyph glyph-name="afii10022" unicode="&#x415;" horiz-adv-x="950" 
d="M106 1434h758v-246h-471v-328h348v-246h-348v-368h491v-246h-778v1434z" />
    <glyph glyph-name="afii10024" unicode="&#x416;" horiz-adv-x="1729" 
d="M721 860v574h287v-574h61l308 574h307l-389 -696l409 -738h-307l-323 615h-66v-615h-287v615h-65l-324 -615h-307l409 738l-389 696h307l308 -574h61z" />
    <glyph glyph-name="afii10025" unicode="&#x417;" 
d="M1049 420q0 -237 -164 -352q-127 -88 -328 -88q-212 0 -345 104q-128 101 -146 276l266 70q15 -97 84 -154q60 -50 141 -50q94 0 149 64q46 53 46 130q0 215 -195 215h-90v246h70q95 0 139.5 39.5t44.5 123.5q0 79 -42.5 121.5t-121.5 42.5q-179 0 -207 -184l-264 70
q70 360 471 360q209 0 331 -109q120 -108 120 -300q0 -88 -45 -166t-119 -119v-4q205 -110 205 -336z" />
    <glyph glyph-name="afii10026" unicode="&#x418;" horiz-adv-x="1196" 
d="M139 0v1434h258v-889h4l443 889h278v-1434h-258v930h-4l-463 -930h-258z" />
    <glyph glyph-name="afii10027" unicode="&#x419;" horiz-adv-x="1196" 
d="M139 0v1434h258v-889h4l443 889h278v-1434h-258v930h-4l-463 -930h-258zM743 1782h164q-18 -128 -93 -196q-76 -70 -204 -70q-244 0 -297 266h164q22 -123 133 -123q110 0 133 123z" />
    <glyph glyph-name="afii10028" unicode="&#x41a;" 
d="M393 1434v-594h4l365 594h307l-369 -594l389 -840h-307l-258 582h-4l-127 -199v-383h-287v1434h287z" />
    <glyph glyph-name="afii10029" unicode="&#x41b;" horiz-adv-x="1360" 
d="M299 860v574h955v-1434h-287v1188h-381v-363q0 -374 -107 -580q-92 -176 -289 -282l-165 221q171 94 229 274q45 138 45 402z" />
    <glyph glyph-name="afii10030" unicode="&#x41c;" horiz-adv-x="1483" 
d="M1376 1434v-1434h-248v1024h-4l-291 -1024h-174l-301 1024h-4v-1024h-248v1434h375l262 -899h4l258 899h371z" />
    <glyph glyph-name="afii10031" unicode="&#x41d;" horiz-adv-x="1196" 
d="M393 614v-614h-287v1434h287v-574h409v574h287v-1434h-287v614h-409z" />
    <glyph glyph-name="afii10032" unicode="&#x41e;" 
d="M558 -20q-197 0 -305 84q-101 77 -144 240.5t-43 463.5q0 354 114 516q118 170 378 170q292 0 407 -218q84 -161 84 -468q0 -286 -39 -445q-43 -178 -148 -259q-108 -84 -304 -84zM558 226q77 0 115 34q47 42 67 155q22 119 22 353q0 279 -57 370q-43 70 -147 70
q-119 0 -161 -95q-44 -98 -44 -345q0 -322 41.5 -432t163.5 -110z" />
    <glyph glyph-name="afii10033" unicode="&#x41f;" horiz-adv-x="1196" 
d="M393 1188v-1188h-287v1434h983v-1434h-287v1188h-409z" />
    <glyph glyph-name="afii10034" unicode="&#x420;" horiz-adv-x="1094" 
d="M106 1434h441q236 0 362 -123q119 -116 119 -328q0 -232 -136 -349q-119 -102 -329 -102h-170v-532h-287v1434zM393 778h137q131 0 175 56q36 44 36 149q0 111 -50 158t-165 47h-133v-410z" />
    <glyph glyph-name="afii10035" unicode="&#x421;" 
d="M558 -20q-198 0 -305 82q-101 76 -144 239t-43 467q0 354 114 516q118 170 378 170q409 0 481 -419l-268 -41q-20 117 -68 165.5t-145 48.5q-119 0 -161 -95q-44 -98 -44 -345q0 -322 41.5 -432t163.5 -110q106 0 155.5 61.5t67.5 214.5l268 -41q-39 -266 -147 -371
q-113 -110 -344 -110z" />
    <glyph glyph-name="afii10036" unicode="&#x422;" horiz-adv-x="991" 
d="M25 1434h942v-246h-327v-1188h-287v1188h-328v246z" />
    <glyph glyph-name="afii10037" unicode="&#x423;" horiz-adv-x="1135" 
d="M1110 1434l-397 -1071q-84 -226 -193 -311q-94 -72 -245 -72h-168v266h147q72 0 111 30t61 103l-401 1055h289l258 -698h4l246 698h288z" />
    <glyph glyph-name="afii10038" unicode="&#x424;" horiz-adv-x="1462" 
d="M885 1434v-211q291 -24 434 -177q119 -128 119 -329q0 -234 -155 -364q-141 -120 -398 -142v-211h-287v209q-304 22 -451 174q-122 127 -122 334q0 233 162 367q148 123 411 141v209h287zM291 717q0 -112 71 -169q75 -61 236 -73v482q-182 -11 -254 -88q-53 -56 -53 -152
zM1172 717q0 216 -287 238v-478q287 16 287 240z" />
    <glyph glyph-name="afii10039" unicode="&#x425;" horiz-adv-x="1176" 
d="M1110 1434l-358 -682l399 -752h-307l-248 502h-4l-260 -502h-307l403 746l-362 688h307l215 -445h4l211 445h307z" />
    <glyph glyph-name="afii10040" unicode="&#x426;" horiz-adv-x="1208" 
d="M393 1434v-1188h409v1188h287v-1188h115v-520h-197v274h-901v1434h287z" />
    <glyph glyph-name="afii10041" unicode="&#x427;" horiz-adv-x="1155" 
d="M353 1434v-533q0 -119 68 -188q56 -57 137 -57q90 0 149 73q55 68 55 172v533h287v-1434h-287v512h-4q-46 -46 -115 -74t-137 -28q-227 0 -342 148q-98 127 -98 343v533h287z" />
    <glyph glyph-name="afii10042" unicode="&#x428;" horiz-adv-x="1729" 
d="M1007 1434v-1188h328v1188h287v-1434h-1516v1434h287v-1188h327v1188h287z" />
    <glyph glyph-name="afii10043" unicode="&#x429;" horiz-adv-x="1741" 
d="M1539 0h-1433v1434h287v-1188h327v1188h287v-1188h328v1188h287v-1188h114v-520h-197v274z" />
    <glyph glyph-name="afii10044" unicode="&#x42a;" horiz-adv-x="1462" 
d="M25 1188v246h738v-574h170q238 0 361 -132q104 -112 104 -298q0 -225 -153 -338q-125 -92 -328 -92h-441v1188h-451zM900 614h-137v-368h133q131 0 178 53q37 41 37 131q0 99 -48 141q-50 43 -163 43z" />
    <glyph glyph-name="afii10045" unicode="&#x42b;" horiz-adv-x="1585" 
d="M1519 1434v-1434h-287v1434h287zM106 1434h287v-574h170q238 0 361 -132q104 -112 104 -298q0 -225 -153 -338q-125 -92 -328 -92h-441v1434zM393 614v-368h133q131 0 178 53q37 41 37 131q0 99 -48 141q-50 43 -163 43h-137z" />
    <glyph glyph-name="afii10046" unicode="&#x42c;" horiz-adv-x="1094" 
d="M106 0v1434h287v-574h170q238 0 361 -132q104 -112 104 -298q0 -225 -153 -338q-125 -92 -328 -92h-441zM530 614h-137v-368h133q131 0 178 53q37 41 37 131q0 99 -48 141q-50 43 -163 43z" />
    <glyph glyph-name="afii10047" unicode="&#x42d;" 
d="M589 -20q-261 0 -373 142q-84 106 -118 339l268 40q19 -165 78 -225q48 -50 145 -50q59 0 93.5 18t56.5 60q44 85 53 310h-346v246h346q-8 218 -64 292q-43 56 -139 56q-94 0 -141 -45q-52 -50 -72 -170l-268 41q72 420 481 420q293 0 408 -218q84 -161 84 -468
q0 -291 -39 -450q-43 -177 -148 -256q-107 -82 -305 -82z" />
    <glyph glyph-name="afii10048" unicode="&#x42e;" horiz-adv-x="1647" 
d="M1089 -20q-278 0 -387 175q-89 142 -102 459h-207v-614h-287v1434h287v-574h207q12 306 130 449q119 145 359 145q293 0 408 -218q84 -161 84 -468q0 -287 -39 -445q-43 -178 -148 -259q-108 -84 -305 -84zM1089 226q78 0 116 34q47 42 67 155q22 119 22 353
q0 279 -57 370q-43 70 -148 70q-118 0 -160 -95q-44 -98 -44 -345q0 -322 41.5 -432t162.5 -110z" />
    <glyph glyph-name="afii10049" unicode="&#x42f;" horiz-adv-x="1135" 
d="M620 1434h441v-1434h-287v532h-141l-248 -532h-307l282 579q-221 104 -221 404q0 241 153 357q123 94 328 94zM637 778h137v410h-133q-130 0 -178 -61q-37 -47 -37 -144q0 -116 46 -160.5t165 -44.5z" />
    <glyph glyph-name="afii10065" unicode="&#x430;" horiz-adv-x="991" 
d="M482 839q-114 0 -144 -130l-239 36q20 153 126 229q96 70 257 70q189 0 298 -100q105 -96 105 -266v-678h-225l-19 82h-2q-89 -102 -241 -102q-158 0 -247 76q-85 73 -85 200q0 125 89.5 207.5t289.5 142.5l174 60v16q0 82 -32.5 119.5t-104.5 37.5zM619 338v143
l-164 -65q-123 -44 -123 -139q0 -46 34 -74t89 -28q164 0 164 163z" />
    <glyph glyph-name="afii10066" unicode="&#x431;" horiz-adv-x="950" 
d="M475 -20q-230 0 -325 139q-84 122 -84 375q0 423 98 636q92 197 260 197q117 0 174.5 25.5t116.5 101.5l170 -125q-72 -106 -152 -149t-206 -43q-86 0 -124.5 -35t-49.5 -123h4q46 25 119 25q409 0 409 -510q0 -288 -110 -408q-97 -106 -300 -106zM475 799
q-77 0 -110 -70t-33 -235q0 -187 43 -256q33 -53 100 -53q79 0 111.5 69.5t32.5 239.5q0 184 -41 252q-33 53 -103 53z" />
    <glyph glyph-name="afii10067" unicode="&#x432;" horiz-adv-x="930" 
d="M833 753q0 -82 -24.5 -126.5t-88.5 -77.5v-5q144 -70 144 -253q0 -144 -122 -224q-103 -67 -261 -67h-375v1024h344q184 0 283 -69q100 -69 100 -202zM372 430v-225h96q132 0 132 114q0 111 -148 111h-80zM372 819v-205h78q54 0 85.5 27.5t31.5 75.5q0 102 -117 102h-78z
" />
    <glyph glyph-name="afii10068" unicode="&#x433;" horiz-adv-x="745" 
d="M106 1024h614v-205h-348v-819h-266v1024z" />
    <glyph glyph-name="afii10069" unicode="&#x434;" 
d="M184 0v-274h-180v479h110q61 60 86 153.5t25 255.5v410h787v-819h98v-479h-180v274h-746zM491 819v-233q0 -235 -70 -381h325v614h-255z" />
    <glyph glyph-name="afii10070" unicode="&#x435;" horiz-adv-x="971" 
d="M486 185q62 0 93 31q35 35 52 118l250 -39q-28 -182 -140 -255q-91 -60 -255 -60q-240 0 -335 138q-85 123 -85 396q0 284 111 412q102 118 309 118q232 0 334 -154q86 -129 86 -376v-43h-574q0 -159 38 -224q36 -62 116 -62zM486 839q-70 0 -103 -41t-45 -143h295
q-20 184 -147 184z" />
    <glyph glyph-name="afii10072" unicode="&#x436;" horiz-adv-x="1360" 
d="M41 1024h285l180 -410h41v410h266v-410h41l180 410h285l-264 -504l280 -520h-284l-197 410h-41v-410h-266v410h-41l-197 -410h-284l280 520z" />
    <glyph glyph-name="afii10073" unicode="&#x437;" horiz-adv-x="926" 
d="M861 309q0 -176 -135 -263q-102 -66 -261 -66q-174 0 -265 67q-98 71 -134 233l254 60q25 -155 145 -155q61 0 97.5 34t36.5 91q0 128 -134 128h-71v205h57q125 0 125 96q0 47 -29.5 73.5t-81.5 26.5q-118 0 -141 -141l-250 62q44 161 158 229q90 55 233 55
q166 0 266 -81q99 -81 99 -224q0 -112 -113 -195q144 -85 144 -235z" />
    <glyph glyph-name="afii10074" unicode="&#x438;" horiz-adv-x="1032" 
d="M106 0v1024h246v-594h4l323 594h246v-1024h-246v592h-4l-323 -592h-246z" />
    <glyph glyph-name="afii10075" unicode="&#x439;" horiz-adv-x="1032" 
d="M106 0v1024h246v-594h4l323 594h246v-1024h-246v592h-4l-323 -592h-246zM638 1393h164q-18 -128 -93 -196q-76 -70 -204 -70q-244 0 -297 266h164q22 -123 133 -123q110 0 133 123z" />
    <glyph glyph-name="afii10076" unicode="&#x43a;" horiz-adv-x="991" 
d="M372 1024v-389h4l262 389h287l-272 -369l313 -655h-287l-186 436h-4l-117 -139v-297h-266v1024h266z" />
    <glyph glyph-name="afii10077" unicode="&#x43b;" horiz-adv-x="1135" 
d="M222 614v410h807v-1024h-266v819h-275v-233q0 -257 -82 -408q-63 -115 -201 -215l-180 178q120 70 162 191q35 98 35 282z" />
    <glyph glyph-name="afii10078" unicode="&#x43c;" horiz-adv-x="1217" 
d="M1110 1024v-1024h-225v594h-4l-211 -594h-124l-211 594h-4v-594h-225v1024h295l205 -578h4l205 578h295z" />
    <glyph glyph-name="afii10079" unicode="&#x43d;" horiz-adv-x="1032" 
d="M372 430v-430h-266v1024h266v-389h287v389h266v-1024h-266v430h-287z" />
    <glyph glyph-name="afii10080" unicode="&#x43e;" horiz-adv-x="950" 
d="M475 -20q-232 0 -325 138q-84 124 -84 396q0 530 409 530q410 0 410 -530q0 -309 -110 -430q-95 -104 -300 -104zM475 839q-78 0 -110.5 -73.5t-32.5 -251.5q0 -179 32.5 -254t110.5 -75q80 0 112 73.5t32 255.5q0 200 -41 271q-32 54 -103 54z" />
    <glyph glyph-name="afii10081" unicode="&#x43f;" horiz-adv-x="1032" 
d="M372 819v-819h-266v1024h819v-1024h-266v819h-287z" />
    <glyph glyph-name="afii10082" unicode="&#x440;" horiz-adv-x="991" 
d="M106 -369v1393h225l20 -82h5q90 102 231 102q338 0 338 -533q0 -273 -105 -414q-88 -118 -233 -118q-147 0 -211 103h-4v-451h-266zM505 819q-87 0 -133 -92v-328q0 -92 35 -143.5t98 -51.5q83 0 117 65q37 72 37 242q0 308 -154 308z" />
    <glyph glyph-name="afii10083" unicode="&#x441;" horiz-adv-x="930" 
d="M633 354l252 -39q-20 -194 -142 -273q-96 -62 -267 -62q-233 0 -326 138q-84 124 -84 396q0 530 410 530q358 0 401 -296l-248 -39q-25 130 -154 130q-78 0 -110.5 -73.5t-32.5 -251.5q0 -179 32.5 -254t110.5 -75q74 0 111 40t47 129z" />
    <glyph glyph-name="afii10084" unicode="&#x442;" horiz-adv-x="807" 
d="M25 1024h758v-205h-246v-819h-266v819h-246v205z" />
    <glyph glyph-name="afii10085" unicode="&#x443;" horiz-adv-x="991" 
d="M946 1024l-328 -1024q-37 -121 -65 -181t-66 -100q-86 -88 -258 -88h-123v205h41q84 0 129 35q49 38 76 129l-307 1024h266l182 -701h4l182 701h267z" />
    <glyph glyph-name="afii10086" unicode="&#x444;" horiz-adv-x="1503" 
d="M885 1434v-476h4q93 87 211 87q338 0 338 -533q0 -273 -105 -415q-88 -118 -233 -118q-147 0 -211 103h-4v-451h-266v451h-4q-64 -103 -211 -103q-166 0 -257 154q-81 140 -81 379q0 533 338 533q122 0 211 -87h4v476h266zM1018 820q-87 0 -133 -93v-350q8 -173 133 -173
q83 0 117 66q37 71 37 242q0 308 -154 308zM486 820q-154 0 -154 -308q0 -169 35 -238.5t119 -69.5q63 0 98 51.5t35 143.5v328q-46 93 -133 93z" />
    <glyph glyph-name="afii10087" unicode="&#x445;" horiz-adv-x="991" 
d="M917 1024l-284 -485l313 -539h-266l-182 330h-4l-183 -330h-266l305 532l-278 492h266l151 -289h5l157 289h266z" />
    <glyph glyph-name="afii10088" unicode="&#x446;" horiz-adv-x="1028" 
d="M844 0h-738v1024h266v-819h287v819h266v-819h99v-479h-180v274z" />
    <glyph glyph-name="afii10089" unicode="&#x447;" horiz-adv-x="950" 
d="M332 1024v-381q0 -69 34 -112t89 -43q54 0 88.5 43t34.5 112v381h266v-1024h-266v322h-4q-75 -39 -156 -39q-182 0 -273 108q-79 92 -79 252v381h266z" />
    <glyph glyph-name="afii10090" unicode="&#x448;" horiz-adv-x="1462" 
d="M864 1024v-819h225v819h266v-1024h-1249v1024h266v-819h226v819h266z" />
    <glyph glyph-name="afii10091" unicode="&#x449;" horiz-adv-x="1458" 
d="M1274 0h-1168v1024h266v-819h226v819h266v-819h225v819h266v-819h99v-479h-180v274z" />
    <glyph glyph-name="afii10092" unicode="&#x44a;" horiz-adv-x="1135" 
d="M25 819v205h573v-410h100q191 0 288 -92q83 -80 83 -217q0 -162 -122 -241q-98 -64 -261 -64h-354v819h-307zM657 409h-59v-204h61q79 0 110.5 22.5t31.5 77.5t-33.5 79.5t-110.5 24.5z" />
    <glyph glyph-name="afii10093" unicode="&#x44b;" horiz-adv-x="1360" 
d="M106 0v1024h266v-410h100q191 0 288 -92q83 -80 83 -217q0 -162 -122 -241q-98 -64 -261 -64h-354zM431 409h-59v-204h61q79 0 110.5 22.5t31.5 77.5t-33.5 79.5t-110.5 24.5zM1253 1024v-1024h-266v1024h266z" />
    <glyph glyph-name="afii10094" unicode="&#x44c;" horiz-adv-x="909" 
d="M106 0v1024h266v-410h100q191 0 288 -92q83 -80 83 -217q0 -162 -122 -241q-98 -64 -261 -64h-354zM431 409h-59v-204h61q79 0 110.5 22.5t31.5 77.5t-33.5 79.5t-110.5 24.5z" />
    <glyph glyph-name="afii10095" unicode="&#x44d;" horiz-adv-x="930" 
d="M596 430h-264v184h264q-9 122 -41.5 173.5t-100.5 51.5q-128 0 -153 -131l-248 39q24 162 147 237q99 60 254 60q410 0 410 -530q0 -309 -110 -430q-95 -104 -300 -104q-197 0 -295 83q-96 81 -114 252l252 39q10 -89 47 -129t110 -40q70 0 102 56q33 57 40 189z" />
    <glyph glyph-name="afii10096" unicode="&#x44e;" horiz-adv-x="1421" 
d="M945 -20q-212 0 -306 112q-85 101 -99 318h-168v-410h-266v1024h266v-409h168q34 429 405 429q410 0 410 -529q0 -309 -110 -431q-95 -104 -300 -104zM946 839q-79 0 -111.5 -73.5t-32.5 -251.5q0 -179 32.5 -254t111.5 -75t111 73.5t32 255.5q0 200 -41 271
q-32 54 -102 54z" />
    <glyph glyph-name="afii10097" unicode="&#x44f;" horiz-adv-x="930" 
d="M462 1024h362v-1024h-266v373h-53l-195 -373h-284l225 414q-170 88 -170 282q0 179 121 262q97 66 260 66zM494 578h64v241h-59q-152 0 -152 -123q0 -64 34 -91t113 -27z" />
    <glyph glyph-name="uni0450" unicode="&#x450;" horiz-adv-x="971" 
d="M486 185q62 0 93 31q35 35 52 118l250 -39q-28 -182 -140 -255q-91 -60 -255 -60q-240 0 -335 138q-85 123 -85 396q0 284 111 412q102 118 309 118q232 0 334 -154q86 -129 86 -376v-43h-574q0 -159 38 -224q36 -62 116 -62zM486 839q-70 0 -103 -41t-45 -143h295
q-20 184 -147 184zM178 1413h287l164 -266h-205z" />
    <glyph glyph-name="afii10071" unicode="&#x451;" horiz-adv-x="971" 
d="M486 185q62 0 93 31q35 35 52 118l250 -39q-28 -182 -140 -255q-91 -60 -255 -60q-240 0 -335 138q-85 123 -85 396q0 284 111 412q102 118 309 118q232 0 334 -154q86 -129 86 -376v-43h-574q0 -159 38 -224q36 -62 116 -62zM486 839q-70 0 -103 -41t-45 -143h295
q-20 184 -147 184zM434 1393v-246h-246v246h246zM782 1393v-246h-246v246h246z" />
    <glyph glyph-name="uni0452" unicode="&#x452;" horiz-adv-x="1012" 
d="M905 573v-41q0 -353 -95 -579q-89 -212 -271 -342l-167 190q165 118 222 307q45 149 45 424v41q0 98 -37 153q-35 53 -96 53q-82 0 -154 -72v-707h-266v1106h-102v164h102v164h266v-164h246v-164h-246v-205h4q46 47 115.5 75t136.5 28q156 0 234 -139q63 -112 63 -292z
" />
    <glyph glyph-name="uni0453" unicode="&#x453;" horiz-adv-x="745" 
d="M106 1024h614v-205h-348v-819h-266v1024zM413 1413h287l-246 -266h-205z" />
    <glyph glyph-name="uni0454" unicode="&#x454;" horiz-adv-x="930" 
d="M598 430h-264q7 -132 39.5 -188.5t101.5 -56.5q73 0 110.5 40t47.5 129l252 -39q-20 -194 -143 -273q-95 -62 -267 -62q-232 0 -325 138q-84 124 -84 396q0 530 409 530q180 0 283 -79q98 -76 118 -218l-247 -39q-25 131 -154 131q-68 0 -100.5 -52t-40.5 -173h264v-184z
" />
    <glyph glyph-name="uni0455" unicode="&#x455;" horiz-adv-x="868" 
d="M793 784l-229 -53q-50 108 -140 108q-42 0 -67 -19t-25 -50q0 -68 164 -136q155 -64 230 -136q98 -94 98 -223q0 -151 -133 -232q-105 -63 -258 -63q-167 0 -272 75q-105 74 -136 215l240 56q53 -141 174 -141q117 0 117 90q0 41 -29 66t-131 69q-160 70 -230 135
q-100 91 -100 215q0 144 107 219q91 65 241 65q157 0 248 -67q85 -62 131 -193z" />
    <glyph glyph-name="uni0456" unicode="&#x456;" horiz-adv-x="479" 
d="M372 1024v-1024h-266v1024h266zM372 1413v-246h-266v246h266z" />
    <glyph glyph-name="uni0457" unicode="&#x457;" horiz-adv-x="479" 
d="M372 1024v-1024h-266v1024h266zM205 1393v-246h-246v246h246zM553 1393v-246h-246v246h246z" />
    <glyph glyph-name="uni0458" unicode="&#x458;" horiz-adv-x="500" 
d="M393 1024v-983q0 -242 -63 -324q-66 -86 -244 -86h-123v205h41q71 0 97 30t26 113v1045h266zM393 1413v-246h-266v246h266z" />
    <glyph glyph-name="uni0459" unicode="&#x459;" horiz-adv-x="1544" 
d="M202 614v410h807v-410h100q191 0 287 -92q84 -80 84 -217q0 -162 -122 -241q-98 -64 -261 -64h-354v819h-275v-234q0 -257 -82 -407q-63 -115 -201 -215l-180 178q120 70 162 191q35 98 35 282zM1068 409h-59v-204h61q78 0 110 22.5t32 77.5t-34 79.5t-110 24.5z" />
    <glyph glyph-name="uni045A" unicode="&#x45a;" horiz-adv-x="1462" 
d="M659 635v389h266v-410h100q191 0 288 -92q83 -80 83 -217q0 -162 -122 -241q-98 -64 -261 -64h-354v430h-287v-430h-266v1024h266v-389h287zM984 409h-59v-204h62q78 0 109.5 22.5t31.5 77.5q0 56 -33.5 80t-110.5 24z" />
    <glyph glyph-name="uni045B" unicode="&#x45b;" horiz-adv-x="1012" 
d="M-16 1106v164h102v164h266v-164h246v-164h-246v-205h4q46 47 115.5 75t137.5 28q156 0 234 -139q63 -112 63 -292v-573h-266v573q0 98 -37 153q-35 53 -97 53q-82 0 -154 -72v-707h-266v1106h-102z" />
    <glyph glyph-name="uni045C" unicode="&#x45c;" horiz-adv-x="991" 
d="M372 1024v-389h4l262 389h287l-272 -369l313 -655h-287l-186 436h-4l-117 -139v-297h-266v1024h266zM516 1413h287l-246 -266h-205z" />
    <glyph glyph-name="uni045D" unicode="&#x45d;" horiz-adv-x="1032" 
d="M106 0v1024h246v-594h4l323 594h246v-1024h-246v592h-4l-323 -592h-246zM235 1413h287l164 -266h-205z" />
    <glyph glyph-name="uni045E" unicode="&#x45e;" horiz-adv-x="991" 
d="M946 1024l-328 -1024q-37 -121 -65 -181t-66 -100q-86 -88 -258 -88h-123v205h41q84 0 129 35q49 38 76 129l-307 1024h266l182 -701h4l182 701h267zM628 1393h164q-18 -128 -93 -196q-76 -70 -204 -70q-244 0 -297 266h164q22 -123 133 -123q110 0 133 123z" />
    <glyph glyph-name="uni045F" unicode="&#x45f;" horiz-adv-x="1032" 
d="M425 0h-319v1024h266v-819h287v819h266v-1024h-320v-274h-180v274z" />
    <glyph glyph-name="afii10050" unicode="&#x490;" horiz-adv-x="942" 
d="M106 1434h614v274h197v-520h-524v-1188h-287v1434z" />
    <glyph glyph-name="afii10098" unicode="&#x491;" horiz-adv-x="803" 
d="M778 819h-406v-819h-266v1024h492v274h180v-479z" />
    <glyph glyph-name="uni0492" unicode="&#x492;" horiz-adv-x="991" 
d="M25 573v246h205v615h737v-246h-450v-369h245v-246h-245v-573h-287v573h-205z" />
    <glyph glyph-name="uni0493" unicode="&#x493;" horiz-adv-x="786" 
d="M25 574h143v450h594v-205h-328v-245h185v-205h-185v-369h-266v369h-143v205z" />
    <glyph glyph-name="uni0496" unicode="&#x496;" horiz-adv-x="1729" 
d="M721 860v574h287v-574h61l307 574h307l-389 -696l272 -492h138v-520h-197v274h-110l-324 615h-65v-615h-287v615h-65l-324 -615h-307l409 738l-389 696h307l308 -574h61z" />
    <glyph glyph-name="uni0497" unicode="&#x497;" horiz-adv-x="1360" 
d="M41 1024h285l180 -409h41v409h266v-409h41l181 409h285l-265 -504l171 -315h110v-479h-180v274h-105l-197 410h-41v-410h-266v410h-41l-197 -410h-284l280 520z" />
    <glyph glyph-name="uni049A" unicode="&#x49a;" 
d="M393 1434v-594h4l364 594h307l-368 -594l274 -594h115v-520h-197v274h-110l-258 582h-4l-127 -199v-383h-287v1434h287z" />
    <glyph glyph-name="uni049B" unicode="&#x49b;" horiz-adv-x="971" 
d="M372 1024v-389h4l262 389h287l-272 -369l215 -450h98v-479h-180v274h-107l-186 436h-4l-117 -139v-297h-266v1024h266z" />
    <glyph glyph-name="uni04A2" unicode="&#x4a2;" horiz-adv-x="1208" 
d="M1007 0h-205v614h-409v-614h-287v1434h287v-574h409v574h287v-1188h115v-520h-197v274z" />
    <glyph glyph-name="uni04A3" unicode="&#x4a3;" horiz-adv-x="1028" 
d="M844 0h-185v430h-287v-430h-266v1024h266v-389h287v389h266v-819h99v-479h-180v274z" />
    <glyph glyph-name="uni04AE" unicode="&#x4ae;" horiz-adv-x="1135" 
d="M570 860l234 574h307l-389 -901v-533h-287v533l-410 901h307l234 -574h4z" />
    <glyph glyph-name="uni04AF" unicode="&#x4af;" horiz-adv-x="950" 
d="M925 1024l-317 -942v-451h-266v451l-317 942h266l182 -619h4l182 619h266z" />
    <glyph glyph-name="uni04B0" unicode="&#x4b0;" horiz-adv-x="1135" 
d="M570 861l234 573h307l-354 -819h272v-205h-307v-410h-287v410h-308v205h271l-373 819h307l234 -573h4z" />
    <glyph glyph-name="uni04B1" unicode="&#x4b1;" horiz-adv-x="950" 
d="M925 1024l-285 -840h214v-184h-246v-369h-266v369h-245v184h210l-282 840h266l182 -619h4l182 619h266z" />
    <glyph glyph-name="uni04B2" unicode="&#x4b2;" horiz-adv-x="1176" 
d="M1110 1434l-359 -682l268 -506h132v-520h-197v274h-111l-248 502h-4l-260 -502h-307l403 746l-362 688h307l215 -445h4l211 445h308z" />
    <glyph glyph-name="uni04B3" unicode="&#x4b3;" horiz-adv-x="991" 
d="M917 1024l-284 -485l194 -334h119v-479h-180v274h-86l-182 330h-4l-183 -330h-266l305 533l-278 491h266l151 -289h5l157 289h266z" />
    <glyph glyph-name="uni04B6" unicode="&#x4b6;" horiz-adv-x="1167" 
d="M353 1434v-533q0 -119 68 -188q56 -57 137 -57q90 0 149 73q55 68 55 172v533h287v-1188h115v-520h-197v274h-205v512h-4q-46 -46 -115 -74t-137 -28q-227 0 -342 148q-98 127 -98 343v533h287z" />
    <glyph glyph-name="uni04B7" unicode="&#x4b7;" horiz-adv-x="946" 
d="M332 1024v-381q0 -69 34 -112t89 -43q54 0 88.5 43t34.5 112v381h266v-819h99v-479h-180v274h-185v322h-4q-74 -39 -156 -39q-182 0 -273 108q-79 92 -79 252v381h266z" />
    <glyph glyph-name="uni04BA" unicode="&#x4ba;" horiz-adv-x="1196" 
d="M802 0v532q0 120 -68 189q-56 57 -136 57q-91 0 -150 -73q-55 -68 -55 -173v-532h-287v1434h287v-512h4q46 46 115 74t137 28q227 0 342 -148q98 -127 98 -344v-532h-287z" />
    <glyph glyph-name="uni04BB" unicode="&#x4bb;" horiz-adv-x="991" 
d="M618 0v381q0 69 -34 112t-89 43q-54 0 -88.5 -43t-34.5 -112v-381h-266v1024h266v-322h4q75 39 156 39q182 0 273 -108q79 -92 79 -252v-381h-266z" />
    <glyph glyph-name="uni04C0" unicode="&#x4c0;" horiz-adv-x="500" 
d="M393 1434v-1434h-287v1434h287z" />
    <glyph glyph-name="uni04C1" unicode="&#x4c1;" horiz-adv-x="1729" 
d="M721 860v574h287v-574h61l308 574h307l-389 -696l409 -738h-307l-323 615h-66v-615h-287v615h-65l-324 -615h-307l409 738l-389 696h307l308 -574h61zM1002 1782h164q-19 -128 -93 -196q-76 -70 -204 -70q-244 0 -297 266h164q22 -123 133 -123q110 0 133 123z" />
    <glyph glyph-name="uni04C2" unicode="&#x4c2;" horiz-adv-x="1360" 
d="M41 1024h285l180 -410h41v410h266v-410h41l180 410h285l-264 -504l280 -520h-284l-197 410h-41v-410h-266v410h-41l-197 -410h-284l280 520zM830 1393h164q-19 -128 -93 -196q-76 -70 -204 -70q-244 0 -297 266h164q22 -123 133 -123q110 0 133 123z" />
    <glyph glyph-name="uni04CF" unicode="&#x4cf;" horiz-adv-x="500" 
d="M393 1434v-1434h-287v1434h287z" />
    <glyph glyph-name="uni04D8" unicode="&#x4d8;" horiz-adv-x="1155" 
d="M578 1208q-97 0 -138 -56q-34 -46 -57 -165l-297 54q55 245 183 337q108 76 309 76q299 0 414 -200q98 -171 98 -541q0 -397 -129 -569q-123 -164 -383 -164q-292 0 -413 213q-99 175 -99 520v45h717q0 269 -47 362q-44 88 -158 88zM578 226q108 0 148 75q33 61 51 230
h-398q18 -187 64 -249q42 -56 135 -56z" />
    <glyph glyph-name="uni04D9" unicode="&#x4d9;" horiz-adv-x="971" 
d="M518 839q-62 0 -94 -31q-34 -35 -52 -118l-249 39q28 182 140 255q91 60 255 60q240 0 335 -138q85 -123 85 -396q0 -284 -111 -412q-102 -118 -309 -118q-233 0 -335 154q-85 129 -85 376v43h573q0 159 -38 224q-36 62 -115 62zM518 185q70 0 103 41t44 143h-295
q21 -184 148 -184z" />
    <glyph glyph-name="uni04E2" unicode="&#x4e2;" horiz-adv-x="1196" 
d="M139 0v1434h258v-889h4l443 889h278v-1434h-258v930h-4l-463 -930h-258zM972 1696v-164h-573v164h573z" />
    <glyph glyph-name="uni04E3" unicode="&#x4e3;" horiz-adv-x="1032" 
d="M106 0v1024h246v-594h4l323 594h246v-1024h-246v592h-4l-323 -592h-246zM781 1352v-164h-573v164h573z" />
    <glyph glyph-name="uni04E8" unicode="&#x4e8;" 
d="M558 -20q-197 0 -305 84q-101 77 -144 240.5t-43 463.5q0 354 114 516q118 170 378 170q292 0 407 -218q84 -161 84 -468q0 -287 -39 -445q-43 -178 -148 -259q-108 -84 -304 -84zM558 226q58 0 92.5 18t56.5 60q43 85 51 310h-403q9 -226 51.5 -307t151.5 -81zM558 1208
q-108 0 -152 -76t-51 -272h405q-7 218 -64 292q-43 56 -138 56z" />
    <glyph glyph-name="uni04E9" unicode="&#x4e9;" horiz-adv-x="950" 
d="M475 -20q-232 0 -325 138q-84 125 -84 397q0 529 409 529q410 0 410 -529q0 -309 -110 -431q-95 -104 -300 -104zM476 839q-68 0 -100.5 -51.5t-41.5 -172.5h281q-8 122 -40 173t-99 51zM476 185q67 0 99 51.5t40 173.5h-281q10 -121 42.5 -173t99.5 -52z" />
    <glyph glyph-name="uni04EE" unicode="&#x4ee;" horiz-adv-x="1135" 
d="M1110 1434l-397 -1071q-84 -226 -193 -311q-94 -72 -245 -72h-168v266h147q72 0 111 30t61 103l-401 1055h289l258 -698h4l246 698h288zM876 1700v-164h-573v164h573z" />
    <glyph glyph-name="uni04EF" unicode="&#x4ef;" horiz-adv-x="991" 
d="M946 1024l-328 -1024q-37 -121 -65 -181t-66 -100q-86 -88 -258 -88h-123v205h41q84 0 129 35q49 38 76 129l-307 1024h266l182 -701h4l182 701h267zM781 1352v-164h-573v164h573z" />
    <glyph glyph-name="uni2011" unicode="&#x2011;" horiz-adv-x="786" 
d="M86 487v246h614v-246h-614z" />
    <glyph glyph-name="figuredash" unicode="&#x2012;" horiz-adv-x="991" 
d="M86 569v205h819v-205h-819z" />
    <glyph glyph-name="endash" unicode="&#x2013;" horiz-adv-x="991" 
d="M86 569v205h819v-205h-819z" />
    <glyph glyph-name="emdash" unicode="&#x2014;" horiz-adv-x="1503" 
d="M86 569v205h1331v-205h-1331z" />
    <glyph glyph-name="afii00208" unicode="&#x2015;" horiz-adv-x="1503" 
d="M86 569v205h1331v-205h-1331z" />
    <glyph glyph-name="quoteleft" unicode="&#x2018;" horiz-adv-x="418" 
d="M86 962v246l82 226h123l-62 -226h103v-246h-246z" />
    <glyph glyph-name="quoteright" unicode="&#x2019;" horiz-adv-x="418" 
d="M332 1434v-246l-82 -225h-123l62 225h-103v246h246z" />
    <glyph glyph-name="quotesinglbase" unicode="&#x201a;" horiz-adv-x="418" 
d="M332 246v-246l-82 -225h-123l62 225h-103v246h246z" />
    <glyph glyph-name="quotedblleft" unicode="&#x201c;" horiz-adv-x="766" 
d="M86 962v246l82 226h123l-62 -226h103v-246h-246zM434 962v246l82 226h123l-61 -226h102v-246h-246z" />
    <glyph glyph-name="quotedblright" unicode="&#x201d;" horiz-adv-x="766" 
d="M680 1434v-246l-82 -225h-123l62 225h-103v246h246zM332 1434v-246l-82 -225h-123l62 225h-103v246h246z" />
    <glyph glyph-name="quotedblbase" unicode="&#x201e;" horiz-adv-x="766" 
d="M680 246v-246l-82 -225h-123l62 225h-103v246h246zM332 246v-246l-82 -225h-123l62 225h-103v246h246z" />
    <glyph glyph-name="dagger" unicode="&#x2020;" horiz-adv-x="664" 
d="M249 1434h164v-185h144v-143h-144v-492h-164v492h-143v143h143v185z" />
    <glyph glyph-name="daggerdbl" unicode="&#x2021;" horiz-adv-x="664" 
d="M249 1434h164v-185h144v-143h-144v-164h144v-143h-144v-185h-164v185h-143v143h143v164h-143v143h143v185z" />
    <glyph glyph-name="bullet" unicode="&#x2022;" horiz-adv-x="705" 
d="M86 596q0 118 88 197q75 67 178 67q117 0 197 -87q69 -75 69 -177q0 -116 -88 -195q-77 -67 -178 -67q-119 0 -198 86q-68 75 -68 176z" />
    <glyph glyph-name="ellipsis" unicode="&#x2026;" horiz-adv-x="1196" 
d="M332 246v-246h-246v246h246zM721 246v-246h-246v246h246zM1110 246v-246h-246v246h246z" />
    <glyph glyph-name="perthousand" unicode="&#x2030;" horiz-adv-x="2056" 
d="M1191 1434l-778 -1454h-184l778 1454h184zM379 772q-151 0 -215 89q-58 81 -58 253q0 340 273 340q272 0 272 -340q0 -196 -76 -275q-65 -67 -196 -67zM379 1292q-97 0 -97 -178q0 -180 97 -180q96 0 96 180q0 178 -96 178zM1042 -20q-150 0 -214 89q-58 81 -58 253
q0 340 272 340t272 -340q0 -195 -76 -275q-64 -67 -196 -67zM1042 500q-96 0 -96 -178q0 -180 96 -180t96 180q0 178 -96 178zM1677 -20q-151 0 -215 89q-58 81 -58 253q0 340 273 340q272 0 272 -340q0 -195 -76 -275q-65 -67 -196 -67zM1677 500q-97 0 -97 -178
q0 -180 97 -180q96 0 96 180q0 178 -96 178z" />
    <glyph glyph-name="guilsinglleft" unicode="&#x2039;" horiz-adv-x="745" 
d="M524 127l-418 412l418 409l114 -112l-276 -297l276 -299z" />
    <glyph glyph-name="guilsinglright" unicode="&#x203a;" horiz-adv-x="745" 
d="M638 539l-417 -412l-115 113l276 299l-276 297l115 112z" />
    <glyph glyph-name="glyph507" unicode="&#x2044;" horiz-adv-x="930" 
d="M947 1434l-779 -1454h-184l778 1454h185z" />
    <glyph glyph-name="Euro" unicode="&#x20ac;" horiz-adv-x="1135" 
d="M820 377l266 -70q-50 -177 -164 -253q-111 -74 -303 -74q-250 0 -360 134q-93 112 -119 357h-156l53 164h92q-2 39 -2 123h-143l53 164h97q21 275 139 403q118 129 346 129q383 0 471 -366l-268 -45q-23 90 -69 127.5t-134 37.5q-99 0 -143.5 -63.5t-57.5 -222.5h395
l-53 -164h-346q0 -86 2 -123h305l-53 -164h-242q18 -139 59.5 -192t133.5 -53q82 0 129 35t72 116z" />
    <glyph glyph-name="uni20BD" unicode="&#x20bd;" horiz-adv-x="1135" 
d="M25 532v246h164v656h441q236 0 362 -123q119 -116 119 -328q0 -232 -136 -349q-119 -102 -329 -102h-170v-81h348v-205h-348v-246h-287v246h-164v205h164v81h-164zM476 778h137q131 0 175 56q36 44 36 149q0 111 -50 158t-165 47h-133v-410z" />
    <glyph glyph-name="afii61352" unicode="&#x2116;" horiz-adv-x="2056" 
d="M1232 205h705v-205h-705v205zM1089 1434v-1434h-258l-463 930h-4v-930h-258v1434h279l442 -889h4v889h258zM1581 287q-233 0 -326 138q-84 124 -84 397q0 530 410 530q409 0 409 -530q0 -309 -110 -431q-95 -104 -299 -104zM1581 1147q-79 0 -111.5 -73.5t-32.5 -251.5
q0 -180 33 -255t111 -75q79 0 111 73.5t32 256.5q0 199 -41 271q-32 54 -102 54z" />
    <glyph glyph-name="trademark" unicode="&#x2122;" horiz-adv-x="1257" 
d="M106 1434h412v-121h-136v-453h-141v453h-135v121zM1023 1188h-4l-94 -328h-92l-98 328h-4v-328h-127v574h178l94 -305h4l94 305h176v-574h-127v328z" />
    <glyph glyph-name="minus" unicode="&#x2212;" horiz-adv-x="1073" 
d="M86 569v205h901v-205h-901z" />
    <glyph glyph-name="fraction" unicode="&#x2215;" horiz-adv-x="930" 
d="M947 1434l-779 -1454h-184l778 1454h185z" />
    <glyph glyph-name="radical" unicode="&#x221a;" horiz-adv-x="1319" 
d="M1212 1577l-408 -1819h-213l-278 869l-152 -56l-55 164l332 125l252 -719l315 1436h207z" />
    <glyph glyph-name="approxequal" unicode="&#x2248;" horiz-adv-x="1073" 
d="M377 881q-34 0 -65 -29.5t-76 -106.5l-150 91q122 229 291 229q70 0 182 -69q94 -58 141 -58q35 0 63 26t75 101l149 -90q-121 -227 -287 -227q-73 0 -184 73q-91 60 -139 60zM377 430q-34 0 -65 -29.5t-76 -105.5l-150 90q122 229 291 229q70 0 182 -69q94 -58 141 -58
q35 0 63 26t75 101l149 -90q-121 -227 -287 -227q-73 0 -184 73q-90 60 -139 60z" />
    <glyph glyph-name="notequal" unicode="&#x2260;" horiz-adv-x="1073" 
d="M885 1204l-103 -205h205v-205h-307l-123 -245h430v-205h-532l-103 -205h-164l103 205h-205v205h307l123 245h-430v205h532l103 205h164z" />
    <glyph glyph-name="lessequal" unicode="&#x2264;" horiz-adv-x="1073" 
d="M86 569v205l901 365v-225l-594 -242l594 -242v-430h-901v205h901z" />
    <glyph glyph-name="greaterequal" unicode="&#x2265;" horiz-adv-x="1073" 
d="M86 0v205h901v-205h-901zM987 774v-205l-901 -364v225l594 242l-594 241v226z" />
    <glyph glyph-name="dotmath" unicode="&#x22c5;" horiz-adv-x="623" 
d="M434 860v-246h-246v246h246z" />
    <glyph glyph-name="uniE001" unicode="&#xe001;" horiz-adv-x="602" 
d="M107 -353l47 80q72 -60 145 -60q41 0 68.5 21t27.5 53q0 30 -28 51t-68 21q-41 0 -64 -16l-32 16l112 197q-104 23 -146 98t-42 240v471h-102v205h102l29 303h237v-303h144v-205h-144v-471q0 -83 26 -113t97 -30h41v-205h-166l-45 -86l2 -2q15 6 35 6q76 0 128 -56
q46 -47 46 -110q0 -82 -70 -133q-68 -50 -182 -50q-56 0 -110.5 21.5t-87.5 56.5z" />
    <glyph glyph-name="uniE002" unicode="&#xe002;" horiz-adv-x="623" 
d="M220 1343h88q95 0 95 -86q0 -49 -39 -74l51 -106h-70l-45 94h-12v-94h-68v266zM288 1230h16q31 0 31 27t-31 27h-16v-54zM66 1208q0 109 81 183q71 63 165 63q109 0 182 -81q64 -70 64 -165q0 -108 -81 -182q-71 -63 -165 -63q-109 0 -182 81q-64 70 -64 164zM136 1208
q0 -77 58 -129q51 -46 118 -46q77 0 130 58q46 51 46 117q0 78 -58 130q-51 46 -118 46q-77 0 -130 -58q-46 -51 -46 -118z" />
    <glyph glyph-name="uniE003" unicode="&#xe003;" horiz-adv-x="623" 
d="M25 1434h209v-66h-67v-223h-74v223h-68v66zM489 1291h-4l-45 -146h-49l-46 146h-4v-146h-68v289h94l47 -143h4l46 143h93v-289h-68v146z" />
    <glyph glyph-name="uniE004" unicode="&#xe004;" horiz-adv-x="8937" 
d="M393 614v-614h-287v1434h287v-574h409v574h287v-1434h-287v614h-409zM1335 410v614h266v-614q0 -97 37 -152q35 -53 97 -53q81 0 153 72v747h266v-1024h-225l-20 82h-5q-43 -43 -121.5 -72.5t-150.5 -29.5q-156 0 -234 139q-63 111 -63 291zM3086 785l-229 -54
q-50 108 -140 108q-42 0 -67 -19t-25 -50q0 -68 164 -136q155 -64 230 -136q98 -94 98 -224q0 -150 -133 -231q-105 -63 -258 -63q-167 0 -272 75q-105 74 -136 215l240 56q53 -141 174 -141q117 0 117 90q0 41 -29.5 66t-130.5 69q-160 70 -230 135q-100 91 -100 215
q0 144 107 219q91 65 241 65q156 0 248 -67q85 -62 131 -192zM4079 1024v-1393h-266v451h-4q-64 -103 -211 -103q-166 0 -256 154q-82 140 -82 378q0 533 338 533q141 0 232 -102h4l20 82h225zM3680 819q-154 0 -154 -308q0 -168 35 -237.5t119 -69.5q63 0 98 51.5t35 143.5
v328q-46 92 -133 92zM5144 1024l-307 -1024h-287l-307 1024h266l183 -700h4l182 700h266zM5642 839q-114 0 -143 -130l-240 36q20 153 126 229q97 70 257 70q189 0 298 -100q105 -96 105 -266v-678h-225l-18 82h-3q-89 -102 -241 -102q-158 0 -247 76q-85 73 -85 200
q0 125 89.5 207.5t289.5 142.5l174 60v16q0 82 -32.5 119.5t-104.5 37.5zM5779 338v143l-164 -65q-123 -45 -123 -139q0 -46 34 -74t89 -28q164 0 164 163zM6823 1044v-235q-45 10 -92 10q-82 0 -128 -55t-46 -160v-604h-266v1024h225l21 -102h4q81 122 282 122zM7806 614
v-614h-266v614q0 97 -36 152q-35 53 -96 53q-82 0 -154 -71v-748h-266v1024h225l21 -82h4q43 43 121.5 72.5t150.5 29.5q155 0 233 -139q63 -111 63 -291zM8427 839q-114 0 -143 -130l-240 36q20 153 126 229q97 70 257 70q189 0 298 -100q105 -96 105 -266v-678h-225
l-18 82h-3q-89 -102 -241 -102q-158 0 -247 76q-85 73 -85 200q0 125 89.5 207.5t289.5 142.5l174 60v16q0 82 -32.5 119.5t-104.5 37.5zM8564 338v143l-164 -65q-123 -45 -123 -139q0 -46 34 -74t89 -28q164 0 164 163z" />
    <glyph glyph-name="uniE005" unicode="&#xe005;" horiz-adv-x="905" 
d="M840 309q0 -176 -135 -263q-102 -66 -261 -66q-174 0 -265 67q-98 71 -134 233l254 60q25 -155 145 -155q61 0 97.5 34t36.5 91q0 128 -134 128h-71v205h57q125 0 125 96q0 47 -29.5 73.5t-81.5 26.5q-118 0 -141 -141l-250 62q44 161 158 229q90 55 233 55
q166 0 266 -81q99 -81 99 -224q0 -112 -113 -195q144 -85 144 -235zM475 1413h287l-246 -266h-205z" />
    <glyph glyph-name="uniE006" unicode="&#xe006;" horiz-adv-x="909" 
d="M633 354l252 -39q-20 -194 -142 -273q-96 -62 -267 -62q-233 0 -326 138q-84 124 -84 396q0 530 410 530q358 0 401 -296l-248 -39q-25 130 -154 130q-78 0 -110.5 -73.5t-32.5 -251.5q0 -179 32.5 -254t110.5 -75q74 0 111 40t47 129zM517 1413h286l-245 -266h-205z" />
    <glyph glyph-name="uniE007" unicode="&#xe007;" horiz-adv-x="991" 
d="M271 -353l47 80q73 -60 145 -60q41 0 68.5 21t27.5 53q0 30 -28 51t-68 21t-63 -16l-33 16l107 187h-121v1188h-328v246h942v-246h-328v-1188h-84l-45 -86l2 -2q16 6 35 6q76 0 129 -56q45 -47 45 -110q0 -82 -70 -133q-68 -50 -182 -50q-55 0 -110 21.5t-88 56.5z" />
    <glyph glyph-name="uniE008" unicode="&#xe008;" 
d="M558 -20q-198 0 -305 82q-101 76 -144 239t-43 467q0 354 114 516q118 170 378 170q409 0 481 -419l-268 -41q-20 117 -68 165.5t-145 48.5q-119 0 -161 -95q-44 -98 -44 -345q0 -322 41.5 -432t163.5 -110q106 0 155.5 61.5t67.5 214.5l268 -41q-39 -266 -147 -371
q-113 -110 -344 -110zM598 1774h287l-246 -267h-204z" />
    <glyph glyph-name="uniE009" unicode="&#xe009;" 
d="M1049 420q0 -237 -164 -352q-127 -88 -328 -88q-212 0 -345 104q-128 101 -146 276l266 70q15 -97 84 -154q60 -50 141 -50q94 0 149 64q46 53 46 130q0 215 -195 215h-90v246h70q95 0 139.5 39.5t44.5 123.5q0 79 -42.5 121.5t-121.5 42.5q-179 0 -207 -184l-264 70
q70 360 471 360q209 0 331 -109q120 -108 120 -300q0 -88 -45 -166t-119 -119v-4q205 -110 205 -336zM584 1774h287l-246 -267h-205z" />
    <glyph glyph-name="uniE00A" unicode="&#xe00a;" horiz-adv-x="1249" 
d="M446 1335h184l-61 -377h205l61 377h184l-61 -377h184l-28 -178h-185l-37 -227h185l-29 -176h-184l-62 -377h-184l61 377h-204l-62 -377h-184l61 377h-184l29 176h184l37 227h-184l28 178h185zM540 780l-37 -227h205l37 227h-205z" />
    <glyph glyph-name="uniE00B" unicode="&#xe00b;" horiz-adv-x="1884" 
d="M1884 1171l-942 -1191l-942 1191h811v578h262v-578h811zM942 338l483 610h-966z" />
    <glyph glyph-name="uniE00C" unicode="&#xe00c;" horiz-adv-x="1884" 
d="M1884 578h-811v-578h-262v578h-811l942 1192zM942 1411l-483 -610h966z" />
    <glyph glyph-name="uniE00F" unicode="&#xe00f;" 
d="M558 -20q-197 0 -305 84q-101 77 -144 240.5t-43 463.5q0 354 114 516q118 170 378 170q292 0 407 -218q84 -161 84 -468q0 -286 -39 -445q-43 -178 -148 -259q-108 -84 -304 -84zM558 226q77 0 115 34q47 42 67 155q22 119 22 353q0 279 -57 370q-43 70 -147 70
q-119 0 -161 -95q-44 -98 -44 -345q0 -322 41.5 -432t163.5 -110z" />
    <glyph glyph-name="uniE010" unicode="&#xe010;" 
d="M559 1454q219 0 351 -124q118 -111 118 -285q0 -142 -53.5 -254.5t-179.5 -235.5l-320 -309h533v-246h-902v217l457 461q95 96 136.5 181.5t41.5 184.5q0 75 -53 121q-49 43 -129 43q-170 0 -207 -225l-266 70q86 401 473 401z" />
    <glyph glyph-name="uniE011" unicode="&#xe011;" 
d="M1049 420q0 -237 -164 -352q-127 -88 -328 -88q-212 0 -345 104q-128 101 -146 276l266 70q15 -97 84 -154q60 -50 141 -50q94 0 149 64q46 53 46 130q0 215 -195 215h-90v246h70q95 0 139.5 39.5t44.5 123.5q0 79 -42.5 121.5t-121.5 42.5q-179 0 -207 -184l-264 70
q70 360 471 360q209 0 331 -109q120 -108 120 -300q0 -88 -45 -166t-119 -119v-4q205 -110 205 -336z" />
    <glyph glyph-name="uniE012" unicode="&#xe012;" 
d="M66 582l553 852h307v-893h164v-246h-164v-295h-266v295h-594v287zM314 541h346v531h-4l-342 -527v-4z" />
    <glyph glyph-name="uniE013" unicode="&#xe013;" 
d="M66 319l266 70q18 -96 66.5 -140t134.5 -44q132 0 186 87q44 71 44 216q0 139 -64 210q-54 60 -145 60q-127 0 -201 -123h-246l82 779h754v-246h-535l-31 -279h4q88 95 213 95q222 0 338 -159q97 -133 97 -343q0 -522 -496 -522q-228 0 -352 115q-91 85 -115 224z" />
    <glyph glyph-name="uniE014" unicode="&#xe014;" 
d="M373 805h4q97 100 240 100q205 0 329 -142q103 -118 103 -284q0 -232 -117 -363q-122 -136 -358 -136q-291 0 -401 210q-87 167 -87 527q0 417 119 581q114 156 373 156q216 0 326 -92q87 -74 130 -227l-264 -70q-18 80 -60.5 111.5t-131.5 31.5q-113 0 -158 -90
q-47 -93 -47 -313zM367 453q0 -119 64 -178q53 -49 145 -49q106 0 160 65q49 58 49 162q0 119 -64 179q-53 50 -145 50q-105 0 -160 -66q-49 -59 -49 -163z" />
    <glyph glyph-name="uniE015" unicode="&#xe015;" 
d="M106 1188v246h881v-205l-410 -1229h-287l410 1188h-594z" />
    <glyph glyph-name="uniE016" unicode="&#xe016;" 
d="M1049 410q0 -224 -149 -336q-126 -94 -342 -94q-236 0 -369 123q-123 114 -123 307q0 239 205 346v4q-144 78 -144 305q0 209 129 307q108 82 302 82q430 0 430 -389q0 -225 -144 -305v-4q205 -107 205 -346zM393 1055q0 -174 165 -174q79 0 121.5 45t42.5 129
q0 174 -164 174q-165 0 -165 -174zM363 420q0 -113 59 -168q50 -47 136 -47q98 0 149 61q45 55 45 154q0 113 -59 168q-50 47 -135 47q-99 0 -150 -61q-45 -55 -45 -154z" />
    <glyph glyph-name="uniE017" unicode="&#xe017;" 
d="M742 629h-4q-97 -100 -240 -100q-205 0 -329 142q-103 118 -103 284q0 232 117 363q122 136 358 136q291 0 401 -210q87 -167 87 -527q0 -417 -119 -581q-114 -156 -373 -156q-216 0 -326 92q-87 74 -131 227l265 70q18 -80 60.5 -111.5t131.5 -31.5q112 0 158 90
q47 93 47 313zM748 981q0 119 -64 178q-53 49 -145 49q-106 0 -160 -65q-49 -58 -49 -162q0 -119 64 -179q53 -50 145 -50q105 0 160 66q49 59 49 163z" />
    <glyph glyph-name="uniE018" unicode="&#xe018;" horiz-adv-x="418" 
d="M311 -82v-205l-59 -143h-93l45 143h-98v205h205z" />
    <glyph glyph-name="uniE019" unicode="&#xe019;" 
d="M188 0v246h287v869h-4l-201 -101l-102 207l389 213h184v-1188h287v-246h-840z" />
    <glyph glyph-name="glyph65" horiz-adv-x="410" 
 />
    <glyph glyph-name="glyph97" horiz-adv-x="410" 
 />
    <glyph glyph-name="glyph146" horiz-adv-x="410" 
 />
    <glyph glyph-name="glyph152" horiz-adv-x="410" 
 />
    <glyph glyph-name="glyph153" horiz-adv-x="410" 
 />
    <glyph glyph-name="glyph154" horiz-adv-x="410" 
 />
    <glyph glyph-name="glyph156" horiz-adv-x="410" 
 />
    <glyph glyph-name="glyph164" horiz-adv-x="410" 
 />
    <glyph glyph-name="glyph166" horiz-adv-x="410" 
 />
    <glyph glyph-name="glyph172" 
 />
    <glyph glyph-name="glyph185" horiz-adv-x="410" 
 />
    <glyph glyph-name="glyph210" horiz-adv-x="410" 
 />
    <glyph glyph-name="Tilde" horiz-adv-x="1208" 
d="M768 1782h154q-20 -116 -64 -169q-47 -57 -129 -57q-49 0 -121 33q-63 29 -100 29q-34 0 -49 -13t-22 -49h-150q29 226 201 226q50 0 137 -37q59 -25 84 -25q31 0 42 11.5t17 50.5z" />
    <glyph glyph-name="Hungarumlaut" horiz-adv-x="1147" 
d="M410 1802h287l-246 -266h-205zM778 1802h287l-246 -266h-204z" />
    <glyph glyph-name="Cedilla" horiz-adv-x="696" 
d="M123 -353l47 80q73 -60 146 -60q41 0 68.5 21t27.5 53q0 30 -28.5 51t-67.5 21q-41 0 -64 -16l-33 16l107 187h82l-45 -86l2 -2q15 6 35 6q76 0 128 -56q46 -47 46 -110q0 -82 -70 -133q-68 -50 -182 -50q-56 0 -111 21.5t-88 56.5z" />
    <glyph glyph-name="Ogonek" horiz-adv-x="696" 
d="M381 -324q69 0 139 51l54 -82q-87 -76 -199 -76q-122 0 -190 50q-62 46 -62 124q0 137 213 257h102q-163 -119 -163 -236q0 -41 28.5 -64.5t77.5 -23.5z" />
    <glyph glyph-name="Macron" horiz-adv-x="1147" 
d="M860 1741v-164h-573v164h573z" />
    <glyph glyph-name="Commaaccent" horiz-adv-x="1147" 
d="M676 -82v-205l-59 -143h-93l45 143h-98v205h205z" />
    <glyph glyph-name="Caron" horiz-adv-x="1065" 
d="M655 1536h-266l-205 266h205l133 -143l133 143h205z" />
    <glyph glyph-name="Circumflex" horiz-adv-x="1208" 
d="M471 1802h266l205 -266h-205l-133 143l-133 -143h-205z" />
    <glyph glyph-name="Comma.high" horiz-adv-x="901" 
d="M717 1454v-205l-59 -143h-93l45 143h-98v205h205z" />
    <glyph glyph-name="Breve" horiz-adv-x="1147" 
d="M713 1782h164q-18 -128 -93 -196q-76 -70 -204 -70q-244 0 -297 266h164q22 -123 133 -123q110 0 133 123z" />
    <glyph glyph-name="commaaccent" horiz-adv-x="901" 
d="M535 -82v-205l-59 -143h-93l45 143h-98v205h205z" />
    <glyph glyph-name="comma.high" horiz-adv-x="676" 
d="M676 1454v-205l-59 -143h-93l45 143h-98v205h205z" />
    <glyph glyph-name="dieresis.alt" horiz-adv-x="512" 
d="M205 1393v-246h-246v246h246zM553 1393v-246h-246v246h246z" />
    <glyph glyph-name="commareversed" horiz-adv-x="1024" 
d="M389 1147v205l59 143h93l-45 -143h98v-205h-205z" />
    <glyph glyph-name="Grave" horiz-adv-x="1208" 
d="M297 1802h287l164 -266h-205z" />
    <glyph glyph-name="Acute" horiz-adv-x="1208" 
d="M625 1802h287l-246 -266h-205z" />
    <glyph glyph-name="Ring" horiz-adv-x="1208" 
d="M399 1698q0 91 68 151q58 52 137 52q91 0 152 -67q53 -58 53 -136q0 -90 -68 -151q-58 -52 -137 -52q-91 0 -152 67q-53 58 -53 136zM524 1698q0 -32 23.5 -55t56.5 -23t56.5 23t23.5 55t-23.5 55t-56.5 23t-56.5 -23t-23.5 -55z" />
    <glyph glyph-name="Dotaccent" horiz-adv-x="1065" 
d="M656 1782v-246h-246v246h246z" />
    <glyph glyph-name="Dieresis" horiz-adv-x="1208" 
d="M553 1782v-246h-246v246h246zM901 1782v-246h-246v246h246z" />
    <glyph glyph-name="Dieresis.alt" horiz-adv-x="532" 
d="M215 1782v-246h-246v246h246zM563 1782v-246h-246v246h246z" />
    </font>
</defs>
</svg>
